<?xml version="1.0" standalone="no"?>
<!DOCTYPE svg PUBLIC "-//W3C//DTD SVG 1.1//EN" "http://www.w3.org/Graphics/SVG/1.1/DTD/svg11.dtd" >
<svg xmlns="http://www.w3.org/2000/svg" xmlns:xlink="http://www.w3.org/1999/xlink" version="1.1">
<metadata>
Created by FontForge 20160405 at Mon Sep 18 06:22:26 2017
 By www-data
Copyright (c) 2017 MobilePay All Rights Reserved. The information contained herein is proprietary to MobilePay and shall not be reproduced, copied in whole or in part, adapted, modified, or disseminated without the express written consent of MobilePay.
</metadata>
<defs>
<font id="Paytype-Bold" horiz-adv-x="622" >
  <font-face 
    font-family="Paytype"
    font-weight="700"
    font-stretch="normal"
    units-per-em="1000"
    panose-1="2 11 8 3 3 0 0 0 0 0"
    ascent="800"
    descent="-200"
    x-height="502"
    cap-height="680"
    bbox="-205.455 -225 1203 898"
    underline-thickness="50"
    underline-position="-150"
    unicode-range="U+0020-FB04"
  />
<missing-glyph horiz-adv-x="737" 
d="M653 0h-570q-7 0 -12.5 5.5t-5.5 13.5v642q0 8 5.5 13.5t12.5 5.5h570q8 0 13.5 -5.5t5.5 -13.5v-642q0 -7 -5.5 -13t-13.5 -6z" />
    <glyph glyph-name="f_f" unicode="ff" horiz-adv-x="615" 
d="M197 0h-99q-7 0 -12.5 5.5t-5.5 13.5v349q0 7 -5.5 12.5t-13.5 5.5h-34q-7 0 -13 6t-6 13v79q0 7 5.5 12.5t13.5 5.5h35q9 0 13.5 4.5t4.5 13.5v4q0 95 54.5 140.5t168.5 45.5h5q7 0 11.5 -5t4.5 -13v-83q0 -7 -4.5 -12t-11.5 -5q-47 0 -69.5 -16t-22.5 -49v-4
q0 -8 6.5 -14.5t15.5 -6.5h120q8 0 12.5 4.5t4.5 13.5v5q0 94 54 139.5t167 45.5h7q7 0 11.5 -5t4.5 -13v-83q0 -7 -4.5 -12t-11.5 -5q-47 0 -69.5 -16t-22.5 -49v-4q0 -8 6.5 -14.5t15.5 -6.5h53q8 0 13.5 -5.5t5.5 -12.5v-79q0 -7 -5.5 -13t-13.5 -6h-56q-8 0 -13.5 -5.5
t-5.5 -12.5v-349q0 -7 -5.5 -13t-13.5 -6h-99q-7 0 -12.5 5.5t-5.5 13.5v349q0 7 -5.5 12.5t-13.5 5.5h-121q-8 0 -13.5 -5.5t-5.5 -12.5v-349q0 -7 -5.5 -13t-13.5 -6z" />
    <glyph glyph-name="f_i" unicode="fi" horiz-adv-x="567" 
d="M197 0h-99q-7 0 -12.5 5.5t-5.5 13.5v349q0 7 -5.5 12.5t-13.5 5.5h-34q-7 0 -13 6t-6 13v79q0 7 5.5 12.5t13.5 5.5h35q9 0 13.5 4.5t4.5 13.5v3q0 96 54 141.5t167 45.5h7q7 0 11.5 -5t4.5 -13v-83q0 -7 -4.5 -12t-11.5 -5q-48 0 -70 -16.5t-22 -50.5v-2
q0 -8 6.5 -14.5t15.5 -6.5h53q8 0 13.5 -5.5t5.5 -12.5v-79q0 -7 -5.5 -13t-13.5 -6h-56q-8 0 -13.5 -5.5t-5.5 -12.5v-349q0 -7 -5.5 -13t-13.5 -6zM521 633q0 -30 -23 -53t-53 -23q-31 0 -53.5 22.5t-22.5 53.5t22.5 53.5t53.5 22.5q30 0 53 -23t23 -53zM492 0h-99
q-7 0 -12.5 5.5t-5.5 13.5v464q0 8 5.5 13.5t12.5 5.5h99q8 0 13.5 -5.5t5.5 -13.5v-464q0 -7 -5.5 -13t-13.5 -6z" />
    <glyph glyph-name="f_l" unicode="fl" horiz-adv-x="587" 
d="M197 0h-99q-7 0 -12.5 5.5t-5.5 13.5v331q0 7 -5.5 12.5t-13.5 5.5h-34q-7 0 -13 6t-6 13v79q0 7 5.5 12.5t13.5 5.5h35q8 0 13 5t5 13v4q0 95 54 140.5t167 45.5h7q7 0 11.5 -5t4.5 -13v-83q0 -7 -4.5 -11.5t-11.5 -4.5q-48 0 -70 -16.5t-22 -50.5v-3q0 -8 6.5 -14.5
t15.5 -6.5h53q8 0 13.5 -5.5t5.5 -12.5v-79q0 -7 -5.5 -13t-13.5 -6h-56q-8 0 -13.5 -5.5t-5.5 -12.5v-331q0 -7 -5.5 -13t-13.5 -6zM561 -5q-103 0 -144.5 39.5t-41.5 135.5v491q0 8 5.5 13.5t12.5 5.5h99q8 0 13.5 -5.5t5.5 -13.5v-494q0 -26 12.5 -39.5t37.5 -13.5
q8 0 13.5 -5.5t5.5 -13.5v-82q0 -7 -5.5 -12.5t-13.5 -5.5z" />
    <glyph glyph-name="f_f_i" unicode="ffi" horiz-adv-x="862" 
d="M197 0h-99q-7 0 -12.5 5.5t-5.5 13.5v349q0 7 -5.5 12.5t-13.5 5.5h-34q-7 0 -13 6t-6 13v79q0 7 5.5 12.5t13.5 5.5h35q9 0 13.5 4.5t4.5 13.5v4q0 95 54.5 140.5t168.5 45.5h5q7 0 11.5 -5t4.5 -13v-83q0 -7 -4.5 -12t-11.5 -5q-47 0 -69.5 -16t-22.5 -49v-4
q0 -8 6.5 -14.5t15.5 -6.5h120q8 0 12.5 4.5t4.5 13.5v5q0 94 54 139.5t167 45.5h7q7 0 11.5 -5t4.5 -13v-83q0 -7 -4.5 -12t-11.5 -5q-47 0 -69.5 -16t-22.5 -49v-4q0 -8 6.5 -14.5t15.5 -6.5h53q8 0 13.5 -5.5t5.5 -12.5v-79q0 -7 -5.5 -13t-13.5 -6h-56q-8 0 -13.5 -5.5
t-5.5 -12.5v-349q0 -7 -5.5 -13t-13.5 -6h-99q-7 0 -12.5 5.5t-5.5 13.5v349q0 7 -5.5 12.5t-13.5 5.5h-121q-8 0 -13.5 -5.5t-5.5 -12.5v-349q0 -7 -5.5 -13t-13.5 -6zM816 633q0 -31 -22.5 -53.5t-53.5 -22.5t-53.5 22.5t-22.5 53.5t22.5 53.5t53.5 22.5t53.5 -22.5
t22.5 -53.5zM788 0h-99q-7 0 -12.5 5.5t-5.5 13.5v464q0 8 5.5 13.5t12.5 5.5h99q8 0 13.5 -5.5t5.5 -13.5v-464q0 -7 -5.5 -13t-13.5 -6z" />
    <glyph glyph-name="f_f_l" unicode="ffl" horiz-adv-x="882" 
d="M197 0h-99q-7 0 -12.5 5.5t-5.5 13.5v331q0 7 -5.5 12.5t-13.5 5.5h-34q-7 0 -13 6t-6 13v79q0 7 5.5 12.5t13.5 5.5h35q8 0 13 5t5 13v4q0 95 54 140.5t168 45.5h6q7 0 11.5 -5t4.5 -13v-83q0 -7 -4.5 -11.5t-11.5 -4.5q-48 0 -70 -16.5t-22 -50.5v-3q0 -8 6.5 -14.5
t15.5 -6.5h120q8 0 12.5 5t4.5 13v4q0 95 54 140.5t168 45.5h6q7 0 11.5 -5t4.5 -13v-83q0 -7 -4.5 -11.5t-11.5 -4.5q-47 0 -69.5 -16.5t-22.5 -50.5v-3q0 -8 6.5 -14.5t15.5 -6.5h53q8 0 13.5 -5.5t5.5 -12.5v-79q0 -7 -5.5 -13t-13.5 -6h-56q-8 0 -13.5 -5.5t-5.5 -12.5
v-331q0 -7 -5.5 -13t-13.5 -6h-99q-7 0 -12.5 5.5t-5.5 13.5v331q0 7 -5.5 12.5t-13.5 5.5h-121q-8 0 -13.5 -5.5t-5.5 -12.5v-331q0 -7 -5.5 -13t-13.5 -6zM856 -5q-102 0 -143.5 39.5t-41.5 135.5v491q0 8 5.5 13.5t12.5 5.5h99q8 0 13.5 -5.5t5.5 -13.5v-494
q0 -26 12.5 -39.5t36.5 -13.5q8 0 13.5 -5.5t5.5 -13.5v-82q0 -7 -5.5 -12.5t-13.5 -5.5z" />
    <glyph glyph-name="f_b" unicode="fb" horiz-adv-x="943" 
d="M197 0h-99q-7 0 -12.5 5.5t-5.5 13.5v331q0 7 -5.5 12.5t-13.5 5.5h-34q-7 0 -13 6t-6 13v79q0 7 5.5 12.5t13.5 5.5h35q8 0 13 5t5 13v5q0 94 53.5 139.5t165.5 45.5h9q7 0 11.5 -5t4.5 -13v-83q0 -7 -4.5 -11.5t-11.5 -4.5q-47 0 -69.5 -16.5t-22.5 -49.5v-4
q0 -8 6.5 -14.5t15.5 -6.5h53q8 0 13.5 -5.5t5.5 -12.5v-79q0 -7 -5.5 -13t-13.5 -6h-56q-8 0 -13.5 -5.5t-5.5 -12.5v-331q0 -7 -5.5 -13t-13.5 -6zM908 251q0 -112 -71 -188t-176 -76q-36 0 -67.5 12.5t-67.5 41.5q-8 6 -13.5 3.5t-5.5 -12.5v-13q0 -8 -5.5 -13.5
t-12.5 -5.5h-95q-7 0 -13 6t-6 13v642q0 8 6 13.5t13 5.5h99q7 0 12.5 -5.5t5.5 -13.5v-183q0 -10 7 -12t16 5q31 22 64 33t68 11q102 0 172 -76.5t70 -187.5zM507 251q0 -58 38.5 -98.5t93.5 -40.5t94 40.5t39 98.5t-39 99t-94 41t-93.5 -41t-38.5 -99z" />
    <glyph glyph-name="f_h" unicode="fh" horiz-adv-x="898" 
d="M197 0h-99q-7 0 -12.5 5.5t-5.5 13.5v331q0 7 -5.5 12.5t-13.5 5.5h-34q-7 0 -13 6t-6 13v79q0 7 5.5 12.5t13.5 5.5h35q8 0 13 5t5 13v5q0 94 53.5 139.5t165.5 45.5h9q7 0 11.5 -5t4.5 -13v-83q0 -7 -4.5 -11.5t-11.5 -4.5q-47 0 -69.5 -16.5t-22.5 -49.5v-4
q0 -8 6.5 -14.5t15.5 -6.5h53q8 0 13.5 -5.5t5.5 -12.5v-79q0 -7 -5.5 -13t-13.5 -6h-56q-8 0 -13.5 -5.5t-5.5 -12.5v-331q0 -7 -5.5 -13t-13.5 -6zM492 0h-99q-7 0 -12.5 5.5t-5.5 13.5v642q0 8 5.5 13.5t12.5 5.5h99q8 0 13.5 -5.5t5.5 -13.5v-184q0 -10 7 -12t14 4
q26 22 58.5 34t68.5 12q84 0 134 -51.5t50 -138.5v-306q0 -7 -5.5 -13t-13.5 -6h-99q-7 0 -12.5 5.5t-5.5 13.5v284q0 43 -26.5 68t-68.5 25q-43 0 -72 -25.5t-29 -65.5v-286q0 -7 -5.5 -13t-13.5 -6z" />
    <glyph glyph-name="f_j" unicode="fj" horiz-adv-x="567" 
d="M197 0h-99q-7 0 -12.5 5.5t-5.5 13.5v349q0 7 -5.5 12.5t-13.5 5.5h-34q-7 0 -13 6t-6 13v79q0 7 5.5 12.5t13.5 5.5h35q9 0 13.5 4.5t4.5 13.5v3q0 96 54 141.5t167 45.5h7q7 0 11.5 -5t4.5 -13v-83q0 -7 -4.5 -12t-11.5 -5q-48 0 -70 -16.5t-22 -50.5v-2
q0 -8 6.5 -14.5t15.5 -6.5h53q8 0 13.5 -5.5t5.5 -12.5v-79q0 -7 -5.5 -13t-13.5 -6h-56q-8 0 -13.5 -5.5t-5.5 -12.5v-349q0 -7 -5.5 -13t-13.5 -6zM521 633q0 -30 -23 -53t-53 -23q-31 0 -53.5 22.5t-22.5 53.5t22.5 53.5t53.5 22.5q30 0 53 -23t23 -53zM309 -195
q-8 0 -13.5 5.5t-5.5 12.5v83q0 8 5.5 13.5t12.5 5.5q33 0 50 18.5t17 53.5v486q0 8 6 13.5t13 5.5h99q7 0 12.5 -5.5t5.5 -13.5v-486q0 -98 -49.5 -145t-152.5 -47z" />
    <glyph glyph-name="f_k" unicode="fk" horiz-adv-x="836" 
d="M197 0h-99q-7 0 -12.5 5.5t-5.5 13.5v331q0 7 -5.5 12.5t-13.5 5.5h-34q-7 0 -13 6t-6 13v79q0 7 5.5 12.5t13.5 5.5h35q8 0 13 5t5 13v5q0 94 53.5 139.5t165.5 45.5h9q7 0 11.5 -5t4.5 -13v-83q0 -7 -4.5 -11.5t-11.5 -4.5q-47 0 -69.5 -16.5t-22.5 -49.5v-4
q0 -8 6.5 -14.5t15.5 -6.5h53q8 0 13.5 -5.5t5.5 -12.5v-79q0 -7 -5.5 -13t-13.5 -6h-56q-8 0 -13.5 -5.5t-5.5 -12.5v-331q0 -7 -5.5 -13t-13.5 -6zM818 -5q-79 0 -121 26.5t-97 115.5l-39 66q-7 8 -12.5 8.5t-11.5 -6.5l-25 -24q-3 -3 -4 -7t-1 -10v-145q0 -7 -5.5 -13
t-13.5 -6h-96q-7 0 -12.5 5.5t-5.5 13.5v642q0 8 5.5 13.5t12.5 5.5h96q8 0 13.5 -5.5t5.5 -13.5v-320q0 -10 7 -11.5t14 6.5l147 153q5 6 11.5 9.5t11.5 3.5h101q12 0 16.5 -11.5t-3.5 -19.5l-150 -152q-8 -8 -9 -16t4 -17l43 -68q40 -63 64.5 -84t53.5 -21q9 0 14.5 -5.5
t5.5 -14.5v-79q0 -8 -6 -13.5t-14 -5.5z" />
    <glyph glyph-name="f_t" unicode="ft" horiz-adv-x="629" 
d="M80 19v349q0 7 -5.5 12.5t-13.5 5.5h-34q-7 0 -13 6t-6 13v79q0 7 5.5 12.5t13.5 5.5h35q9 0 13.5 4.5t4.5 13.5v3q0 95 53.5 141t164.5 46h10q7 0 11.5 -5t4.5 -13v-83q0 -7 -4.5 -12t-11.5 -5q-47 0 -69.5 -16.5t-22.5 -49.5v-3q0 -8 6.5 -14.5t15.5 -6.5h119
q8 0 13 5.5t5 12.5v86q0 8 5.5 13.5t12.5 5.5h99q8 0 13.5 -5.5t5.5 -13.5v-86q0 -7 5.5 -12.5t13.5 -5.5h65q8 0 13.5 -5.5t5.5 -13.5v-79q0 -7 -5.5 -12.5t-13.5 -5.5h-65q-7 0 -13 -5.5t-6 -13.5v-167q0 -43 22.5 -64.5t66.5 -21.5q7 0 11.5 -4.5t4.5 -11.5v-85
q0 -8 -5 -13t-12 -5h-6q-110 0 -164 50.5t-54 153.5v169q0 8 -5 13t-13 5h-122q-8 0 -13.5 -5.5t-5.5 -12.5v-349q0 -7 -5.5 -13t-13.5 -6h-99q-7 0 -12.5 5.5t-5.5 13.5z" />
    <glyph glyph-name="f_f_b" unicode="ffb" horiz-adv-x="1238" 
d="M197 0h-99q-7 0 -12.5 5.5t-5.5 13.5v331q0 7 -5.5 12.5t-13.5 5.5h-34q-7 0 -13 6t-6 13v79q0 7 5.5 12.5t13.5 5.5h35q8 0 13 5t5 13v4q0 95 54 140.5t168 45.5h6q7 0 11.5 -5t4.5 -13v-83q0 -7 -4.5 -11.5t-11.5 -4.5q-48 0 -70 -16.5t-22 -50.5v-3q0 -8 6.5 -14.5
t15.5 -6.5h120q8 0 12.5 5t4.5 13v4q0 95 54 140.5t168 45.5h6q7 0 11.5 -5t4.5 -13v-83q0 -7 -4.5 -11.5t-11.5 -4.5q-47 0 -69.5 -16.5t-22.5 -50.5v-3q0 -8 6.5 -14.5t15.5 -6.5h53q8 0 13.5 -5.5t5.5 -12.5v-79q0 -7 -5.5 -13t-13.5 -6h-56q-8 0 -13.5 -5.5t-5.5 -12.5
v-331q0 -7 -5.5 -13t-13.5 -6h-99q-7 0 -12.5 5.5t-5.5 13.5v331q0 7 -5.5 12.5t-13.5 5.5h-121q-8 0 -13.5 -5.5t-5.5 -12.5v-331q0 -7 -5.5 -13t-13.5 -6zM1203 251q0 -111 -71 -187.5t-175 -76.5q-36 0 -68 12.5t-68 41.5q-8 6 -13.5 3.5t-5.5 -12.5v-13q0 -8 -5.5 -13.5
t-12.5 -5.5h-94q-7 0 -13 6t-6 13v642q0 8 6 13.5t13 5.5h99q7 0 12.5 -5.5t5.5 -13.5v-183q0 -10 6.5 -12t16.5 5q30 22 63 33t68 11q102 0 172 -76.5t70 -187.5zM803 251q0 -58 38 -98.5t93 -40.5t94 40.5t39 98.5t-39 99t-94 41q-54 0 -92.5 -41t-38.5 -99z" />
    <glyph glyph-name="f_f_h" unicode="ffh" horiz-adv-x="1193" 
d="M197 0h-99q-7 0 -12.5 5.5t-5.5 13.5v331q0 7 -5.5 12.5t-13.5 5.5h-34q-7 0 -13 6t-6 13v79q0 7 5.5 12.5t13.5 5.5h35q8 0 13 5t5 13v4q0 95 54 140.5t168 45.5h6q7 0 11.5 -5t4.5 -13v-83q0 -7 -4.5 -11.5t-11.5 -4.5q-48 0 -70 -16.5t-22 -50.5v-3q0 -8 6.5 -14.5
t15.5 -6.5h120q8 0 12.5 5t4.5 13v4q0 95 54 140.5t168 45.5h6q7 0 11.5 -5t4.5 -13v-83q0 -7 -4.5 -11.5t-11.5 -4.5q-47 0 -69.5 -16.5t-22.5 -50.5v-3q0 -8 6.5 -14.5t15.5 -6.5h53q8 0 13.5 -5.5t5.5 -12.5v-79q0 -7 -5.5 -13t-13.5 -6h-56q-8 0 -13.5 -5.5t-5.5 -12.5
v-331q0 -7 -5.5 -13t-13.5 -6h-99q-7 0 -12.5 5.5t-5.5 13.5v331q0 7 -5.5 12.5t-13.5 5.5h-121q-8 0 -13.5 -5.5t-5.5 -12.5v-331q0 -7 -5.5 -13t-13.5 -6zM788 0h-99q-7 0 -12.5 5.5t-5.5 13.5v642q0 8 5.5 13.5t12.5 5.5h99q8 0 13.5 -5.5t5.5 -13.5v-184q0 -10 6.5 -12
t13.5 4q28 23 60 34.5t67 11.5q84 0 134 -51.5t50 -138.5v-306q0 -7 -5.5 -13t-13.5 -6h-99q-7 0 -12.5 5.5t-5.5 13.5v284q0 43 -26 68t-68 25q-43 0 -72 -25.5t-29 -65.5v-286q0 -7 -5.5 -13t-13.5 -6z" />
    <glyph glyph-name="f_f_j" unicode="ffj" horiz-adv-x="862" 
d="M197 0h-99q-7 0 -12.5 5.5t-5.5 13.5v349q0 7 -5.5 12.5t-13.5 5.5h-34q-7 0 -13 6t-6 13v79q0 7 5.5 12.5t13.5 5.5h35q9 0 13.5 4.5t4.5 13.5v4q0 95 54.5 140.5t168.5 45.5h5q7 0 11.5 -5t4.5 -13v-83q0 -7 -4.5 -12t-11.5 -5q-47 0 -69.5 -16t-22.5 -49v-4
q0 -8 6.5 -14.5t15.5 -6.5h120q8 0 12.5 4.5t4.5 13.5v5q0 94 54 139.5t167 45.5h7q7 0 11.5 -5t4.5 -13v-83q0 -7 -4.5 -12t-11.5 -5q-47 0 -69.5 -16t-22.5 -49v-4q0 -8 6.5 -14.5t15.5 -6.5h53q8 0 13.5 -5.5t5.5 -12.5v-79q0 -7 -5.5 -13t-13.5 -6h-56q-8 0 -13.5 -5.5
t-5.5 -12.5v-349q0 -7 -5.5 -13t-13.5 -6h-99q-7 0 -12.5 5.5t-5.5 13.5v349q0 7 -5.5 12.5t-13.5 5.5h-121q-8 0 -13.5 -5.5t-5.5 -12.5v-349q0 -7 -5.5 -13t-13.5 -6zM816 633q0 -31 -22.5 -53.5t-53.5 -22.5t-53.5 22.5t-22.5 53.5t22.5 53.5t53.5 22.5t53.5 -22.5
t22.5 -53.5zM605 -195q-8 0 -13.5 5t-5.5 13v83q0 8 5 13.5t12 5.5q33 0 50.5 18.5t17.5 53.5v486q0 8 5.5 13.5t12.5 5.5h99q8 0 13.5 -5.5t5.5 -13.5v-486q0 -97 -50 -144.5t-152 -47.5z" />
    <glyph glyph-name="f_f_k" unicode="ffk" horiz-adv-x="1131" 
d="M197 0h-99q-7 0 -12.5 5.5t-5.5 13.5v331q0 7 -5.5 12.5t-13.5 5.5h-34q-7 0 -13 6t-6 13v79q0 7 5.5 12.5t13.5 5.5h35q8 0 13 5t5 13v4q0 95 54 140.5t168 45.5h6q7 0 11.5 -5t4.5 -13v-83q0 -7 -4.5 -11.5t-11.5 -4.5q-48 0 -70 -16.5t-22 -50.5v-3q0 -8 6.5 -14.5
t15.5 -6.5h120q8 0 12.5 5t4.5 13v4q0 95 54 140.5t168 45.5h6q7 0 11.5 -5t4.5 -13v-83q0 -7 -4.5 -11.5t-11.5 -4.5q-47 0 -69.5 -16.5t-22.5 -50.5v-3q0 -8 6.5 -14.5t15.5 -6.5h53q8 0 13.5 -5.5t5.5 -12.5v-79q0 -7 -5.5 -13t-13.5 -6h-56q-8 0 -13.5 -5.5t-5.5 -12.5
v-331q0 -7 -5.5 -13t-13.5 -6h-99q-7 0 -12.5 5.5t-5.5 13.5v331q0 7 -5.5 12.5t-13.5 5.5h-121q-8 0 -13.5 -5.5t-5.5 -12.5v-331q0 -7 -5.5 -13t-13.5 -6zM1113 -5q-79 0 -121 26.5t-97 115.5l-39 66q-7 8 -12.5 8.5t-11.5 -6.5l-25 -24q-3 -3 -4 -7t-1 -10v-145
q0 -7 -5.5 -13t-13.5 -6h-96q-7 0 -12.5 5.5t-5.5 13.5v642q0 8 5.5 13.5t12.5 5.5h96q8 0 13.5 -5.5t5.5 -13.5v-320q0 -10 7 -11.5t14 6.5l147 153q6 6 12.5 9.5t11.5 3.5h100q12 0 16.5 -11.5t-3.5 -19.5l-150 -152q-8 -8 -9 -16t5 -17l42 -68q40 -63 64.5 -84t53.5 -21
q9 0 14.5 -5.5t5.5 -14.5v-79q0 -8 -6 -13.5t-14 -5.5z" />
    <glyph glyph-name="f_f_t" unicode="fft" horiz-adv-x="924" 
d="M894 -5h-5q-110 0 -164 50.5t-54 153.5v169q0 7 -5.5 12.5t-13.5 5.5h-122q-8 0 -13.5 -5.5t-5.5 -12.5v-349q0 -7 -5.5 -13t-13.5 -6h-99q-7 0 -12.5 5.5t-5.5 13.5v349q0 7 -5.5 12.5t-13.5 5.5h-121q-8 0 -13.5 -5.5t-5.5 -12.5v-349q0 -7 -5.5 -13t-13.5 -6h-99
q-7 0 -12.5 5.5t-5.5 13.5v349q0 7 -5.5 12.5t-13.5 5.5h-34q-7 0 -13 6t-6 13v79q0 7 5.5 12.5t13.5 5.5h35q9 0 13.5 4.5t4.5 13.5v4q0 95 54 140.5t166 45.5h8q7 0 11.5 -5t4.5 -13v-83q0 -7 -4.5 -12t-11.5 -5q-48 0 -70 -16.5t-22 -50.5v-2q0 -8 6.5 -14.5t15.5 -6.5
h120q8 0 12.5 4.5t4.5 13.5v2q0 96 54 142t166 46h8q7 0 11.5 -5t4.5 -13v-83q0 -7 -4.5 -12t-11.5 -5q-47 0 -69.5 -16.5t-22.5 -49.5v-3q0 -8 6.5 -14.5t15.5 -6.5h119q8 0 13.5 5.5t5.5 12.5v86q0 8 5.5 13.5t12.5 5.5h99q8 0 13.5 -5.5t5.5 -13.5v-86q0 -7 5.5 -12.5
t12.5 -5.5h65q8 0 13.5 -5.5t5.5 -13.5v-79q0 -7 -5.5 -12.5t-13.5 -5.5h-65q-7 0 -12.5 -5.5t-5.5 -13.5v-167q0 -43 22 -64.5t66 -21.5q7 0 11.5 -4.5t4.5 -11.5v-85q0 -8 -5 -13t-12 -5z" />
    <glyph glyph-name=".notdef" horiz-adv-x="737" 
d="M653 0h-570q-7 0 -12.5 5.5t-5.5 13.5v642q0 8 5.5 13.5t12.5 5.5h570q8 0 13.5 -5.5t5.5 -13.5v-642q0 -7 -5.5 -13t-13.5 -6z" />
    <glyph glyph-name=".null" horiz-adv-x="180" 
 />
    <glyph glyph-name="nonmarkingreturn" horiz-adv-x="333" 
 />
    <glyph glyph-name="space" unicode=" " horiz-adv-x="188" 
 />
    <glyph glyph-name="exclam" unicode="!" horiz-adv-x="256" 
d="M162 207h-69q-7 0 -12 5t-6 13l-19 435q0 8 5.5 14t12.5 6h107q8 0 13.5 -6t4.5 -14l-18 -435q-1 -8 -6.5 -13t-12.5 -5zM206 67q0 -32 -23 -54.5t-56 -22.5q-32 0 -54.5 22.5t-22.5 54.5q0 33 22.5 56.5t54.5 23.5q33 0 56 -23.5t23 -56.5z" />
    <glyph glyph-name="quotedbl" unicode="&#x22;" horiz-adv-x="359" 
d="M127 449h-68q-7 0 -12 4.5t-6 12.5l-14 194q-1 8 4.5 14t13.5 6h95q9 0 15 -6t5 -14l-14 -194q-1 -8 -6 -12.5t-13 -4.5zM303 449h-68q-7 0 -12 4.5t-6 12.5l-14 194q-1 8 4.5 14t13.5 6h95q9 0 15 -6t5 -14l-14 -194q-1 -8 -6 -12.5t-13 -4.5z" />
    <glyph glyph-name="numbersign" unicode="#" 
d="M238 144v-125q0 -7 -5.5 -13t-13.5 -6h-58q-7 0 -12.5 5.5t-5.5 13.5v125q0 11 -4.5 15.5t-15.5 4.5h-45q-8 0 -13.5 5.5t-5.5 12.5v59q0 8 6 13.5t13 5.5h45q11 0 15.5 5t4.5 15v118q0 11 -4.5 15.5t-15.5 4.5h-45q-8 0 -13.5 5.5t-5.5 12.5v58q0 8 6 13.5t13 5.5h45
q11 0 15.5 5t4.5 15v128q0 8 5.5 13.5t12.5 5.5h58q8 0 13.5 -5.5t5.5 -13.5v-128q0 -10 5 -15t15 -5h106q11 0 15.5 5t4.5 15v128q0 8 5.5 13.5t12.5 5.5h58q8 0 13.5 -5.5t5.5 -13.5v-128q0 -10 5 -15t15 -5h45q8 0 13.5 -5.5t5.5 -13.5v-58q0 -7 -5.5 -12.5t-13.5 -5.5
h-45q-10 0 -15 -4.5t-5 -15.5v-118q0 -10 5 -15t15 -5h45q8 0 13.5 -5.5t5.5 -13.5v-59q0 -7 -5.5 -12.5t-13.5 -5.5h-45q-10 0 -15 -4.5t-5 -15.5v-125q0 -7 -5.5 -13t-13.5 -6h-58q-7 0 -12.5 5.5t-5.5 13.5v125q0 11 -4.5 15.5t-15.5 4.5h-106q-10 0 -15 -4.5t-5 -15.5z
M258 260h106q11 0 15.5 5t4.5 15v118q0 11 -4.5 15.5t-15.5 4.5h-106q-10 0 -15 -4.5t-5 -15.5v-118q0 -10 5 -15t15 -5z" />
    <glyph glyph-name="dollar" unicode="$" 
d="M333 -94h-45q-7 0 -12.5 5.5t-5.5 13.5v58q0 10 -4.5 14.5t-15.5 6.5q-90 14 -144.5 63.5t-60.5 126.5q-2 10 2.5 14.5t15.5 4.5h92q10 0 15 -3.5t9 -12.5q8 -27 26.5 -46t45.5 -28q11 -4 15 -2t4 11v142q0 11 -4.5 16t-20.5 8q-106 19 -151.5 61t-45.5 114
q0 81 54.5 136t147.5 68q12 2 16 6.5t4 14.5v33q0 8 5.5 13.5t12.5 5.5h45q8 0 13.5 -5.5t5.5 -13.5v-38q0 -9 4.5 -13.5t16.5 -6.5q79 -15 129.5 -62t59.5 -116q2 -12 -1.5 -17t-13.5 -5h-92q-9 0 -14 3t-10 14q-11 23 -26 39t-35 24q-9 4 -13.5 2t-4.5 -10v-123
q0 -9 3.5 -13t16.5 -7q112 -22 160 -67t48 -122q0 -85 -56 -140.5t-155 -69.5q-10 -1 -13.5 -5t-3.5 -15v-58q0 -8 -5.5 -13.5t-13.5 -5.5zM181 490q0 -24 17 -39.5t56 -26.5q8 -2 12 1t4 12v111q0 9 -4 12t-12 2q-34 -7 -53.5 -26t-19.5 -46zM352 263v-137q0 -8 4.5 -10
t14.5 0q36 10 55 30t19 50q0 29 -18 48.5t-57 31.5q-9 3 -13.5 -0.5t-4.5 -12.5z" />
    <glyph glyph-name="percent" unicode="%" horiz-adv-x="783" 
d="M204 -5h-63q-11 0 -14 8.5t3 17.5l435 653q4 5 9 8t10 3h61q11 0 15 -8.5t-3 -18.5l-435 -653q-4 -5 -8.5 -7.5t-9.5 -2.5zM368 510q0 -71 -49.5 -120t-120.5 -49t-119.5 49t-48.5 120t48.5 120.5t119.5 49.5t120.5 -49.5t49.5 -120.5zM124 510q0 -31 21.5 -53.5
t52.5 -22.5t54 22.5t23 53.5t-23 54.5t-54 23.5t-52.5 -23t-21.5 -55zM753 158q0 -71 -49 -119.5t-121 -48.5q-71 0 -119.5 48.5t-48.5 119.5t48.5 120.5t119.5 49.5t120.5 -49.5t49.5 -120.5zM509 158q0 -31 21.5 -53.5t52.5 -22.5t53.5 22.5t22.5 53.5q0 32 -22.5 55
t-53.5 23t-52.5 -23t-21.5 -55z" />
    <glyph glyph-name="ampersand" unicode="&#x26;" horiz-adv-x="738" 
d="M479 61q-48 -36 -99.5 -53.5t-108.5 -17.5q-105 0 -170 50.5t-65 136.5q0 60 36.5 107.5t108.5 80.5q6 3 7 7.5t-3 10.5q-23 31 -34.5 61.5t-11.5 61.5q0 76 59.5 130t150.5 54q88 0 144 -50.5t56 -125.5q0 -53 -33.5 -95t-105.5 -78q-8 -4 -8.5 -8t5.5 -10l77 -72
q7 -7 12.5 -7t12.5 8l77 95q6 8 12.5 11t16.5 3h92q12 0 15.5 -7.5t-2.5 -14.5l-131 -166q-6 -7 -6 -12t6 -11l132 -125q8 -8 6 -16.5t-13 -8.5h-127q-10 0 -16 3t-14 11l-51 48q-6 6 -11.5 6t-15.5 -7zM270 504q0 -20 10 -41.5t29 -42.5q8 -9 14.5 -10.5t17.5 3.5
q43 20 65 44t22 50q0 30 -23 50t-56 20q-34 0 -56.5 -21.5t-22.5 -51.5zM175 193q0 -39 31.5 -63.5t84.5 -24.5q29 0 55.5 9t53.5 28q8 6 8 10.5t-7 11.5l-124 119q-6 6 -12.5 7t-17.5 -4q-36 -19 -54 -42t-18 -51z" />
    <glyph glyph-name="quotesingle" unicode="'" horiz-adv-x="185" 
d="M127 449h-68q-7 0 -12 4.5t-6 12.5l-14 194q-1 8 4.5 14t13.5 6h95q9 0 15 -6t5 -14l-14 -194q-1 -8 -6 -12.5t-13 -4.5z" />
    <glyph glyph-name="parenleft" unicode="(" horiz-adv-x="343" 
d="M241 -173q-81 83 -135 209.5t-54 244.5q0 116 53 240t136 210q6 6 14.5 6t16.5 -6l41 -32q7 -5 6.5 -13.5t-6.5 -15.5q-65 -78 -106.5 -183.5t-41.5 -205.5q0 -97 39.5 -199t108.5 -189q6 -9 6.5 -16.5t-6.5 -13.5l-41 -37q-7 -6 -16 -5.5t-15 6.5z" />
    <glyph glyph-name="parenright" unicode=")" horiz-adv-x="343" 
d="M290 281q0 -118 -54 -244.5t-136 -209.5q-5 -6 -14 -6.5t-16 5.5l-41 37q-7 6 -6.5 13.5t6.5 16.5q69 87 108.5 189t39.5 199q0 100 -41.5 205.5t-106.5 183.5q-6 7 -6.5 15.5t6.5 13.5l41 32q8 6 16.5 6t13.5 -6q83 -86 136.5 -209.5t53.5 -240.5z" />
    <glyph glyph-name="asterisk" unicode="*" horiz-adv-x="456" 
d="M144 304l-36 21q-6 4 -8.5 11.5t1.5 13.5l59 103h-118q-7 0 -13 6t-6 13v41q0 8 6 13.5t13 5.5h118l-59 102q-4 7 -2 14.5t9 11.5l36 20q6 4 14 2t12 -9l58 -103l59 103q4 7 12 9t14 -2l36 -20q7 -4 9 -11.5t-2 -14.5l-60 -102h119q8 0 13.5 -5.5t5.5 -13.5v-41
q0 -7 -5.5 -13t-13.5 -6h-119l60 -103q4 -6 1.5 -13.5t-8.5 -11.5l-36 -21q-6 -4 -13.5 -2t-11.5 9l-60 103l-59 -103q-4 -7 -11.5 -9t-13.5 2z" />
    <glyph glyph-name="plus" unicode="+" 
d="M350 0h-79q-8 0 -13.5 5.5t-5.5 12.5v165q0 8 -5.5 13.5t-12.5 5.5h-148q-7 0 -12.5 5.5t-5.5 13.5v78q0 8 5.5 13.5t12.5 5.5h148q7 0 12.5 5.5t5.5 13.5v162q0 8 6 13.5t13 5.5h79q7 0 12.5 -5.5t5.5 -13.5v-162q0 -7 6 -13t13 -6h147q8 0 13.5 -5.5t5.5 -13.5v-78
q0 -7 -5.5 -13t-13.5 -6h-147q-7 0 -13 -5.5t-6 -13.5v-165q0 -7 -5 -12.5t-13 -5.5z" />
    <glyph glyph-name="comma" unicode="," horiz-adv-x="221" 
d="M110 -123h-67q-9 0 -14.5 6t-4.5 15l28 225q2 8 6.5 13t11.5 5h96q10 0 15 -7.5t3 -17.5l-54 -222q-2 -8 -7.5 -12.5t-12.5 -4.5z" />
    <glyph glyph-name="hyphen" unicode="-" horiz-adv-x="346" 
d="M290 214h-236q-7 0 -12.5 5.5t-5.5 13.5v78q0 8 5.5 13.5t12.5 5.5h236q8 0 13.5 -5.5t5.5 -13.5v-78q0 -7 -5.5 -13t-13.5 -6z" />
    <glyph glyph-name="period" unicode="." horiz-adv-x="221" 
d="M189 67q0 -31 -23.5 -54t-55.5 -23t-55 22.5t-23 54.5q0 33 23 56.5t55 23.5t55.5 -23.5t23.5 -56.5z" />
    <glyph glyph-name="slash" unicode="/" horiz-adv-x="463" 
d="M108 -5h-81q-11 0 -15.5 8t0.5 18l326 653q3 5 7 8t9 3h82q11 0 15.5 -8.5t-0.5 -18.5l-326 -653q-3 -5 -7 -7.5t-10 -2.5z" />
    <glyph glyph-name="zero" unicode="0" 
d="M587 346q0 -170 -74 -264.5t-202 -94.5q-130 0 -203.5 94t-73.5 265q0 162 75 254.5t202 92.5q128 0 202 -92t74 -255zM172 346q0 -116 36.5 -178t102.5 -62t102 62t36 178q0 108 -37 167t-101 59q-65 0 -102 -59t-37 -167z" />
    <glyph glyph-name="one" unicode="1" 
d="M400 0h-99q-7 0 -12.5 5.5t-5.5 13.5v462q0 8 -5 13.5t-12 5.5q-2 0 -8 -2t-23 -10q-48 -22 -76.5 -30.5t-50.5 -8.5q-7 0 -12.5 5.5t-5.5 13.5v73q0 7 4 13t10 7q65 14 114 41t87 69q3 4 7.5 6.5t10.5 2.5h77q8 0 13.5 -5.5t5.5 -13.5v-642q0 -7 -5.5 -13t-13.5 -6z" />
    <glyph glyph-name="two" unicode="2" 
d="M542 0h-462q-7 0 -12.5 5.5t-5.5 13.5v54q0 12 2 18.5t7 11.5l210 188q82 73 109.5 111.5t27.5 71.5q0 42 -32 70t-81 28q-48 0 -76.5 -22t-40.5 -72q-2 -8 -7.5 -13.5t-12.5 -5.5h-94q-8 0 -13.5 6t-4.5 15q9 90 80 151.5t178 61.5q109 0 178 -59.5t69 -151.5
q0 -37 -11.5 -69t-35.5 -64q-13 -17 -31.5 -36t-70.5 -67l-116 -105q-7 -6 -5.5 -13t8.5 -7h243q8 0 13.5 -5.5t5.5 -13.5v-84q0 -7 -5.5 -12.5t-13.5 -5.5z" />
    <glyph glyph-name="three" unicode="3" 
d="M578 227q0 -107 -78.5 -173.5t-195.5 -66.5q-108 0 -180 56t-80 144q-1 7 4 12.5t13 5.5h100q7 0 13 -5t9 -14q13 -39 45.5 -60t79.5 -21q59 0 95.5 33t36.5 89q0 50 -37.5 79.5t-95.5 29.5h-54q-9 0 -14 5t-5 14v51q0 12 2.5 17.5t9.5 11.5l103 104q5 6 3 12t-10 6h-259
q-8 0 -13.5 5.5t-5.5 12.5v86q0 8 6 13.5t13 5.5h442q8 0 13.5 -5.5t5.5 -13.5v-72q0 -5 -2 -9.5t-5 -7.5l-131 -129q-6 -6 -5 -12t9 -7q84 -21 126 -70.5t42 -126.5z" />
    <glyph glyph-name="four" unicode="4" 
d="M476 0h-93q-7 0 -12.5 5.5t-5.5 13.5v109q0 8 -5.5 13.5t-12.5 5.5h-297q-7 0 -13 6t-6 13v73q0 12 2.5 21.5t8.5 17.5l284 387q6 8 11.5 11.5t11.5 3.5h127q8 0 13.5 -5.5t5.5 -13.5v-388q0 -8 4 -12.5t11 -4.5h54q8 0 13.5 -5.5t5.5 -12.5v-72q0 -7 -5.5 -13t-13.5 -6
h-54q-8 0 -11.5 -4t-3.5 -12v-112q0 -7 -5.5 -13t-13.5 -6zM176 256h175q7 0 11 4t4 11v245q0 8 -7.5 10t-13.5 -7l-178 -244q-5 -8 -2.5 -13.5t11.5 -5.5z" />
    <glyph glyph-name="five" unicode="5" 
d="M578 231q0 -104 -76.5 -174t-191.5 -70q-106 0 -178.5 55t-82.5 142q-1 8 5 14.5t14 6.5h97q8 0 13.5 -4.5t7.5 -12.5q11 -38 44.5 -60t81.5 -22q54 0 90.5 34.5t36.5 85.5q0 52 -35 85.5t-90 33.5q-34 0 -63 -11t-53 -33q-7 -6 -13 -8.5t-14 -1.5l-82 10q-12 2 -17.5 9
t-4.5 18l45 333q1 8 6.5 13.5t12.5 5.5h388q8 0 13.5 -5.5t5.5 -13.5v-86q0 -7 -5.5 -12.5t-13.5 -5.5h-282q-8 0 -13 -5t-6 -15l-14 -97q-1 -10 5.5 -13.5t15.5 0.5q25 15 55 22.5t63 7.5q101 0 168 -63.5t67 -162.5z" />
    <glyph glyph-name="six" unicode="6" 
d="M587 230q0 -104 -78 -173.5t-196 -69.5q-119 0 -196.5 67.5t-77.5 171.5q0 42 15 83t41 73l235 285q5 6 11.5 9.5t11.5 3.5h130q10 0 13 -9t-4 -18l-149 -171q-7 -7 -5 -14.5t11 -7.5q106 -10 172 -73.5t66 -156.5zM176 230q0 -52 40 -88t97 -36t96.5 36t39.5 88
q0 51 -39 85t-97 34t-97.5 -34t-39.5 -85z" />
    <glyph glyph-name="seven" unicode="7" 
d="M264 0h-119q-9 0 -13 8t1 18l267 515q4 8 1.5 12t-10.5 4h-317q-8 0 -13.5 5.5t-5.5 12.5v86q0 8 6 13.5t13 5.5h458q8 0 13.5 -5.5t5.5 -13.5v-70q0 -4 -1 -8.5t-2 -7.5l-265 -562q-3 -6 -8 -9.5t-11 -3.5z" />
    <glyph glyph-name="eight" unicode="8" 
d="M592 202q0 -98 -76.5 -156.5t-204.5 -58.5q-129 0 -205.5 58.5t-76.5 156.5q0 50 27 91t76 67q8 4 8.5 11t-7.5 13q-31 22 -48 53t-17 66q0 83 68 136.5t175 53.5t174.5 -53.5t67.5 -136.5q0 -35 -17 -66t-48 -53q-8 -6 -7.5 -13t8.5 -11q49 -26 76 -67t27 -91zM197 494
q0 -36 30.5 -57.5t83.5 -21.5q52 0 82.5 21.5t30.5 57.5q0 37 -30.5 59.5t-82.5 22.5q-53 0 -83.5 -22.5t-30.5 -59.5zM165 208q0 -46 40.5 -75t105.5 -29q64 0 104.5 29t40.5 75t-40.5 74.5t-104.5 28.5q-65 0 -105.5 -28.5t-40.5 -74.5z" />
    <glyph glyph-name="nine" unicode="9" 
d="M271 0h-130q-9 0 -12 8.5t4 17.5l155 180q7 7 4.5 15t-12.5 8q-111 7 -177 67t-66 155q0 106 76.5 174t196.5 68t196.5 -67t76.5 -173q0 -43 -16.5 -87.5t-45.5 -78.5l-230 -275q-5 -6 -10 -9t-10 -3zM174 454q0 -50 38.5 -83t97.5 -33t98 33t39 83q0 51 -39.5 85.5
t-97.5 34.5t-97 -34.5t-39 -85.5z" />
    <glyph glyph-name="colon" unicode=":" horiz-adv-x="221" 
d="M189 374q0 -32 -23.5 -55t-55.5 -23t-55 23t-23 55t23 55.5t55 23.5t55.5 -23.5t23.5 -55.5zM189 67q0 -31 -23.5 -54t-55.5 -23t-55 22.5t-23 54.5q0 33 23 56.5t55 23.5t55.5 -23.5t23.5 -56.5z" />
    <glyph glyph-name="semicolon" unicode=";" horiz-adv-x="221" 
d="M191 374q0 -32 -23 -55t-56 -23q-32 0 -54.5 23t-22.5 55q0 33 22.5 56t54.5 23q33 0 56 -23t23 -56zM111 -123h-67q-9 0 -14.5 6t-4.5 15l28 225q2 8 6.5 13t11.5 5h97q9 0 14.5 -7.5t3.5 -17.5l-55 -222q-2 -8 -7.5 -12.5t-12.5 -4.5z" />
    <glyph glyph-name="less" unicode="&#x3c;" 
d="M524 6l-446 194q-5 2 -7.5 6t-2.5 11v85q0 7 2.5 11t7.5 6l446 194q12 5 20.5 0.5t8.5 -17.5v-81q0 -6 -3 -10.5t-8 -6.5l-321 -130q-5 -2 -5 -7.5t5 -7.5l321 -132q5 -2 8 -6.5t3 -10.5v-81q0 -12 -8.5 -17t-20.5 0z" />
    <glyph glyph-name="equal" unicode="=" 
d="M534 308h-448q-7 0 -12.5 5.5t-5.5 13.5v78q0 8 5.5 13.5t12.5 5.5h448q8 0 13.5 -5.5t5.5 -13.5v-78q0 -7 -5.5 -13t-13.5 -6zM534 96h-448q-7 0 -12.5 5.5t-5.5 13.5v78q0 8 5.5 13.5t12.5 5.5h448q8 0 13.5 -5.5t5.5 -13.5v-78q0 -7 -5.5 -13t-13.5 -6z" />
    <glyph glyph-name="greater" unicode="&#x3e;" 
d="M97 513l446 -194q5 -2 7.5 -6t2.5 -11v-85q0 -7 -2.5 -11t-7.5 -6l-446 -194q-12 -5 -20.5 -0.5t-8.5 17.5v81q0 6 3 10.5t8 6.5l321 130q5 2 5 7.5t-5 7.5l-321 132q-5 2 -8 6.5t-3 10.5v81q0 12 8.5 17t20.5 0z" />
    <glyph glyph-name="question" unicode="?" horiz-adv-x="449" 
d="M265 207h-91q-7 0 -12.5 5.5t-5.5 13.5q0 39 17 75t69 94q39 44 51 66.5t12 44.5q0 29 -24 48.5t-58 19.5q-35 0 -58.5 -21.5t-23.5 -51.5v-13q0 -7 -5.5 -13t-13.5 -6h-93q-7 0 -12.5 5.5t-5.5 13.5v15q0 81 62 134t156 53q91 0 149 -49t58 -129q0 -40 -17.5 -78.5
t-71.5 -99.5q-40 -44 -51.5 -66t-11.5 -42q0 -7 -5.5 -13t-13.5 -6zM301 67q0 -31 -23.5 -54t-55.5 -23q-33 0 -55.5 22.5t-22.5 54.5q0 33 23 56.5t55 23.5t55.5 -23.5t23.5 -56.5z" />
    <glyph glyph-name="at" unicode="@" horiz-adv-x="890" 
d="M635 -100q-34 -17 -90 -28.5t-111 -11.5q-170 0 -284.5 109t-114.5 276q0 171 120.5 282.5t301.5 111.5q173 0 285 -104t112 -265q0 -101 -53.5 -164.5t-133.5 -63.5q-31 0 -53 11t-39 36q-4 6 -7.5 6t-9.5 -5q-32 -28 -61 -39.5t-64 -11.5q-87 0 -146 60t-59 150t59 151
t144 61q30 0 56.5 -9.5t50.5 -30.5q6 -4 10 -3t4 7v10q0 6 5 11t11 5h75q6 0 11 -5t5 -11v-266q0 -18 6.5 -26.5t19.5 -8.5q28 0 48 38t20 94q0 129 -82.5 208t-218.5 79q-138 0 -222 -83.5t-84 -220.5q0 -136 82.5 -219t215.5 -83q35 0 71 7t86 25q11 4 17 2.5t9 -9.5
l19 -46q3 -8 0.5 -14.5t-11.5 -11.5zM340 250q0 -47 30.5 -79t75.5 -32t75.5 32t30.5 79t-30.5 78.5t-75.5 31.5q-44 0 -75 -32t-31 -78z" />
    <glyph glyph-name="A" unicode="A" horiz-adv-x="688" 
d="M124 0h-106q-10 0 -14.5 7t-0.5 18l274 639q4 8 9 12t11 4h102q6 0 10.5 -4t8.5 -13l267 -639q4 -9 -0.5 -16.5t-13.5 -7.5h-113q-7 0 -12 4t-8 12l-49 120q-3 7 -8 10t-13 3h-256q-7 0 -11.5 -3t-7.5 -9l-50 -121q-3 -8 -8 -12t-11 -4zM256 255h173q6 0 8 4t0 10
l-85 211q-3 8 -9 8t-9 -8l-87 -211q-3 -6 -0.5 -10t9.5 -4z" />
    <glyph glyph-name="B" unicode="B" horiz-adv-x="662" 
d="M410 0h-327q-7 0 -12.5 5.5t-5.5 13.5v642q0 8 5.5 13.5t12.5 5.5h325q89 0 150 -55t61 -136q0 -40 -16.5 -74.5t-47.5 -59.5q-4 -4 -4 -8.5t4 -7.5q42 -23 64.5 -59.5t22.5 -80.5q0 -86 -65.5 -142.5t-166.5 -56.5zM222 400h171q37 0 61 24t24 60q0 37 -24.5 58.5
t-65.5 21.5h-166q-8 0 -12.5 -4.5t-4.5 -12.5v-131q0 -8 4.5 -12t12.5 -4zM222 117h181q41 0 69 26t28 63q0 35 -27 60t-68 25h-183q-8 0 -12.5 -4t-4.5 -12v-142q0 -8 4 -12t13 -4z" />
    <glyph glyph-name="C" unicode="C" horiz-adv-x="745" 
d="M722 185q-41 -90 -128.5 -144t-193.5 -54q-150 0 -253.5 101.5t-103.5 249.5t104.5 251.5t252.5 103.5q103 0 191 -54.5t130 -143.5q6 -13 1.5 -21.5t-18.5 -8.5h-108q-12 0 -19 3.5t-15 13.5q-30 38 -72 59.5t-90 21.5q-87 0 -147.5 -65t-60.5 -158t60.5 -158t147.5 -65
q47 0 90.5 22.5t74.5 61.5q8 9 15.5 12.5t19.5 3.5h106q14 0 18.5 -9t-2.5 -23z" />
    <glyph glyph-name="D" unicode="D" horiz-adv-x="752" 
d="M350 0h-267q-7 0 -12.5 5.5t-5.5 13.5v642q0 8 5.5 13.5t12.5 5.5h267q154 0 255.5 -96.5t101.5 -245.5q0 -148 -101 -243t-256 -95zM224 121h125q90 0 150.5 62.5t60.5 156.5t-60.5 156t-150.5 62h-125q-7 0 -12.5 -5.5t-5.5 -13.5v-399q0 -8 5.5 -13.5t12.5 -5.5z" />
    <glyph glyph-name="E" unicode="E" horiz-adv-x="610" 
d="M564 0h-481q-7 0 -12.5 5.5t-5.5 13.5v642q0 8 5.5 13.5t12.5 5.5h481q8 0 13.5 -5.5t5.5 -13.5v-85q0 -7 -5.5 -12.5t-13.5 -5.5h-340q-7 0 -12.5 -5.5t-5.5 -13.5v-117q0 -7 5.5 -12.5t12.5 -5.5h321q8 0 13.5 -5.5t5.5 -13.5v-84q0 -7 -5.5 -12.5t-13.5 -5.5h-321
q-7 0 -12.5 -5.5t-5.5 -13.5v-124q0 -8 5.5 -13.5t12.5 -5.5h340q8 0 13.5 -5.5t5.5 -13.5v-84q0 -7 -5.5 -12.5t-13.5 -5.5z" />
    <glyph glyph-name="F" unicode="F" horiz-adv-x="599" 
d="M187 0h-104q-7 0 -12.5 5.5t-5.5 13.5v642q0 8 5.5 13.5t12.5 5.5h482q8 0 13.5 -5.5t5.5 -13.5v-85q0 -7 -5.5 -12.5t-13.5 -5.5h-341q-7 0 -12.5 -5.5t-5.5 -13.5v-121q0 -8 5.5 -13.5t12.5 -5.5h311q8 0 13.5 -5.5t5.5 -13.5v-84q0 -7 -5.5 -12.5t-13.5 -5.5h-311
q-7 0 -12.5 -5.5t-5.5 -13.5v-241q0 -7 -5.5 -12.5t-13.5 -5.5z" />
    <glyph glyph-name="G" unicode="G" horiz-adv-x="800" 
d="M654 89q-51 -49 -116.5 -75.5t-137.5 -26.5q-150 0 -253.5 101.5t-103.5 249.5t104.5 251.5t252.5 103.5q104 0 192 -54.5t130 -144.5q6 -13 1 -21.5t-19 -8.5h-108q-11 0 -17.5 3t-15.5 14q-30 39 -73 61t-89 22q-88 0 -148.5 -65t-60.5 -159t60.5 -159t148.5 -65
q65 0 118.5 33.5t79.5 88.5q4 8 1 13.5t-12 5.5h-163q-8 0 -13.5 5.5t-5.5 12.5v74q0 8 6 13.5t13 5.5h312q13 0 19 -4.5t6 -14.5v-10q0 -70 -28 -135t-80 -115z" />
    <glyph glyph-name="H" unicode="H" horiz-adv-x="737" 
d="M187 0h-104q-7 0 -12.5 5.5t-5.5 13.5v642q0 8 5.5 13.5t12.5 5.5h104q8 0 13.5 -5.5t5.5 -13.5v-237q0 -8 5.5 -13.5t12.5 -5.5h288q8 0 13.5 6t5.5 13v237q0 8 5.5 13.5t12.5 5.5h104q8 0 13.5 -5.5t5.5 -13.5v-642q0 -7 -5.5 -13t-13.5 -6h-104q-7 0 -12.5 5.5
t-5.5 13.5v245q0 8 -5.5 13.5t-13.5 5.5h-288q-7 0 -12.5 -5.5t-5.5 -13.5v-245q0 -7 -5.5 -13t-13.5 -6z" />
    <glyph glyph-name="I" unicode="I" horiz-adv-x="271" 
d="M187 0h-104q-7 0 -12.5 5.5t-5.5 13.5v642q0 8 5.5 13.5t12.5 5.5h104q8 0 13.5 -5.5t5.5 -13.5v-642q0 -7 -5.5 -13t-13.5 -6z" />
    <glyph glyph-name="J" unicode="J" horiz-adv-x="642" 
d="M293 -13q-104 0 -178 56t-92 148q-2 12 2 18t14 6h104q10 0 15 -3t9 -12q19 -41 52.5 -63t78.5 -22q63 0 100.5 43.5t37.5 115.5v265q0 8 -5.5 13.5t-13.5 5.5h-213q-8 0 -13.5 5.5t-5.5 12.5v85q0 8 6 13.5t13 5.5h355q7 0 12.5 -5.5t5.5 -13.5v-384q0 -134 -77 -212
t-207 -78z" />
    <glyph glyph-name="K" unicode="K" horiz-adv-x="635" 
d="M628 -5q-78 0 -131.5 30t-105.5 100l-114 153q-6 9 -14.5 9.5t-15.5 -6.5l-30 -29q-6 -6 -8.5 -12.5t-2.5 -20.5v-200q0 -7 -5.5 -13t-13.5 -6h-104q-7 0 -12.5 5.5t-5.5 13.5v642q0 8 5.5 13.5t12.5 5.5h104q8 0 13.5 -5.5t5.5 -13.5v-221q0 -14 10.5 -17t19.5 6
l232 238q5 6 11 9.5t11 3.5h115q10 0 14.5 -10.5t-3.5 -19.5l-242 -245q-7 -8 -7.5 -14.5t4.5 -13.5l134 -177q39 -52 63.5 -68t61.5 -17q8 0 13 -6t5 -15v-81q0 -7 -6 -12.5t-14 -5.5z" />
    <glyph glyph-name="L" unicode="L" horiz-adv-x="546" 
d="M514 0h-431q-7 0 -12.5 5.5t-5.5 13.5v642q0 8 5.5 13.5t12.5 5.5h104q8 0 13.5 -5.5t5.5 -13.5v-521q0 -8 5.5 -13.5t12.5 -5.5h290q8 0 13.5 -5.5t5.5 -13.5v-84q0 -7 -5.5 -12.5t-13.5 -5.5z" />
    <glyph glyph-name="M" unicode="M" horiz-adv-x="1010" 
d="M127 0h-114q-10 0 -14 6t-1 16l203 642q2 7 7.5 11.5t11.5 4.5h102q6 0 11.5 -4.5t8.5 -11.5l158 -405q2 -6 7 -6.5t7 6.5l157 405q3 7 8.5 11.5t11.5 4.5h102q6 0 11.5 -4.5t7.5 -11.5l199 -642q3 -9 -1.5 -15.5t-13.5 -6.5h-121q-7 0 -11.5 3.5t-6.5 10.5l-129 417
q-1 6 -6.5 6t-7.5 -6l-152 -414q-3 -8 -8.5 -12.5t-13.5 -4.5h-71q-8 0 -13 4t-8 13l-157 414q-2 6 -6.5 6t-6.5 -6l-132 -417q-2 -7 -7 -10.5t-12 -3.5z" />
    <glyph glyph-name="N" unicode="N" horiz-adv-x="728" 
d="M179 0h-96q-7 0 -12.5 5.5t-5.5 13.5v642q0 8 5.5 13.5t12.5 5.5h96q6 0 11.5 -4t12.5 -13l319 -428q6 -8 11.5 -6.5t5.5 11.5l-6 421q0 8 6 13.5t13 5.5h96q8 0 13.5 -5.5t5.5 -13.5v-642q0 -7 -5.5 -13t-13.5 -6h-97q-6 0 -11 3t-10 9l-320 434q-5 8 -11 7t-6 -9
l5 -425q0 -8 -5.5 -13.5t-13.5 -5.5z" />
    <glyph glyph-name="O" unicode="O" horiz-adv-x="810" 
d="M766 338q0 -151 -103.5 -250.5t-258.5 -99.5t-258 99.5t-103 250.5t103.5 253t257.5 102t258 -102t104 -253zM192 340q0 -96 60.5 -159.5t152.5 -63.5q91 0 152 64t61 159t-61 159.5t-152 64.5t-152 -64.5t-61 -159.5z" />
    <glyph glyph-name="P" unicode="P" horiz-adv-x="664" 
d="M187 0h-104q-7 0 -12.5 5.5t-5.5 13.5v642q0 8 5.5 13.5t12.5 5.5h315q111 0 176.5 -61t65.5 -164q0 -100 -71 -164t-178 -64h-167q-9 0 -13.5 -5t-4.5 -14v-189q0 -7 -5.5 -13t-13.5 -6zM223 343h168q46 0 76.5 33t30.5 78q0 46 -29.5 76.5t-77.5 30.5h-168
q-9 0 -13 -4.5t-4 -13.5v-182q0 -9 4 -13.5t13 -4.5z" />
    <glyph glyph-name="Q" unicode="Q" horiz-adv-x="813" 
d="M553 -185q-96 1 -150.5 43t-54.5 117q0 11 -4 15.5t-16 7.5q-127 23 -205 116.5t-78 223.5q0 151 103.5 253t257.5 102t258 -102t104 -253q0 -126 -74.5 -218.5t-196.5 -118.5q-7 -1 -10.5 -6t-3.5 -13q0 -23 18 -35t52 -12q8 0 13.5 -6t5.5 -13v-82q0 -8 -5.5 -13.5
t-13.5 -5.5zM194 340q0 -95 60 -158t152 -63t153 63t61 158t-61 159.5t-153 64.5q-91 0 -151.5 -64.5t-60.5 -159.5z" />
    <glyph glyph-name="R" unicode="R" horiz-adv-x="676" 
d="M634 -5q-86 0 -135.5 29.5t-97.5 108.5l-51 85q-6 9 -12 12.5t-16 3.5h-98q-8 0 -13 -5t-5 -14v-196q0 -7 -5.5 -13t-13.5 -6h-104q-7 0 -12.5 5.5t-5.5 13.5v642q0 8 5.5 13.5t12.5 5.5h317q109 0 174.5 -60t65.5 -162q0 -68 -36.5 -118.5t-102.5 -76.5q-9 -3 -11.5 -9
t2.5 -14l27 -43q29 -44 55 -62t61 -20q8 0 13.5 -5.5t5.5 -13.5v-83q0 -7 -6 -12.5t-14 -5.5zM223 349h166q46 0 77 31t31 76q0 46 -29.5 75.5t-78.5 29.5h-166q-9 0 -13 -4.5t-4 -13.5v-176q0 -9 4 -13.5t13 -4.5z" />
    <glyph glyph-name="S" unicode="S" horiz-adv-x="598" 
d="M584 210q0 -101 -80 -162t-208 -61q-115 0 -191.5 57t-89.5 155q-1 9 3 13.5t15 4.5h99q10 0 15.5 -4t7.5 -12q13 -42 55 -69t97 -27q58 0 96.5 25.5t38.5 65.5q0 39 -34.5 60t-150.5 36q-130 17 -183.5 60.5t-53.5 123.5q0 95 76 156t196 61q110 0 182.5 -50.5
t87.5 -139.5q2 -11 -1.5 -16.5t-13.5 -5.5h-99q-10 0 -15.5 3.5t-8.5 13.5q-16 36 -52.5 56t-87.5 20q-52 0 -87.5 -23t-35.5 -56q0 -34 35.5 -53.5t128.5 -31.5q138 -18 198.5 -66t60.5 -134z" />
    <glyph glyph-name="T" unicode="T" horiz-adv-x="604" 
d="M354 0h-104q-7 0 -13 6t-6 13v520q0 8 -5.5 13.5t-12.5 5.5h-184q-8 0 -13.5 5.5t-5.5 12.5v85q0 8 6 13.5t13 5.5h546q8 0 13.5 -5.5t5.5 -13.5v-85q0 -7 -5.5 -12.5t-13.5 -5.5h-184q-7 0 -12.5 -5.5t-5.5 -13.5v-520q0 -7 -5.5 -13t-13.5 -6z" />
    <glyph glyph-name="U" unicode="U" horiz-adv-x="714" 
d="M356 -13q-135 0 -213 84t-78 230v360q0 8 5.5 13.5t12.5 5.5h104q8 0 13.5 -5.5t5.5 -13.5v-364q0 -82 41 -131t110 -49t110 49t41 131v364q0 8 5.5 13.5t12.5 5.5h104q8 0 13.5 -5.5t5.5 -13.5v-360q0 -146 -78.5 -230t-214.5 -84z" />
    <glyph glyph-name="V" unicode="V" horiz-adv-x="655" 
d="M375 0h-102q-7 0 -11.5 4t-7.5 13l-246 639q-3 9 1.5 16.5t13.5 7.5h109q6 0 11.5 -4t8.5 -12l166 -451q4 -10 10.5 -10t10.5 10l170 451q3 8 8 12t11 4h105q10 0 14.5 -7.5t0.5 -18.5l-253 -638q-3 -8 -8 -12t-12 -4z" />
    <glyph glyph-name="W" unicode="W" horiz-adv-x="1010" 
d="M882 680h114q10 0 14 -6t1 -16l-203 -642q-2 -7 -7.5 -11.5t-11.5 -4.5h-102q-6 0 -11.5 4.5t-8.5 11.5l-157 415q-2 6 -7 6.5t-7 -6.5l-158 -415q-3 -7 -8.5 -11.5t-11.5 -4.5h-102q-6 0 -11.5 4.5t-7.5 11.5l-199 642q-3 9 1.5 15.5t13.5 6.5h121q7 0 11.5 -3.5
t6.5 -10.5l127 -420q2 -6 7 -6t7 6l151 417q3 8 8.5 12.5t13.5 4.5h77q8 0 13 -4t8 -13l158 -420q2 -6 7 -6t6 6l128 423q2 7 7 10.5t12 3.5z" />
    <glyph glyph-name="X" unicode="X" horiz-adv-x="624" 
d="M607 -5q-74 0 -124 31t-110 114l-53 73q-7 10 -14.5 10t-14.5 -9l-143 -198q-6 -8 -13 -12t-15 -4h-109q-12 0 -15 7.5t4 16.5l218 301q6 9 6.5 16.5t-5.5 15.5l-211 297q-6 9 -2.5 17.5t14.5 8.5h112q7 0 13.5 -4t13.5 -13l138 -192q6 -9 15 -9t16 9l140 192
q6 9 12.5 13t13.5 4h108q10 0 14.5 -9t-1.5 -16l-216 -296q-6 -8 -6 -15.5t7 -16.5l77 -107q48 -65 73 -84.5t58 -20.5q8 0 13.5 -5.5t5.5 -13.5v-83q0 -7 -6 -12.5t-14 -5.5z" />
    <glyph glyph-name="Y" unicode="Y" horiz-adv-x="620" 
d="M359 0h-104q-7 0 -12.5 5.5t-5.5 13.5v213q0 14 -1.5 21t-4.5 12l-233 389q-5 9 -1.5 17.5t13.5 8.5h112q6 0 11 -3.5t10 -11.5l157 -257q4 -7 9.5 -7t9.5 7l160 257q4 7 9.5 11t11.5 4h106q10 0 14.5 -8t-1.5 -18l-234 -388q-4 -6 -5.5 -14t-1.5 -20v-213q0 -7 -5.5 -13
t-13.5 -6z" />
    <glyph glyph-name="Z" unicode="Z" horiz-adv-x="559" 
d="M525 0h-492q-8 0 -13.5 5.5t-5.5 12.5v76q0 7 1.5 12.5t4.5 9.5l327 423q6 8 3.5 13.5t-12.5 5.5h-296q-8 0 -13.5 5.5t-5.5 12.5v85q0 8 6 13.5t13 5.5h476q8 0 13.5 -5.5t5.5 -13.5v-70q0 -7 -1.5 -12t-5.5 -10l-333 -430q-5 -7 -3 -12.5t10 -5.5h321q8 0 13.5 -5.5
t5.5 -13.5v-84q0 -7 -5.5 -12.5t-13.5 -5.5z" />
    <glyph glyph-name="bracketleft" unicode="[" horiz-adv-x="335" 
d="M289 -184h-189q-7 0 -12.5 5.5t-5.5 13.5v884q0 8 5.5 13.5t12.5 5.5h189q8 0 13.5 -5.5t5.5 -12.5v-55q0 -7 -5.5 -13t-13.5 -6h-70q-7 0 -12.5 -5.5t-5.5 -13.5v-701q0 -8 5.5 -13.5t12.5 -5.5h70q8 0 13.5 -6t5.5 -13v-54q0 -7 -5.5 -12.5t-13.5 -5.5z" />
    <glyph glyph-name="backslash" unicode="\" horiz-adv-x="463" 
d="M436 -5h-82q-5 0 -9 2.5t-7 7.5l-326 653q-5 10 -0.5 18.5t15.5 8.5h81q5 0 9.5 -3t7.5 -8l326 -653q5 -10 0.5 -18t-15.5 -8z" />
    <glyph glyph-name="bracketright" unicode="]" horiz-adv-x="335" 
d="M235 -184h-189q-8 0 -13.5 5.5t-5.5 12.5v54q0 7 6 13t13 6h69q7 0 12.5 5.5t5.5 13.5v701q0 8 -5.5 13.5t-12.5 5.5h-69q-7 0 -13 6t-6 13v55q0 7 5.5 12.5t13.5 5.5h189q7 0 12.5 -5.5t5.5 -13.5v-884q0 -8 -5.5 -13.5t-12.5 -5.5z" />
    <glyph glyph-name="asciicircum" unicode="^" horiz-adv-x="297" 
d="M41 492h-41q-11 0 -15 9t2 19l88 144q4 7 10 11.5t12 4.5h102q6 0 11.5 -4.5t9.5 -11.5l88 -144q6 -10 2 -19t-15 -9h-41q-4 0 -7.5 1.5t-7.5 5.5l-83 100q-4 5 -8 5t-9 -5l-83 -100q-4 -4 -7.5 -5.5t-7.5 -1.5z" />
    <glyph glyph-name="underscore" unicode="_" horiz-adv-x="389" 
d="M389 -180h-390q-7 0 -12.5 5.5t-5.5 13.5v79q0 8 5.5 13.5t12.5 5.5h390q8 0 13.5 -6t5.5 -13v-79q0 -8 -5.5 -13.5t-13.5 -5.5z" />
    <glyph glyph-name="grave" unicode="`" horiz-adv-x="258" 
d="M170 550h-77q-7 0 -12.5 3.5t-11.5 11.5l-65 87q-7 9 -3 18.5t14 9.5h107q7 0 12 -4t9 -13l40 -92q3 -8 -0.5 -14.5t-12.5 -6.5z" />
    <glyph glyph-name="a" unicode="a" horiz-adv-x="630" 
d="M441 54q-39 -36 -77 -51.5t-84 -15.5q-103 0 -174.5 76.5t-71.5 187.5t72.5 187.5t175.5 76.5q36 0 67.5 -12t65.5 -39q7 -6 13 -5t6 10v15q0 8 5.5 13t12.5 5h94q8 0 13.5 -5.5t5.5 -13.5v-331q0 -18 6.5 -27t19.5 -10q7 -1 12 -5.5t5 -10.5v-87q0 -7 -5 -12t-12 -5
q-48 0 -79 14t-48 43q-5 8 -10.5 8.5t-12.5 -6.5zM171 251q0 -58 38.5 -99t93.5 -41t93 40.5t38 99.5t-38 99.5t-93 40.5t-93.5 -41t-38.5 -99z" />
    <glyph glyph-name="b" unicode="b" 
d="M587 251q0 -111 -71 -187.5t-175 -76.5q-36 0 -68 12.5t-68 41.5q-8 6 -13.5 3.5t-5.5 -12.5v-13q0 -8 -5.5 -13.5t-12.5 -5.5h-94q-7 0 -13 6t-6 13v642q0 8 6 13.5t13 5.5h99q7 0 12.5 -5.5t5.5 -13.5v-183q0 -10 6.5 -12t16.5 5q30 22 63 33t68 11q102 0 172 -76.5
t70 -187.5zM187 251q0 -58 38 -98.5t93 -40.5t94 40.5t39 98.5t-39 99t-94 41q-54 0 -92.5 -41t-38.5 -99z" />
    <glyph glyph-name="c" unicode="c" horiz-adv-x="570" 
d="M545 158q-24 -77 -91.5 -124t-155.5 -47q-112 0 -188 76t-76 188t76 188t188 76q86 0 150.5 -44.5t93.5 -124.5q4 -10 0.5 -16.5t-13.5 -6.5h-104q-8 0 -14.5 3.5t-13.5 13.5q-17 22 -43.5 35t-54.5 13q-54 0 -90.5 -39.5t-36.5 -97.5q0 -57 36.5 -97t90.5 -40
q31 0 58 13.5t45 37.5q7 9 13 12.5t14 3.5h95q14 0 19.5 -5.5t1.5 -17.5z" />
    <glyph glyph-name="d" unicode="d" horiz-adv-x="630" 
d="M441 54q-39 -36 -77 -51.5t-84 -15.5q-103 0 -174.5 76.5t-71.5 187.5t72.5 187.5t175.5 76.5q35 0 66.5 -11t59.5 -34q7 -6 14 -3.5t7 12.5v182q0 8 5.5 13.5t12.5 5.5h99q8 0 13.5 -5.5t5.5 -13.5v-509q0 -18 6.5 -27t19.5 -10q7 -1 12 -5.5t5 -10.5v-87q0 -7 -5 -12
t-12 -5q-48 0 -79 14t-48 43q-5 8 -10.5 8.5t-12.5 -6.5zM171 251q0 -58 38.5 -99t93.5 -41t93 40.5t38 99.5t-38 99.5t-93 40.5t-93.5 -41t-38.5 -99z" />
    <glyph glyph-name="e" unicode="e" horiz-adv-x="588" 
d="M534 134q-25 -66 -91.5 -106.5t-148.5 -40.5q-113 0 -186.5 74t-73.5 188t75 190t187 76q111 0 184.5 -76.5t73.5 -191.5q0 -17 -5.5 -25t-17.5 -8h-344q-6 0 -9 -3.5t-2 -9.5q5 -43 39.5 -71t82.5 -28q28 0 52.5 11t42.5 32q8 9 15.5 12.5t16.5 3.5h92q12 0 16.5 -7.5
t0.5 -19.5zM180 309q-2 -7 0 -10.5t8 -3.5h211q5 0 7.5 2.5t1.5 8.5q-8 41 -40 67.5t-74 26.5q-40 0 -72 -25.5t-42 -65.5z" />
    <glyph glyph-name="f" unicode="f" horiz-adv-x="320" 
d="M197 0h-99q-7 0 -12.5 5.5t-5.5 13.5v349q0 7 -5.5 12.5t-13.5 5.5h-34q-7 0 -13 6t-6 13v79q0 7 5.5 12.5t13.5 5.5h35q9 0 13.5 4.5t4.5 13.5v5q0 94 54.5 139.5t167.5 45.5h6q7 0 11.5 -5t4.5 -13v-83q0 -7 -4.5 -12t-11.5 -5q-48 0 -70 -16.5t-22 -50.5v-2
q0 -8 6.5 -14.5t15.5 -6.5h53q8 0 13.5 -5.5t5.5 -12.5v-79q0 -7 -5.5 -13t-13.5 -6h-56q-8 0 -13.5 -5.5t-5.5 -12.5v-349q0 -7 -5.5 -13t-13.5 -6z" />
    <glyph glyph-name="g" unicode="g" horiz-adv-x="617" 
d="M302 -200q-93 0 -159 42.5t-90 119.5q-3 9 2.5 15t17.5 6h96q9 0 15.5 -3.5t12.5 -12.5q16 -25 42.5 -37.5t61.5 -12.5q55 0 90 37t35 95v6q0 10 -6 12.5t-15 -3.5q-36 -23 -67.5 -33.5t-60.5 -10.5q-104 0 -173.5 69.5t-69.5 176.5q0 108 70.5 178.5t174.5 70.5
q39 0 71.5 -13t61.5 -39q7 -7 13 -5.5t6 10.5v16q0 8 5.5 13t12.5 5h94q8 0 13.5 -5.5t5.5 -13.5v-422q0 -113 -73.5 -187t-186.5 -74zM171 261q0 -55 37.5 -92t92.5 -37q56 0 93 36.5t37 92.5q0 57 -37.5 94.5t-92.5 37.5t-92.5 -38t-37.5 -94z" />
    <glyph glyph-name="h" unicode="h" horiz-adv-x="577" 
d="M172 0h-99q-7 0 -12.5 5.5t-5.5 13.5v642q0 8 5.5 13.5t12.5 5.5h99q8 0 13.5 -5.5t5.5 -13.5v-184q0 -10 6.5 -12.5t13.5 3.5q28 23 60 35t66 12q83 0 134.5 -54t51.5 -141v-301q0 -7 -5.5 -13t-13.5 -6h-99q-7 0 -12.5 5.5t-5.5 13.5v278q0 45 -27 72.5t-69 27.5
q-41 0 -70.5 -28.5t-29.5 -69.5v-280q0 -7 -5.5 -13t-13.5 -6z" />
    <glyph glyph-name="i" unicode="i" horiz-adv-x="246" 
d="M200 633q0 -31 -22.5 -53.5t-53.5 -22.5t-53.5 22.5t-22.5 53.5t22.5 53.5t53.5 22.5t53.5 -22.5t22.5 -53.5zM172 0h-99q-7 0 -12.5 5.5t-5.5 13.5v464q0 8 5.5 13.5t12.5 5.5h99q8 0 13.5 -5.5t5.5 -13.5v-464q0 -7 -5.5 -13t-13.5 -6z" />
    <glyph glyph-name="j" unicode="j" horiz-adv-x="246" 
d="M200 633q0 -31 -22.5 -53.5t-53.5 -22.5t-53.5 22.5t-22.5 53.5t22.5 53.5t53.5 22.5t53.5 -22.5t22.5 -53.5zM-20 -195h-4q-7 0 -12 6t-5 14v81q0 7 5.5 13t12.5 6q41 0 59.5 20.5t18.5 64.5v473q0 8 5.5 13.5t12.5 5.5h99q8 0 13.5 -5.5t5.5 -13.5v-474
q0 -106 -50.5 -155t-160.5 -49z" />
    <glyph glyph-name="k" unicode="k" horiz-adv-x="515" 
d="M497 -5q-80 0 -122 27t-95 115l-40 66q-5 8 -10.5 8.5t-13.5 -6.5l-25 -24q-3 -2 -4 -5.5t-1 -11.5v-145q0 -7 -5.5 -13t-13.5 -6h-96q-7 0 -12.5 5.5t-5.5 13.5v642q0 8 5.5 13.5t12.5 5.5h96q8 0 13.5 -5.5t5.5 -13.5v-320q0 -10 7 -11.5t14 6.5l147 153q6 6 12.5 9.5
t11.5 3.5h100q12 0 16.5 -11.5t-3.5 -19.5l-150 -152q-8 -8 -9 -16t5 -17l42 -68q38 -62 63.5 -83.5t54.5 -21.5q9 0 14.5 -5.5t5.5 -14.5v-79q0 -8 -6 -13.5t-14 -5.5z" />
    <glyph glyph-name="l" unicode="l" horiz-adv-x="266" 
d="M240 -5q-102 0 -143.5 39.5t-41.5 135.5v491q0 8 5.5 13.5t12.5 5.5h99q8 0 13.5 -5.5t5.5 -13.5v-494q0 -26 12.5 -39.5t36.5 -13.5q8 0 13.5 -5.5t5.5 -13.5v-82q0 -7 -5.5 -12.5t-13.5 -5.5z" />
    <glyph glyph-name="m" unicode="m" horiz-adv-x="881" 
d="M172 0h-99q-7 0 -12.5 5.5t-5.5 13.5v464q0 8 5.5 13.5t12.5 5.5h95q8 0 13.5 -5.5t5.5 -13.5v-16q0 -9 6.5 -10.5t14.5 6.5q30 27 59.5 39.5t64.5 12.5q44 0 78.5 -19t60.5 -57q4 -6 8 -6t9 6q28 37 68 56.5t89 19.5q80 0 130.5 -55.5t50.5 -143.5v-297q0 -7 -5.5 -13
t-13.5 -6h-99q-7 0 -12.5 5.5t-5.5 13.5v273q0 49 -23.5 77t-65.5 28q-40 0 -66.5 -30t-26.5 -72v-276q0 -7 -5.5 -13t-13.5 -6h-99q-7 0 -12.5 5.5t-5.5 13.5v273q0 49 -23.5 77t-64.5 28t-67 -29.5t-26 -73.5v-275q0 -7 -5.5 -13t-13.5 -6z" />
    <glyph glyph-name="n" unicode="n" horiz-adv-x="578" 
d="M172 0h-99q-7 0 -12.5 5.5t-5.5 13.5v464q0 8 5.5 13.5t12.5 5.5h95q8 0 13.5 -5.5t5.5 -13.5v-10q0 -11 6.5 -13.5t15.5 5.5q37 27 68 38.5t62 11.5q81 0 132.5 -56t51.5 -143v-297q0 -7 -5.5 -13t-13.5 -6h-99q-7 0 -12.5 5.5t-5.5 13.5v273q0 47 -26.5 76t-69.5 29
q-42 0 -71 -30.5t-29 -72.5v-275q0 -7 -5.5 -13t-13.5 -6z" />
    <glyph glyph-name="o" unicode="o" horiz-adv-x="605" 
d="M570 251q0 -112 -76.5 -188t-191.5 -76q-114 0 -191 76t-77 188t76.5 188t191.5 76t191.5 -75.5t76.5 -188.5zM170 251q0 -58 39 -99t93 -41q55 0 93.5 41t38.5 99t-38.5 99t-93.5 41q-54 0 -93 -41t-39 -99z" />
    <glyph glyph-name="p" unicode="p" horiz-adv-x="620" 
d="M173 -190h-99q-7 0 -13 5.5t-6 13.5v654q0 8 6 13.5t13 5.5h94q7 0 12.5 -5.5t5.5 -13.5v-13q0 -10 6.5 -12t14.5 5q29 25 65 38.5t74 13.5q101 0 171 -76.5t70 -187.5q0 -110 -70.5 -187t-171.5 -77q-35 0 -70 13t-64 36q-8 7 -14 4t-6 -14v-197q0 -8 -5.5 -13.5
t-12.5 -5.5zM187 251q0 -59 38 -99.5t93 -40.5t94 41t39 99q0 59 -39 99.5t-94 40.5t-93 -40.5t-38 -99.5z" />
    <glyph glyph-name="q" unicode="q" horiz-adv-x="618" 
d="M544 -190h-99q-7 0 -12.5 5.5t-5.5 13.5v198q0 11 -6 13t-14 -4q-28 -23 -62.5 -36t-68.5 -13q-101 0 -172.5 77t-71.5 187t72 187t174 77q37 0 71.5 -13.5t64.5 -39.5q6 -5 11.5 -3t5.5 9v15q0 8 5.5 13.5t12.5 5.5h95q8 0 13.5 -5.5t5.5 -13.5v-654q0 -8 -5.5 -13.5
t-13.5 -5.5zM168 251q0 -58 39 -99t93 -41q55 0 93.5 41t38.5 99q0 59 -38.5 99.5t-93.5 40.5q-54 0 -93 -41t-39 -99z" />
    <glyph glyph-name="r" unicode="r" horiz-adv-x="371" 
d="M172 0h-99q-7 0 -12.5 5.5t-5.5 13.5v464q0 8 5.5 13.5t12.5 5.5h95q8 0 13.5 -5.5t5.5 -13.5v-20q0 -10 7 -11.5t17 7.5q30 27 62 40t68 13q9 0 14.5 -5t5.5 -14v-97q0 -8 -5.5 -13.5t-12.5 -5.5q-81 0 -116.5 -33t-35.5 -106v-219q0 -7 -5.5 -13t-13.5 -6z" />
    <glyph glyph-name="s" unicode="s" horiz-adv-x="503" 
d="M480 162q0 -78 -63.5 -126.5t-162.5 -48.5q-95 0 -156 40t-69 106q-2 14 2.5 18.5t15.5 4.5h91q10 0 16 -3.5t12 -13.5q16 -29 38.5 -41t55.5 -12q38 0 62.5 16.5t24.5 40.5q0 21 -20.5 32.5t-91.5 22.5q-57 9 -84.5 16.5t-47.5 18.5q-34 18 -50 46t-16 67
q0 78 58.5 123.5t159.5 45.5q84 0 137 -36t69 -103q3 -13 -2 -18.5t-17 -5.5h-83q-10 0 -16 3.5t-11 12.5q-13 25 -32.5 36.5t-48.5 11.5q-35 0 -56.5 -15t-21.5 -38q0 -20 20 -31.5t90 -22.5q57 -8 84.5 -16t47.5 -18q33 -18 49 -46t16 -67z" />
    <glyph glyph-name="t" unicode="t" horiz-adv-x="334" 
d="M304 -5h-5q-111 0 -165 50.5t-54 153.5v169q0 8 -5 13t-13 5h-35q-8 0 -13.5 5.5t-5.5 12.5v79q0 8 6 13.5t13 5.5h35q8 0 13 5.5t5 12.5v86q0 8 5.5 13.5t12.5 5.5h99q8 0 13.5 -5.5t5.5 -13.5v-86q0 -7 5.5 -12.5t13.5 -5.5h65q8 0 13.5 -5.5t5.5 -13.5v-79
q0 -7 -5.5 -12.5t-13.5 -5.5h-65q-7 0 -13 -5.5t-6 -13.5v-167q0 -42 22.5 -64t65.5 -22q7 0 12 -4.5t5 -11.5v-85q0 -8 -5 -13t-12 -5z" />
    <glyph glyph-name="u" unicode="u" horiz-adv-x="592" 
d="M395 54q-28 -33 -65 -50t-82 -17q-86 0 -139.5 55t-53.5 143v298q0 8 6 13.5t13 5.5h99q7 0 12.5 -5.5t5.5 -13.5v-274q0 -46 26.5 -74.5t68.5 -28.5t73.5 30.5t31.5 72.5v274q0 8 5.5 13.5t12.5 5.5h99q8 0 13.5 -5.5t5.5 -13.5v-331q0 -19 6 -27.5t20 -9.5
q7 -1 12 -5.5t5 -10.5v-87q0 -7 -5 -12t-12 -5q-49 0 -82 14t-52 43q-6 9 -11.5 9.5t-12.5 -7.5z" />
    <glyph glyph-name="v" unicode="v" horiz-adv-x="516" 
d="M298 0h-94q-6 0 -10.5 3.5t-7.5 11.5l-186 460q-4 11 1 19t15 8h99q6 0 11 -4.5t9 -13.5l110 -280q4 -10 11 -9.5t11 9.5l115 282q4 9 8.5 12.5t11.5 3.5h97q10 0 14.5 -7.5t0.5 -16.5l-198 -462q-3 -9 -7.5 -12.5t-10.5 -3.5z" />
    <glyph glyph-name="w" unicode="w" horiz-adv-x="765" 
d="M252 0h-84q-6 0 -11 4t-7 11l-148 461q-4 11 1.5 18.5t15.5 7.5h100q7 0 13 -5t8 -13l81 -275q2 -8 8 -8t9 8l99 275q4 10 8.5 14t12.5 4h54q9 0 13.5 -4t7.5 -14l95 -279q2 -7 6.5 -6.5t6.5 6.5l88 279q3 10 7.5 14t12.5 4h97q10 0 15.5 -7.5t2.5 -16.5l-156 -462
q-2 -8 -7 -12t-12 -4h-85q-6 0 -11 4t-7 12l-98 277q-2 7 -7.5 6.5t-7.5 -7.5l-102 -276q-3 -8 -7.5 -12t-11.5 -4z" />
    <glyph glyph-name="x" unicode="x" horiz-adv-x="518" 
d="M116 0h-100q-11 0 -14.5 9.5t4.5 19.5l161 207q8 10 8 16.5t-8 16.5l-159 204q-7 9 -3.5 19t14.5 10h106q5 0 9.5 -3t10.5 -9l102 -127q6 -8 12 -8t12 7l102 128q4 6 9 9t10 3h101q11 0 15 -9.5t-3 -18.5l-160 -206q-7 -8 -7 -15t7 -15l167 -210q7 -9 3.5 -18.5
t-14.5 -9.5h-108q-7 0 -12.5 2.5t-8.5 7.5l-107 133q-7 8 -11.5 8t-10.5 -7l-106 -134q-3 -4 -9 -7t-12 -3z" />
    <glyph glyph-name="y" unicode="y" horiz-adv-x="530" 
d="M48 -195q-7 0 -13 5.5t-6 13.5v81q0 7 5.5 12.5t13.5 5.5q53 0 93.5 26.5t50.5 69.5q3 10 2 19t-6 21l-184 416q-4 11 1 19t15 8h99q6 0 11 -4.5t9 -13.5l115 -266q7 -16 15 -15.5t15 16.5l110 267q3 9 7.5 12.5t11.5 3.5h95q10 0 15.5 -7.5t1.5 -16.5l-189 -449
q-53 -125 -117 -174.5t-171 -49.5z" />
    <glyph glyph-name="z" unicode="z" horiz-adv-x="463" 
d="M425 0h-389q-8 0 -13.5 5.5t-5.5 12.5v81q0 5 1.5 10t5.5 9l226 248q6 6 4 13t-10 7h-201q-8 0 -13.5 5.5t-5.5 12.5v79q0 8 6 13.5t13 5.5h376q8 0 13.5 -5.5t5.5 -13.5v-79q0 -5 -1.5 -9t-4.5 -8l-233 -255q-4 -5 -3 -9.5t7 -4.5h222q8 0 13.5 -5.5t5.5 -13.5v-81
q0 -7 -5.5 -12.5t-13.5 -5.5z" />
    <glyph glyph-name="braceleft" unicode="{" horiz-adv-x="335" 
d="M290 -184h-17q-85 0 -125 37t-40 114v169q0 50 -13.5 73t-42.5 23h-4q-7 0 -13 6t-6 13v72q0 7 5.5 12.5t13.5 5.5h4q29 0 42.5 23t13.5 73v149q0 78 40 115t125 37h17q8 0 13.5 -5.5t5.5 -13.5v-55q0 -7 -5.5 -12.5t-13.5 -5.5h-6q-29 0 -41.5 -16t-12.5 -51v-147
q0 -54 -15 -87t-53 -57q37 -24 52.5 -58.5t15.5 -88.5v-155q0 -43 12.5 -61t40.5 -18h7q8 0 13.5 -6t5.5 -13v-54q0 -7 -5.5 -12.5t-13.5 -5.5z" />
    <glyph glyph-name="bar" unicode="|" horiz-adv-x="230" 
d="M147 -180h-66q-7 0 -12.5 5.5t-5.5 13.5v822q0 8 5.5 13.5t12.5 5.5h66q8 0 13.5 -5.5t5.5 -13.5v-822q0 -8 -5.5 -13.5t-13.5 -5.5z" />
    <glyph glyph-name="braceright" unicode="}" horiz-adv-x="335" 
d="M61 -184h-17q-8 0 -13.5 5.5t-5.5 12.5v54q0 7 6 13t13 6h8q28 0 40.5 18t12.5 61v155q0 54 15.5 88.5t52.5 58.5q-38 24 -53 57t-15 87v147q0 35 -13 51t-42 16h-6q-8 0 -13.5 5.5t-5.5 12.5v55q0 8 6 13.5t13 5.5h17q85 0 125 -37t40 -115v-149q0 -50 13.5 -73
t43.5 -23h3q8 0 13.5 -5.5t5.5 -12.5v-72q0 -7 -5.5 -13t-13.5 -6h-3q-30 0 -43.5 -23t-13.5 -73v-169q0 -77 -40 -114t-125 -37z" />
    <glyph glyph-name="asciitilde" unicode="~" 
d="M555 315q-10 -59 -51.5 -99.5t-91.5 -40.5q-22 0 -48.5 7.5t-78.5 31.5q-37 18 -53 23t-27 5q-18 0 -31.5 -9.5t-20.5 -27.5q-5 -14 -9.5 -17.5t-13.5 -3.5h-44q-10 0 -14 6t-3 17q9 57 50 96t92 39q20 0 44 -7t71 -28q39 -18 56.5 -23.5t31.5 -5.5q19 0 32.5 9.5
t20.5 28.5q6 15 10.5 18t12.5 3h47q10 0 14.5 -6t3.5 -16z" />
    <glyph glyph-name="uni00A0" unicode="&#xa0;" horiz-adv-x="200" 
 />
    <glyph glyph-name="exclamdown" unicode="&#xa1;" horiz-adv-x="256" 
d="M50 435q0 32 23 54.5t56 22.5q32 0 54.5 -22.5t22.5 -54.5q0 -33 -22.5 -56.5t-54.5 -23.5q-33 0 -56 23.5t-23 56.5zM94 295h69q7 0 12 -5t6 -13l19 -435q0 -8 -5.5 -14t-12.5 -6h-107q-8 0 -13.5 6t-4.5 14l18 435q1 8 6.5 13t12.5 5z" />
    <glyph glyph-name="cent" unicode="&#xa2;" 
d="M337 -10h-45q-7 0 -12.5 5.5t-5.5 13.5v57q0 12 -3.5 17t-14.5 7q-92 20 -150 90.5t-58 163.5q0 90 57 160t147 93q14 3 18 8t4 15v51q0 8 5.5 13.5t12.5 5.5h45q8 0 13.5 -5.5t5.5 -13.5v-50q0 -10 4 -15t16 -7q67 -13 116 -54.5t72 -104.5q4 -11 0.5 -17t-13.5 -6h-98
q-10 0 -16 3.5t-12 12.5q-9 14 -23.5 25t-29.5 16q-7 3 -11.5 0t-4.5 -11v-237q0 -10 4.5 -13.5t12.5 -0.5q16 6 31.5 18.5t25.5 27.5q5 8 11.5 12t15.5 4h89q15 0 20 -5.5t1 -17.5q-20 -61 -71 -104.5t-119 -56.5q-13 -2 -17 -7t-4 -17v-57q0 -7 -5.5 -13t-13.5 -6z
M185 344q0 -41 18.5 -75t49.5 -51q10 -5 15.5 -3t5.5 12v227q0 11 -5 15t-14 -1q-32 -16 -51 -49.5t-19 -74.5z" />
    <glyph glyph-name="sterling" unicode="&#xa3;" 
d="M549 0h-473q-7 0 -12.5 5.5t-5.5 13.5v74q0 9 3.5 14.5t10.5 6.5q43 10 61.5 38.5t18.5 81.5v33q0 8 -5.5 13.5t-13.5 5.5h-58q-7 0 -12.5 5.5t-5.5 12.5v78q0 8 5.5 13.5t12.5 5.5h58q8 0 13.5 6t5.5 13v54q0 103 58 159.5t165 56.5q48 0 89 -12t83 -40q11 -8 13 -17
t-5 -20l-38 -66q-4 -7 -11.5 -8t-18.5 5q-34 20 -57.5 26.5t-50.5 6.5q-46 0 -69 -27t-23 -81v-37q0 -9 5 -14t14 -5h186q8 0 13.5 -5.5t5.5 -13.5v-78q0 -7 -5.5 -12.5t-13.5 -5.5h-187q-9 0 -13.5 -4t-4.5 -12v-38q0 -26 -8 -49t-23 -42q-7 -8 -4.5 -14.5t12.5 -6.5h285
q8 0 13.5 -5.5t5.5 -13.5v-83q0 -7 -5.5 -12.5t-13.5 -5.5z" />
    <glyph glyph-name="currency" unicode="&#xa4;" 
d="M191 160l-18 -19q-6 -5 -14.5 -5t-15.5 5l-39 40q-6 7 -6 15.5t5 14.5l22 22q7 7 8 13.5t-3 15.5q-8 19 -12.5 39.5t-4.5 41.5t4.5 42t13.5 41q6 13 5.5 20t-6.5 13l-26 26q-6 6 -6 15t6 16l39 40q7 5 15.5 5t15.5 -6l28 -28q5 -5 11 -6.5t17 2.5q18 8 38.5 12.5
t41.5 4.5q19 0 38 -4t38 -12q14 -6 20 -5t11 6l30 30q7 6 15.5 6t15.5 -6l40 -39q5 -7 5 -15.5t-6 -15.5l-27 -26q-7 -6 -7.5 -13.5t6.5 -22.5q8 -19 12.5 -39t4.5 -41q0 -19 -4 -39t-12 -39q-5 -10 -3.5 -17t8.5 -14l23 -23q5 -6 5 -14.5t-5 -15.5l-40 -39q-7 -6 -15.5 -6
t-14.5 5l-23 23q-6 6 -12.5 7t-18.5 -5q-18 -9 -40 -14t-44 -5q-20 0 -40.5 4.5t-43.5 13.5q-12 5 -20 4t-15 -9zM206 342q0 -43 31 -74t74 -31t73.5 31t30.5 74t-30.5 73.5t-73.5 30.5t-74 -30.5t-31 -73.5z" />
    <glyph glyph-name="yen" unicode="&#xa5;" 
d="M380 88v-69q0 -7 -5.5 -13t-13.5 -6h-104q-7 0 -12.5 5.5t-5.5 13.5v69q0 11 -4.5 15.5t-15.5 4.5h-133q-7 0 -12.5 5.5t-5.5 13.5v55q0 8 5.5 13.5t12.5 5.5h133q11 0 15.5 5t4.5 15v23q0 11 -4.5 15.5t-15.5 4.5h-133q-7 0 -12.5 5.5t-5.5 13.5v60q0 8 5.5 13.5
t12.5 5.5h84q7 0 9.5 4.5t-1.5 11.5l-156 276q-5 9 -1.5 17.5t13.5 8.5h109q6 0 10.5 -3t10.5 -12l140 -253q3 -6 7.5 -6t7.5 6l143 253q4 7 10 11t12 4h102q11 0 15 -8t-2 -18l-159 -276q-4 -7 -1.5 -11.5t9.5 -4.5h86q8 0 13.5 -5.5t5.5 -13.5v-60q0 -7 -5.5 -13t-13.5 -6
h-134q-10 0 -15 -4.5t-5 -15.5v-23q0 -10 5 -15t15 -5h134q8 0 13.5 -5.5t5.5 -13.5v-55q0 -7 -5.5 -13t-13.5 -6h-134q-10 0 -15 -4.5t-5 -15.5z" />
    <glyph glyph-name="brokenbar" unicode="&#xa6;" horiz-adv-x="230" 
d="M147 326h-66q-7 0 -12.5 5.5t-5.5 13.5v316q0 8 5.5 13.5t12.5 5.5h66q8 0 13.5 -5.5t5.5 -13.5v-316q0 -7 -5.5 -13t-13.5 -6zM147 -180h-66q-7 0 -12.5 5.5t-5.5 13.5v322q0 8 5.5 13.5t12.5 5.5h66q8 0 13.5 -5.5t5.5 -13.5v-322q0 -8 -5.5 -13.5t-13.5 -5.5z" />
    <glyph glyph-name="section" unicode="&#xa7;" 
d="M554 150q0 -75 -66 -117.5t-182 -42.5q-100 0 -164.5 36.5t-77.5 102.5q-3 15 3 21.5t22 6.5h79q13 0 21 -4t14 -16q11 -22 39.5 -33t73.5 -11q51 0 77.5 11.5t26.5 33.5q0 19 -21.5 30.5t-71.5 19.5l-124 20q-77 11 -118 43.5t-41 83.5q0 31 14 56t43 45q6 4 6 7.5
t-6 8.5q-17 14 -25.5 34.5t-8.5 44.5q0 74 65 116.5t179 42.5q99 0 157.5 -35.5t70.5 -103.5q2 -13 -3.5 -19t-19.5 -6h-79q-9 0 -15.5 3t-13.5 14q-13 21 -41.5 32.5t-69.5 11.5q-46 0 -69.5 -11.5t-23.5 -32.5q0 -17 19 -28.5t56 -16.5l130 -23q86 -12 127 -43.5t41 -82.5
q0 -32 -15 -57.5t-44 -44.5q-6 -4 -6 -7.5t6 -8.5q18 -16 27 -36t9 -45zM243 313l143 -26q13 -2 23 -0.5t17 6.5q8 7 12 15t4 17q0 17 -15 29.5t-43 17.5l-143 27q-17 3 -28 1.5t-19 -8.5q-8 -6 -12 -14.5t-4 -17.5q0 -17 16.5 -29t48.5 -18z" />
    <glyph glyph-name="dieresis" unicode="&#xa8;" horiz-adv-x="258" 
d="M116 617q0 -24 -17.5 -42t-41.5 -18q-25 0 -43 18t-18 42t18 41.5t43 17.5q24 0 41.5 -17.5t17.5 -41.5zM261 617q0 -24 -17.5 -42t-41.5 -18t-42 18t-18 42q0 25 17.5 42t42.5 17t42 -17t17 -42z" />
    <glyph glyph-name="copyright" unicode="&#xa9;" horiz-adv-x="802" 
d="M756 340q0 -145 -104 -247.5t-251 -102.5t-251 102.5t-104 247.5t104 247.5t251 102.5t251 -102.5t104 -247.5zM126 340q0 -114 80 -193.5t195 -79.5q114 0 194 79.5t80 193.5q0 113 -80 192.5t-194 79.5q-115 0 -195 -79.5t-80 -192.5zM587 255q-22 -52 -72 -83
t-112 -31q-84 0 -142 57t-58 141q0 83 58.5 140.5t141.5 57.5q62 0 110.5 -30.5t70.5 -83.5q4 -8 1 -12.5t-13 -4.5h-62q-8 0 -12.5 2t-9.5 8q-15 19 -36.5 29.5t-47.5 10.5q-46 0 -77 -33.5t-31 -83.5t31 -84t77 -34q26 0 49 11.5t38 32.5q3 4 8 6t12 2h65q9 0 12 -5
t-1 -13z" />
    <glyph glyph-name="ordfeminine" unicode="&#xaa;" horiz-adv-x="429" 
d="M304 386q-24 -21 -49 -30.5t-55 -9.5q-67 0 -114 49t-47 121t47.5 121t114.5 49q25 0 45.5 -7t39.5 -22q3 -2 5.5 -1.5t2.5 3.5v5q0 6 5 11t11 5h59q7 0 12.5 -5t5.5 -12v-210q0 -11 2.5 -16t9.5 -5q6 -1 10 -4.5t4 -9.5v-55q0 -6 -4 -10t-11 -4q-32 0 -52 9t-32 28
q-1 3 -4 3t-6 -3zM135 516q0 -35 23 -59.5t57 -24.5q33 0 56 24t23 60q0 35 -23 59t-56 24q-34 0 -57 -24t-23 -59zM373 209h-302q-7 0 -12.5 5.5t-5.5 12.5v48q0 8 5.5 13.5t12.5 5.5h302q8 0 13.5 -5.5t5.5 -13.5v-48q0 -7 -5.5 -12.5t-13.5 -5.5z" />
    <glyph glyph-name="guillemotleft" unicode="&#xab;" horiz-adv-x="517" 
d="M254 77h-75q-8 0 -15 3.5t-12 9.5l-115 148q-8 11 -8 20.5t8 19.5l115 146q5 6 12 9.5t15 3.5h75q11 0 15.5 -8.5t-3.5 -18.5l-110 -142q-3 -4 -3 -9t3 -9l110 -146q8 -10 3.5 -18.5t-15.5 -8.5zM473 77h-75q-8 0 -15 3.5t-12 9.5l-115 148q-8 11 -8 20.5t8 19.5l115 146
q5 6 12 9.5t15 3.5h75q11 0 15.5 -8.5t-3.5 -18.5l-110 -142q-3 -4 -3 -9t3 -9l110 -146q8 -10 3.5 -18.5t-15.5 -8.5z" />
    <glyph glyph-name="logicalnot" unicode="&#xac;" 
d="M535 100h-79q-8 0 -13.5 5.5t-5.5 12.5v165q0 8 -5.5 13.5t-12.5 5.5h-333q-7 0 -12.5 5.5t-5.5 13.5v78q0 8 5.5 13.5t12.5 5.5h448q8 0 13.5 -5.5t5.5 -13.5v-281q0 -7 -5 -12.5t-13 -5.5z" />
    <glyph glyph-name="uni00AD" unicode="&#xad;" horiz-adv-x="0" 
 />
    <glyph glyph-name="registered" unicode="&#xae;" horiz-adv-x="288" 
d="M248 585q0 -43 -30.5 -73.5t-73.5 -30.5t-73.5 30.5t-30.5 73.5q0 44 30.5 74.5t73.5 30.5t73.5 -31t30.5 -74zM63 585q0 -34 23.5 -58t57.5 -24q33 0 57 24t24 58t-24 58t-57 24q-34 0 -57.5 -24t-23.5 -58zM127 528h-15q-2 0 -4 1.5t-2 3.5v103q0 2 2 4t4 2h40
q16 0 26 -10t10 -26q0 -10 -5 -18t-14 -13l21 -39q2 -3 0.5 -5.5t-5.5 -2.5h-17q-3 0 -4 1t-2 4l-16 33l-3 3t-2 1h-5q-2 0 -2.5 -1t-0.5 -3v-33q0 -2 -2 -3.5t-4 -1.5zM136 592h12q6 0 9.5 3.5t3.5 9.5t-3.5 10t-9.5 4h-12q-1 0 -2 -1.5t-1 -3.5v-19q0 -1 1 -2t2 -1z" />
    <glyph glyph-name="macron" unicode="&#xaf;" horiz-adv-x="258" 
d="M239 566h-221q-7 0 -12.5 5.5t-5.5 12.5v50q0 8 5.5 13.5t12.5 5.5h221q8 0 13.5 -5.5t5.5 -13.5v-50q0 -7 -5.5 -12.5t-13.5 -5.5z" />
    <glyph glyph-name="degree" unicode="&#xb0;" horiz-adv-x="332" 
d="M296 548q0 -55 -37.5 -92t-93.5 -37q-55 0 -92.5 37t-37.5 92t38 93.5t92 38.5q55 0 93 -38.5t38 -93.5zM110 548q0 -22 16.5 -38.5t38.5 -16.5q23 0 40 16.5t17 38.5t-17 39t-40 17q-22 0 -38.5 -16.5t-16.5 -39.5z" />
    <glyph glyph-name="plusminus" unicode="&#xb1;" 
d="M350 141h-79q-8 0 -13.5 5.5t-5.5 12.5v134q0 8 -5.5 13.5t-12.5 5.5h-148q-7 0 -12.5 5.5t-5.5 12.5v79q0 8 5.5 13.5t12.5 5.5h148q7 0 12.5 5.5t5.5 13.5v162q0 8 6 13.5t13 5.5h79q7 0 12.5 -5.5t5.5 -13.5v-162q0 -7 6 -13t13 -6h147q8 0 13.5 -5.5t5.5 -13.5v-79
q0 -7 -5.5 -12.5t-13.5 -5.5h-147q-7 0 -13 -5.5t-6 -13.5v-134q0 -7 -5 -12.5t-13 -5.5zM534 0h-448q-7 0 -12.5 5.5t-5.5 12.5v79q0 8 5.5 13.5t12.5 5.5h448q8 0 13.5 -5.5t5.5 -13.5v-79q0 -7 -5.5 -12.5t-13.5 -5.5z" />
    <glyph glyph-name="twosuperior" unicode="&#xb2;" horiz-adv-x="400" 
d="M342 411h-286q-7 0 -13 6t-6 13v36q0 8 2 12.5t7 8.5l131 115q48 43 63 64t15 40q0 21 -16 34.5t-42 13.5t-41.5 -11.5t-20.5 -35.5q-2 -9 -8 -13.5t-14 -4.5h-57q-9 0 -15 6t-5 16q0 52 48 93t118 41q72 0 116 -37t44 -97q0 -33 -16.5 -63t-77.5 -86l-67 -61h141
q8 0 14 -6t6 -13v-52q0 -7 -6 -13t-14 -6z" />
    <glyph glyph-name="threesuperior" unicode="&#xb3;" horiz-adv-x="400" 
d="M373 556q0 -68 -50.5 -109.5t-126.5 -41.5q-70 0 -117 35.5t-50 90.5q-1 8 4.5 14t13.5 6h64q8 0 12.5 -3.5t8.5 -11.5q7 -21 24.5 -32t42.5 -11q31 0 50.5 17t19.5 46q0 27 -19.5 42.5t-51.5 15.5h-36q-8 0 -13.5 4.5t-5.5 11.5v34q0 8 3 14t10 12l59 58h-153
q-8 0 -14 5.5t-6 12.5v53q0 8 6 14t14 6h270q8 0 14 -6t6 -14v-44q0 -5 -1.5 -9t-5.5 -7l-77 -77q53 -15 79 -46.5t26 -79.5z" />
    <glyph glyph-name="acute" unicode="&#xb4;" horiz-adv-x="258" 
d="M168 550h-76q-9 0 -12.5 6.5t-0.5 14.5l40 92q4 9 9 13t12 4h107q10 0 14 -9t-3 -19l-66 -87q-6 -9 -11.5 -12t-12.5 -3z" />
    <glyph glyph-name="mu" unicode="&#xb5;" horiz-adv-x="582" 
d="M172 -190h-99q-7 0 -12.5 5.5t-5.5 13.5v654q0 8 6 13.5t13 5.5h99q7 0 12.5 -5.5t5.5 -13.5v-274q0 -46 26.5 -75t68.5 -29t73.5 31t31.5 73v274q0 8 5.5 13.5t12.5 5.5h99q8 0 13.5 -5.5t5.5 -13.5v-331q0 -19 6 -28t20 -10q7 -1 12 -5.5t5 -10.5v-87q0 -7 -5 -11.5
t-12 -4.5q-50 0 -82.5 14t-51.5 43q-6 9 -11.5 9.5t-12.5 -7.5q-31 -35 -61.5 -49.5t-69.5 -14.5q-13 0 -27.5 2t-33.5 7q-6 1 -9 -0.5t-3 -7.5v-162q0 -8 -5.5 -13.5t-13.5 -5.5z" />
    <glyph glyph-name="paragraph" unicode="&#xb6;" horiz-adv-x="574" 
d="M273 -180h-48q-7 0 -12.5 5.5t-5.5 13.5v521q0 8 -5.5 13.5t-13.5 5.5h-6q-61 0 -104.5 44t-43.5 106q0 66 47.5 108.5t125.5 42.5h286q8 0 13.5 -5.5t5.5 -13.5v-822q0 -8 -5.5 -13.5t-13.5 -5.5h-49q-7 0 -12.5 5.5t-5.5 13.5v748q0 8 -5.5 13.5t-13.5 5.5h-97
q-7 0 -12.5 -5.5t-5.5 -13.5v-748q0 -8 -5.5 -13.5t-13.5 -5.5z" />
    <glyph glyph-name="periodcentered" unicode="&#xb7;" horiz-adv-x="212" 
d="M184 348q0 -32 -23 -54.5t-56 -22.5q-32 0 -54.5 22.5t-22.5 54.5q0 33 22.5 56.5t54.5 23.5q33 0 56 -23.5t23 -56.5z" />
    <glyph glyph-name="cedilla" unicode="&#xb8;" horiz-adv-x="258" 
d="M223 -112q0 -38 -32.5 -61t-83.5 -23q-24 0 -46.5 3t-35.5 9q-17 7 -11.5 32t24.5 21q28 -6 40.5 -7.5t26.5 -1.5q21 0 32.5 6.5t11.5 18.5q0 11 -9 17.5t-24 6.5q-9 0 -18 -1.5t-21 -4.5q-21 -5 -29.5 14.5t5.5 33.5l55 49h69l-30 -32q-4 -5 -2.5 -7.5t7.5 -2.5
q33 -2 52 -21t19 -49z" />
    <glyph glyph-name="onesuperior" unicode="&#xb9;" horiz-adv-x="400" 
d="M255 411h-63q-8 0 -14 5.5t-6 13.5v266q0 7 -3.5 10t-9.5 0q-26 -12 -47.5 -18t-38.5 -6q-8 0 -12.5 5t-4.5 13v46q0 7 4.5 13t11.5 7q35 8 64 24.5t52 40.5q5 5 8.5 6.5t7.5 1.5h51q8 0 14 -6t6 -14v-389q0 -7 -6 -13t-14 -6z" />
    <glyph glyph-name="ordmasculine" unicode="&#xba;" horiz-adv-x="429" 
d="M390 516q0 -73 -50.5 -121.5t-125.5 -48.5t-125 48.5t-50 121.5t50 121.5t125 48.5t125.5 -48.5t50.5 -121.5zM134 516q0 -35 23.5 -59.5t56.5 -24.5t56 24.5t23 59.5t-23 59t-56 24t-56.5 -24.5t-23.5 -58.5zM365 209h-294q-7 0 -12.5 5.5t-5.5 12.5v48q0 8 5.5 13.5
t12.5 5.5h294q8 0 13.5 -5.5t5.5 -13.5v-48q0 -7 -5.5 -12.5t-13.5 -5.5z" />
    <glyph glyph-name="guillemotright" unicode="&#xbb;" horiz-adv-x="517" 
d="M119 77h-75q-11 0 -15.5 8.5t3.5 18.5l110 146q3 4 3 9t-3 9l-110 142q-8 10 -3.5 18.5t15.5 8.5h75q8 0 15 -3.5t12 -9.5l115 -146q8 -10 8 -19.5t-8 -20.5l-115 -148q-5 -6 -12 -9.5t-15 -3.5zM338 77h-75q-11 0 -15.5 8.5t3.5 18.5l110 146q3 4 3 9t-3 9l-110 142
q-8 10 -3.5 18.5t15.5 8.5h75q8 0 15 -3.5t12 -9.5l115 -146q8 -10 8 -19.5t-8 -20.5l-115 -148q-5 -6 -12 -9.5t-15 -3.5z" />
    <glyph glyph-name="onequarter" unicode="&#xbc;" horiz-adv-x="874" 
d="M259 -5h-54q-11 0 -15 8t3 18l418 654q4 5 8 7.5t10 2.5h56q11 0 14.5 -8t-3.5 -18l-419 -654q-4 -5 -8 -7.5t-10 -2.5zM255 252h-63q-8 0 -14 5.5t-6 13.5v266q0 7 -3.5 10t-9.5 0q-26 -12 -47.5 -18t-38.5 -6q-8 0 -12.5 5t-4.5 13v46q0 7 4.5 13t11.5 7q35 8 64 24.5
t52 40.5q5 5 8.5 6.5t7.5 1.5h51q8 0 14 -6t6 -14v-389q0 -7 -6 -13t-14 -6zM775 0h-59q-7 0 -13 6t-6 13v69h-182q-8 0 -14 5.5t-6 13.5v45q0 8 2 14.5t6 13.5l173 235q5 7 10.5 10t12.5 3h76q8 0 14.5 -6t6.5 -14v-237h33q8 0 14 -5.5t6 -13.5v-45q0 -7 -6 -13t-14 -6h-33
v-69q0 -7 -6.5 -13t-14.5 -6zM698 309l-102 -138h102v138z" />
    <glyph glyph-name="onehalf" unicode="&#xbd;" horiz-adv-x="934" 
d="M259 -5h-54q-11 0 -15 8t3 18l418 654q4 5 8 7.5t10 2.5h56q11 0 14.5 -8t-3.5 -18l-419 -654q-4 -5 -8 -7.5t-10 -2.5zM255 252h-63q-8 0 -14 5.5t-6 13.5v266q0 7 -3.5 10t-9.5 0q-26 -12 -47.5 -18t-38.5 -6q-8 0 -12.5 5t-4.5 13v46q0 7 4.5 13t11.5 7q35 8 64 24.5
t52 40.5q5 5 8.5 6.5t7.5 1.5h51q8 0 14 -6t6 -14v-389q0 -7 -6 -13t-14 -6zM875 0h-286q-7 0 -13 6t-6 13v36q0 8 2 12.5t7 8.5l131 115q48 43 63 64t15 40q0 21 -16 34.5t-42 13.5t-41.5 -11.5t-20.5 -35.5q-2 -9 -8 -13.5t-14 -4.5h-57q-9 0 -15 6t-5 16q0 52 48 93
t118 41q72 0 116 -37t44 -97q0 -33 -16.5 -63t-77.5 -86l-67 -61h141q8 0 14 -6t6 -13v-52q0 -7 -6 -13t-14 -6z" />
    <glyph glyph-name="threequarters" unicode="&#xbe;" horiz-adv-x="924" 
d="M310 -5h-54q-11 0 -15 8t3 18l418 654q4 5 8 7.5t10 2.5h56q11 0 14.5 -8t-3.5 -18l-419 -654q-4 -5 -8 -7.5t-10 -2.5zM373 397q0 -68 -50.5 -109.5t-126.5 -41.5q-70 0 -117 35.5t-50 90.5q-1 8 4.5 14t13.5 6h64q8 0 12.5 -3.5t8.5 -11.5q7 -21 24.5 -32t42.5 -11
q31 0 50.5 17t19.5 46q0 27 -19.5 42.5t-51.5 15.5h-36q-8 0 -13.5 4.5t-5.5 11.5v34q0 8 3 14t10 12l59 58h-153q-8 0 -14 5.5t-6 12.5v53q0 8 6 14t14 6h270q8 0 14 -6t6 -14v-44q0 -5 -1.5 -9t-5.5 -7l-77 -77q53 -15 79 -46.5t26 -79.5zM826 0h-59q-7 0 -13 6t-6 13v69
h-182q-8 0 -14 5.5t-6 13.5v45q0 8 2 14.5t6 13.5l173 235q5 7 10.5 10t12.5 3h76q8 0 14.5 -6t6.5 -14v-237h33q8 0 14 -5.5t6 -13.5v-45q0 -7 -6 -13t-14 -6h-33v-69q0 -7 -6.5 -13t-14.5 -6zM749 309l-102 -138h102v138z" />
    <glyph glyph-name="questiondown" unicode="&#xbf;" horiz-adv-x="449" 
d="M148 435q0 31 23.5 54t55.5 23q33 0 55.5 -22.5t22.5 -54.5q0 -33 -23 -56.5t-55 -23.5t-55.5 23.5t-23.5 56.5zM184 295h91q7 0 12.5 -5.5t5.5 -13.5q0 -39 -17 -75t-69 -94q-39 -44 -51 -66.5t-12 -44.5q0 -29 24 -48.5t58 -19.5q35 0 58.5 21.5t23.5 51.5v13
q0 7 5.5 13t13.5 6h93q7 0 12.5 -5.5t5.5 -13.5v-15q0 -81 -62 -134t-156 -53q-91 0 -149 49t-58 129q0 40 17.5 78.5t71.5 99.5q40 44 51.5 66t11.5 42q0 7 5.5 13t13.5 6z" />
    <glyph glyph-name="Agrave" unicode="&#xc0;" horiz-adv-x="688" 
d="M384 726h-77q-7 0 -12.5 3.5t-11.5 11.5l-65 87q-7 9 -3 18.5t14 9.5h107q7 0 12 -4t9 -13l40 -92q3 -8 -0.5 -14.5t-12.5 -6.5zM124 0h-106q-10 0 -14.5 7t-0.5 18l274 639q4 8 9 12t11 4h102q6 0 10.5 -4t8.5 -13l267 -639q4 -9 -0.5 -16.5t-13.5 -7.5h-113q-7 0 -12 4
t-8 12l-49 120q-3 7 -8 10t-13 3h-256q-7 0 -11.5 -3t-7.5 -9l-50 -121q-3 -8 -8 -12t-11 -4zM256 255h173q6 0 8 4t0 10l-85 211q-3 8 -9 8t-9 -8l-87 -211q-3 -6 -0.5 -10t9.5 -4z" />
    <glyph glyph-name="Aacute" unicode="&#xc1;" horiz-adv-x="688" 
d="M391 726h-76q-9 0 -12.5 6.5t-0.5 14.5l40 92q4 9 9 13t12 4h107q10 0 14 -9t-3 -19l-66 -87q-6 -9 -11.5 -12t-12.5 -3zM124 0h-106q-10 0 -14.5 7t-0.5 18l274 639q4 8 9 12t11 4h102q6 0 10.5 -4t8.5 -13l267 -639q4 -9 -0.5 -16.5t-13.5 -7.5h-113q-7 0 -12 4t-8 12
l-49 120q-3 7 -8 10t-13 3h-256q-7 0 -11.5 -3t-7.5 -9l-50 -121q-3 -8 -8 -12t-11 -4zM256 255h173q6 0 8 4t0 10l-85 211q-3 8 -9 8t-9 -8l-87 -211q-3 -6 -0.5 -10t9.5 -4z" />
    <glyph glyph-name="Acircumflex" unicode="&#xc2;" horiz-adv-x="688" 
d="M282 726h-53q-11 0 -15 9t2 19l49 86q4 7 9.5 11.5t11.5 4.5h113q5 0 11.5 -4.5t10.5 -11.5l49 -86q6 -10 2 -19t-15 -9h-53q-4 0 -8 2t-7 5l-38 42q-2 2 -4 3t-4 1t-3.5 -0.5t-5.5 -3.5l-37 -42q-3 -3 -7 -5t-8 -2zM124 0h-106q-10 0 -14.5 7t-0.5 18l274 639q4 8 9 12
t11 4h102q6 0 10.5 -4t8.5 -13l267 -639q4 -9 -0.5 -16.5t-13.5 -7.5h-113q-7 0 -12 4t-8 12l-49 120q-3 7 -8 10t-13 3h-256q-7 0 -11.5 -3t-7.5 -9l-50 -121q-3 -8 -8 -12t-11 -4zM256 255h173q6 0 8 4t0 10l-85 211q-3 8 -9 8t-9 -8l-87 -211q-3 -6 -0.5 -10t9.5 -4z" />
    <glyph glyph-name="Atilde" unicode="&#xc3;" horiz-adv-x="688" 
d="M477 785q-13 -25 -35.5 -42t-45.5 -17q-11 0 -25.5 3.5t-44.5 15.5q-22 8 -30.5 10.5t-13.5 2.5q-6 0 -12 -3t-17 -14q-8 -8 -12.5 -8t-9.5 5l-24 24q-4 4 -4.5 9.5t2.5 11.5q11 23 34 39t47 16q11 0 26.5 -3.5t46.5 -14.5q20 -7 27.5 -9t11.5 -2q7 0 12.5 3t18.5 17
q6 7 11.5 8t10.5 -4l23 -26q5 -5 5.5 -10.5t-2.5 -11.5zM124 0h-106q-10 0 -14.5 7t-0.5 18l274 639q4 8 9 12t11 4h102q6 0 10.5 -4t8.5 -13l267 -639q4 -9 -0.5 -16.5t-13.5 -7.5h-113q-7 0 -12 4t-8 12l-49 120q-3 7 -8 10t-13 3h-256q-7 0 -11.5 -3t-7.5 -9l-50 -121
q-3 -8 -8 -12t-11 -4zM256 255h173q6 0 8 4t0 10l-85 211q-3 8 -9 8t-9 -8l-87 -211q-3 -6 -0.5 -10t9.5 -4z" />
    <glyph glyph-name="Adieresis" unicode="&#xc4;" horiz-adv-x="688" 
d="M330 793q0 -24 -17.5 -42t-41.5 -18q-25 0 -43 18t-18 42t18 41.5t43 17.5q24 0 41.5 -17.5t17.5 -41.5zM475 793q0 -24 -17.5 -42t-41.5 -18t-42 18t-18 42q0 25 17.5 42t42.5 17t42 -17t17 -42zM124 0h-106q-10 0 -14.5 7t-0.5 18l274 639q4 8 9 12t11 4h102
q6 0 10.5 -4t8.5 -13l267 -639q4 -9 -0.5 -16.5t-13.5 -7.5h-113q-7 0 -12 4t-8 12l-49 120q-3 7 -8 10t-13 3h-256q-7 0 -11.5 -3t-7.5 -9l-50 -121q-3 -8 -8 -12t-11 -4zM256 255h173q6 0 8 4t0 10l-85 211q-3 8 -9 8t-9 -8l-87 -211q-3 -6 -0.5 -10t9.5 -4z" />
    <glyph glyph-name="Aring" unicode="&#xc5;" horiz-adv-x="688" 
d="M124 0h-106q-10 0 -14.5 7t-0.5 18l235 547q3 7 2.5 11.5t-3.5 8.5q-13 16 -20 36.5t-7 42.5q0 55 40.5 95.5t96.5 40.5t96.5 -40.5t40.5 -95.5q0 -22 -7 -42t-21 -37q-3 -4 -3.5 -8t3.5 -13l229 -547q4 -9 -0.5 -16.5t-13.5 -7.5h-113q-7 0 -12 4t-8 12l-49 120
q-3 7 -8 10t-13 3h-256q-7 0 -11.5 -3t-7.5 -9l-50 -121q-3 -8 -8 -12t-11 -4zM292 671q0 -22 16.5 -38.5t38.5 -16.5q23 0 39 16.5t16 38.5q0 23 -16 39t-39 16q-22 0 -38.5 -16t-16.5 -39zM256 255h173q6 0 8 4t0 10l-85 211q-4 8 -9 8t-9 -8l-87 -211q-2 -6 0.5 -10
t8.5 -4z" />
    <glyph glyph-name="AE" unicode="&#xc6;" horiz-adv-x="1042" 
d="M127 0h-115q-10 0 -13.5 7.5t2.5 17.5l400 639q4 7 10.5 11.5t12.5 4.5h570q8 0 13.5 -5.5t5.5 -13.5v-85q0 -7 -5.5 -12.5t-13.5 -5.5h-323q-7 0 -13 -5.5t-6 -13.5v-117q0 -7 5.5 -12.5t13.5 -5.5h304q8 0 13.5 -5.5t5.5 -13.5v-84q0 -7 -5.5 -12.5t-13.5 -5.5h-304
q-7 0 -13 -5.5t-6 -13.5v-124q0 -7 6 -13t13 -6h323q8 0 13.5 -5.5t5.5 -13.5v-84q0 -7 -5.5 -12.5t-13.5 -5.5h-465q-7 0 -12.5 5.5t-5.5 13.5v123q0 9 -5 14t-13 5h-228q-12 0 -22 -5.5t-17 -16.5l-77 -123q-5 -9 -10 -12.5t-12 -3.5zM336 271h157q8 0 13 5.5t5 12.5v260
q0 15 -12 17t-21 -12l-155 -256q-7 -12 -3.5 -19.5t16.5 -7.5z" />
    <glyph glyph-name="Ccedilla" unicode="&#xc7;" horiz-adv-x="745" 
d="M424 -42q33 -2 52 -21t19 -49q0 -38 -32.5 -61t-83.5 -23q-24 0 -46.5 3t-35.5 9q-17 7 -11.5 32t24.5 21q28 -6 40.5 -7.5t26.5 -1.5q21 0 32.5 6.5t11.5 18.5q0 11 -9 17.5t-24 6.5q-9 0 -18 -1.5t-21 -4.5q-21 -5 -29.5 14.5t5.5 33.5l30 27q6 6 5 9t-10 5
q-133 18 -220 115t-87 231q0 148 104.5 251.5t252.5 103.5q103 0 191 -54.5t130 -143.5q6 -13 1.5 -21.5t-18.5 -8.5h-108q-12 0 -19 3.5t-15 13.5q-30 38 -72 59.5t-90 21.5q-87 0 -147.5 -65t-60.5 -158t60.5 -157t147.5 -64q48 0 91.5 21.5t73.5 60.5q8 9 15.5 12.5
t19.5 3.5h106q14 0 18.5 -9t-2.5 -23q-35 -76 -105.5 -127t-159.5 -65q-10 -2 -15.5 -4.5t-9.5 -6.5l-13 -14q-4 -5 -2.5 -7.5t7.5 -2.5z" />
    <glyph glyph-name="Egrave" unicode="&#xc8;" horiz-adv-x="610" 
d="M359 726h-77q-7 0 -12.5 3.5t-11.5 11.5l-65 87q-7 9 -3 18.5t14 9.5h107q7 0 12 -4t9 -13l40 -92q3 -8 -0.5 -14.5t-12.5 -6.5zM564 0h-481q-7 0 -12.5 5.5t-5.5 13.5v642q0 8 5.5 13.5t12.5 5.5h481q8 0 13.5 -5.5t5.5 -13.5v-85q0 -7 -5.5 -12.5t-13.5 -5.5h-340
q-7 0 -12.5 -5.5t-5.5 -13.5v-117q0 -7 5.5 -12.5t12.5 -5.5h321q8 0 13.5 -5.5t5.5 -13.5v-84q0 -7 -5.5 -12.5t-13.5 -5.5h-321q-7 0 -12.5 -5.5t-5.5 -13.5v-124q0 -8 5.5 -13.5t12.5 -5.5h340q8 0 13.5 -5.5t5.5 -13.5v-84q0 -7 -5.5 -12.5t-13.5 -5.5z" />
    <glyph glyph-name="Eacute" unicode="&#xc9;" horiz-adv-x="610" 
d="M356 726h-76q-9 0 -12.5 6.5t-0.5 14.5l40 92q4 9 9 13t12 4h107q10 0 14 -9t-3 -19l-66 -87q-6 -9 -11.5 -12t-12.5 -3zM564 0h-481q-7 0 -12.5 5.5t-5.5 13.5v642q0 8 5.5 13.5t12.5 5.5h481q8 0 13.5 -5.5t5.5 -13.5v-85q0 -7 -5.5 -12.5t-13.5 -5.5h-340
q-7 0 -12.5 -5.5t-5.5 -13.5v-117q0 -7 5.5 -12.5t12.5 -5.5h321q8 0 13.5 -5.5t5.5 -13.5v-84q0 -7 -5.5 -12.5t-13.5 -5.5h-321q-7 0 -12.5 -5.5t-5.5 -13.5v-124q0 -8 5.5 -13.5t12.5 -5.5h340q8 0 13.5 -5.5t5.5 -13.5v-84q0 -7 -5.5 -12.5t-13.5 -5.5z" />
    <glyph glyph-name="Ecircumflex" unicode="&#xca;" horiz-adv-x="610" 
d="M257 726h-53q-11 0 -15 9t2 19l49 86q4 7 9.5 11.5t11.5 4.5h113q5 0 11.5 -4.5t10.5 -11.5l49 -86q6 -10 2 -19t-15 -9h-53q-4 0 -8 2t-7 5l-38 42q-2 2 -4 3t-4 1t-3.5 -0.5t-5.5 -3.5l-37 -42q-3 -3 -7 -5t-8 -2zM564 0h-481q-7 0 -12.5 5.5t-5.5 13.5v642
q0 8 5.5 13.5t12.5 5.5h481q8 0 13.5 -5.5t5.5 -13.5v-85q0 -7 -5.5 -12.5t-13.5 -5.5h-340q-7 0 -12.5 -5.5t-5.5 -13.5v-117q0 -7 5.5 -12.5t12.5 -5.5h321q8 0 13.5 -5.5t5.5 -13.5v-84q0 -7 -5.5 -12.5t-13.5 -5.5h-321q-7 0 -12.5 -5.5t-5.5 -13.5v-124q0 -8 5.5 -13.5
t12.5 -5.5h340q8 0 13.5 -5.5t5.5 -13.5v-84q0 -7 -5.5 -12.5t-13.5 -5.5z" />
    <glyph glyph-name="Edieresis" unicode="&#xcb;" horiz-adv-x="610" 
d="M305 793q0 -24 -17.5 -42t-41.5 -18q-25 0 -43 18t-18 42t18 41.5t43 17.5q24 0 41.5 -17.5t17.5 -41.5zM450 793q0 -24 -17.5 -42t-41.5 -18t-42 18t-18 42q0 25 17.5 42t42.5 17t42 -17t17 -42zM564 0h-481q-7 0 -12.5 5.5t-5.5 13.5v642q0 8 5.5 13.5t12.5 5.5h481
q8 0 13.5 -5.5t5.5 -13.5v-85q0 -7 -5.5 -12.5t-13.5 -5.5h-340q-7 0 -12.5 -5.5t-5.5 -13.5v-117q0 -7 5.5 -12.5t12.5 -5.5h321q8 0 13.5 -5.5t5.5 -13.5v-84q0 -7 -5.5 -12.5t-13.5 -5.5h-321q-7 0 -12.5 -5.5t-5.5 -13.5v-124q0 -8 5.5 -13.5t12.5 -5.5h340
q8 0 13.5 -5.5t5.5 -13.5v-84q0 -7 -5.5 -12.5t-13.5 -5.5z" />
    <glyph glyph-name="Igrave" unicode="&#xcc;" horiz-adv-x="271" 
d="M178 726h-77q-7 0 -12.5 3.5t-11.5 11.5l-65 87q-7 9 -3 18.5t14 9.5h107q7 0 12 -4t9 -13l40 -92q3 -8 -0.5 -14.5t-12.5 -6.5zM188 0h-104q-7 0 -12.5 5.5t-5.5 13.5v642q0 8 5.5 13.5t12.5 5.5h104q8 0 13.5 -5.5t5.5 -13.5v-642q0 -7 -5.5 -13t-13.5 -6z" />
    <glyph glyph-name="Iacute" unicode="&#xcd;" horiz-adv-x="271" 
d="M174 726h-76q-9 0 -12.5 6.5t-0.5 14.5l40 92q4 9 9 13t12 4h107q10 0 14 -9t-3 -19l-66 -87q-6 -9 -11.5 -12t-12.5 -3zM187 0h-104q-7 0 -12.5 5.5t-5.5 13.5v642q0 8 5.5 13.5t12.5 5.5h104q8 0 13.5 -5.5t5.5 -13.5v-642q0 -7 -5.5 -13t-13.5 -6z" />
    <glyph glyph-name="Icircumflex" unicode="&#xce;" horiz-adv-x="271" 
d="M75 726h-53q-11 0 -15 9t2 19l49 86q4 7 9.5 11.5t11.5 4.5h113q5 0 11.5 -4.5t10.5 -11.5l49 -86q6 -10 2 -19t-15 -9h-53q-4 0 -8 2t-7 5l-38 42q-2 2 -4 3t-4 1t-3.5 -0.5t-5.5 -3.5l-37 -42q-3 -3 -7 -5t-8 -2zM187 0h-104q-7 0 -12.5 5.5t-5.5 13.5v642
q0 8 5.5 13.5t12.5 5.5h104q8 0 13.5 -5.5t5.5 -13.5v-642q0 -7 -5.5 -13t-13.5 -6z" />
    <glyph glyph-name="Idieresis" unicode="&#xcf;" horiz-adv-x="271" 
d="M123 793q0 -24 -17.5 -42t-41.5 -18q-25 0 -43 18t-18 42t18 41.5t43 17.5q24 0 41.5 -17.5t17.5 -41.5zM268 793q0 -24 -17.5 -42t-41.5 -18t-42 18t-18 42q0 25 17.5 42t42.5 17t42 -17t17 -42zM187 0h-104q-7 0 -12.5 5.5t-5.5 13.5v642q0 8 5.5 13.5t12.5 5.5h104
q8 0 13.5 -5.5t5.5 -13.5v-642q0 -7 -5.5 -13t-13.5 -6z" />
    <glyph glyph-name="Eth" unicode="&#xd0;" horiz-adv-x="752" 
d="M8 305v78q0 8 5.5 13.5t12.5 5.5h20q8 0 13.5 6t5.5 13v240q0 8 5.5 13.5t12.5 5.5h267q154 0 255.5 -96.5t101.5 -245.5q0 -148 -101 -243t-256 -95h-267q-7 0 -12.5 5.5t-5.5 13.5v248q0 8 -5.5 13.5t-13.5 5.5h-20q-7 0 -12.5 5.5t-5.5 13.5zM224 121h125
q90 0 150.5 62.5t60.5 156.5t-60.5 156t-150.5 62h-125q-7 0 -12.5 -5.5t-5.5 -13.5v-118q0 -7 6 -13t13 -6h121q8 0 13.5 -5.5t5.5 -13.5v-78q0 -7 -5.5 -13t-13.5 -6h-121q-7 0 -13 -5.5t-6 -13.5v-127q0 -8 5.5 -13.5t12.5 -5.5z" />
    <glyph glyph-name="Ntilde" unicode="&#xd1;" horiz-adv-x="728" 
d="M504 785q-13 -25 -35.5 -42t-45.5 -17q-11 0 -25.5 3.5t-44.5 15.5q-22 8 -30.5 10.5t-13.5 2.5q-6 0 -12 -3t-17 -14q-8 -8 -12.5 -8t-9.5 5l-24 24q-4 4 -4.5 9.5t2.5 11.5q11 23 34 39t47 16q11 0 26.5 -3.5t46.5 -14.5q20 -7 27.5 -9t11.5 -2q7 0 12.5 3t18.5 17
q6 7 11.5 8t10.5 -4l23 -26q5 -5 5.5 -10.5t-2.5 -11.5zM179 0h-96q-7 0 -12.5 5.5t-5.5 13.5v642q0 8 5.5 13.5t12.5 5.5h96q6 0 11.5 -4t12.5 -13l319 -428q6 -8 11.5 -6.5t5.5 11.5l-6 421q0 8 6 13.5t13 5.5h96q8 0 13.5 -5.5t5.5 -13.5v-642q0 -7 -5.5 -13t-13.5 -6
h-97q-6 0 -11 3t-10 9l-320 434q-5 8 -11 7t-6 -9l5 -425q0 -8 -5.5 -13.5t-13.5 -5.5z" />
    <glyph glyph-name="Ograve" unicode="&#xd2;" horiz-adv-x="810" 
d="M445 726h-77q-7 0 -12.5 3.5t-11.5 11.5l-65 87q-7 9 -3 18.5t14 9.5h107q7 0 12 -4t9 -13l40 -92q3 -8 -0.5 -14.5t-12.5 -6.5zM766 338q0 -151 -103.5 -250.5t-258.5 -99.5t-258 99.5t-103 250.5t103.5 253t257.5 102t258 -102t104 -253zM192 340q0 -96 60.5 -159.5
t152.5 -63.5q91 0 152 64t61 159t-61 159.5t-152 64.5t-152 -64.5t-61 -159.5z" />
    <glyph glyph-name="Oacute" unicode="&#xd3;" horiz-adv-x="810" 
d="M442 726h-76q-9 0 -12.5 6.5t-0.5 14.5l40 92q4 9 9 13t12 4h107q10 0 14 -9t-3 -19l-66 -87q-6 -9 -11.5 -12t-12.5 -3zM766 338q0 -151 -103.5 -250.5t-258.5 -99.5t-258 99.5t-103 250.5t103.5 253t257.5 102t258 -102t104 -253zM192 340q0 -96 60.5 -159.5
t152.5 -63.5q91 0 152 64t61 159t-61 159.5t-152 64.5t-152 -64.5t-61 -159.5z" />
    <glyph glyph-name="Ocircumflex" unicode="&#xd4;" horiz-adv-x="810" 
d="M344 726h-53q-11 0 -15 9t2 19l49 86q4 7 9.5 11.5t11.5 4.5h113q5 0 11.5 -4.5t10.5 -11.5l49 -86q6 -10 2 -19t-15 -9h-53q-4 0 -8 2t-7 5l-38 42q-2 2 -4 3t-4 1t-3.5 -0.5t-5.5 -3.5l-37 -42q-3 -3 -7 -5t-8 -2zM766 338q0 -151 -103.5 -250.5t-258.5 -99.5
t-258 99.5t-103 250.5t103.5 253t257.5 102t258 -102t104 -253zM192 340q0 -96 60.5 -159.5t152.5 -63.5q91 0 152 64t61 159t-61 159.5t-152 64.5t-152 -64.5t-61 -159.5z" />
    <glyph glyph-name="Otilde" unicode="&#xd5;" horiz-adv-x="810" 
d="M539 785q-13 -25 -35.5 -42t-45.5 -17q-11 0 -25.5 3.5t-44.5 15.5q-22 8 -30.5 10.5t-13.5 2.5q-6 0 -12 -3t-17 -14q-8 -8 -12.5 -8t-9.5 5l-24 24q-4 4 -4.5 9.5t2.5 11.5q11 23 34 39t47 16q11 0 26.5 -3.5t46.5 -14.5q20 -7 27.5 -9t11.5 -2q7 0 12.5 3t18.5 17
q6 7 11.5 8t10.5 -4l23 -26q5 -5 5.5 -10.5t-2.5 -11.5zM766 338q0 -151 -103.5 -250.5t-258.5 -99.5t-258 99.5t-103 250.5t103.5 253t257.5 102t258 -102t104 -253zM192 340q0 -96 60.5 -159.5t152.5 -63.5q91 0 152 64t61 159t-61 159.5t-152 64.5t-152 -64.5t-61 -159.5
z" />
    <glyph glyph-name="Odieresis" unicode="&#xd6;" horiz-adv-x="810" 
d="M391 793q0 -24 -17.5 -42t-41.5 -18q-25 0 -43 18t-18 42t18 41.5t43 17.5q24 0 41.5 -17.5t17.5 -41.5zM536 793q0 -24 -17.5 -42t-41.5 -18t-42 18t-18 42q0 25 17.5 42t42.5 17t42 -17t17 -42zM766 338q0 -151 -103.5 -250.5t-258.5 -99.5t-258 99.5t-103 250.5
t103.5 253t257.5 102t258 -102t104 -253zM192 340q0 -96 60.5 -159.5t152.5 -63.5q91 0 152 64t61 159t-61 159.5t-152 64.5t-152 -64.5t-61 -159.5z" />
    <glyph glyph-name="multiply" unicode="&#xd7;" 
d="M466 22l-142 142q-5 6 -13 6t-13 -5l-144 -142q-5 -6 -13 -6t-13 5l-55 56q-5 5 -5 13.5t5 13.5l142 142q5 5 5 13t-6 13l-141 142q-5 5 -5 13.5t5 13.5l55 56q5 5 13.5 4.5t13.5 -5.5l142 -141q5 -6 13 -6t13 5l142 142q5 6 13.5 6t13.5 -6l56 -55q5 -5 5 -13t-5 -13
l-143 -143q-5 -5 -5 -13t6 -13l142 -143q5 -5 5 -13t-5 -13l-56 -55q-5 -6 -13 -6t-13 5z" />
    <glyph glyph-name="Oslash" unicode="&#xd8;" horiz-adv-x="813" 
d="M167 -48h-81q-10 0 -14 8.5t2 17.5l58 75q10 13 11 25t-11 25q-42 47 -64.5 107t-22.5 128q0 151 103.5 253t257.5 102q41 0 80 -8.5t75 -25.5q15 -7 25 -4.5t18 12.5l26 34q4 6 8 8.5t9 2.5h80q10 0 14.5 -8.5t-1.5 -17.5l-59 -76q-8 -10 -7 -21t11 -22q41 -48 62 -106
t21 -123q0 -151 -103.5 -251t-258.5 -100q-40 0 -76 6t-69 18q-11 4 -16.5 5.5t-6.5 1.5q-6 0 -11 -3.5t-10 -9.5l-33 -43q-4 -5 -8 -7.5t-9 -2.5zM194 340q0 -33 8 -63t23 -56q8 -13 16.5 -14t16.5 10l228 297q10 12 7 22.5t-18 16.5q-14 5 -31.5 8t-37.5 3
q-91 0 -151.5 -64.5t-60.5 -159.5zM348 122q11 -3 25 -4.5t33 -1.5q92 0 153 64t61 160q0 30 -7 57.5t-20 51.5q-7 12 -16 12.5t-17 -10.5l-220 -287q-12 -16 -10 -26.5t18 -15.5z" />
    <glyph glyph-name="Ugrave" unicode="&#xd9;" horiz-adv-x="714" 
d="M394 726h-77q-7 0 -12.5 3.5t-11.5 11.5l-65 87q-7 9 -3 18.5t14 9.5h107q7 0 12 -4t9 -13l40 -92q3 -8 -0.5 -14.5t-12.5 -6.5zM356 -13q-135 0 -213 84t-78 230v360q0 8 5.5 13.5t12.5 5.5h104q8 0 13.5 -5.5t5.5 -13.5v-364q0 -82 41 -131t110 -49t110 49t41 131v364
q0 8 5.5 13.5t12.5 5.5h104q8 0 13.5 -5.5t5.5 -13.5v-360q0 -146 -78.5 -230t-214.5 -84z" />
    <glyph glyph-name="Uacute" unicode="&#xda;" horiz-adv-x="714" 
d="M391 726h-76q-9 0 -12.5 6.5t-0.5 14.5l40 92q4 9 9 13t12 4h107q10 0 14 -9t-3 -19l-66 -87q-6 -9 -11.5 -12t-12.5 -3zM356 -13q-135 0 -213 84t-78 230v360q0 8 5.5 13.5t12.5 5.5h104q8 0 13.5 -5.5t5.5 -13.5v-364q0 -82 41 -131t110 -49t110 49t41 131v364
q0 8 5.5 13.5t12.5 5.5h104q8 0 13.5 -5.5t5.5 -13.5v-360q0 -146 -78.5 -230t-214.5 -84z" />
    <glyph glyph-name="Ucircumflex" unicode="&#xdb;" horiz-adv-x="714" 
d="M293 726h-53q-11 0 -15 9t2 19l49 86q4 7 9.5 11.5t11.5 4.5h113q5 0 11.5 -4.5t10.5 -11.5l49 -86q6 -10 2 -19t-15 -9h-53q-4 0 -8 2t-7 5l-38 42q-2 2 -4 3t-4 1t-3.5 -0.5t-5.5 -3.5l-37 -42q-3 -3 -7 -5t-8 -2zM356 -13q-135 0 -213 84t-78 230v360q0 8 5.5 13.5
t12.5 5.5h104q8 0 13.5 -5.5t5.5 -13.5v-364q0 -82 41 -131t110 -49t110 49t41 131v364q0 8 5.5 13.5t12.5 5.5h104q8 0 13.5 -5.5t5.5 -13.5v-360q0 -146 -78.5 -230t-214.5 -84z" />
    <glyph glyph-name="Udieresis" unicode="&#xdc;" horiz-adv-x="714" 
d="M340 793q0 -24 -17.5 -42t-41.5 -18q-25 0 -43 18t-18 42t18 41.5t43 17.5q24 0 41.5 -17.5t17.5 -41.5zM485 793q0 -24 -17.5 -42t-41.5 -18t-42 18t-18 42q0 25 17.5 42t42.5 17t42 -17t17 -42zM356 -13q-135 0 -213 84t-78 230v360q0 8 5.5 13.5t12.5 5.5h104
q8 0 13.5 -5.5t5.5 -13.5v-364q0 -82 41 -131t110 -49t110 49t41 131v364q0 8 5.5 13.5t12.5 5.5h104q8 0 13.5 -5.5t5.5 -13.5v-360q0 -146 -78.5 -230t-214.5 -84z" />
    <glyph glyph-name="Yacute" unicode="&#xdd;" horiz-adv-x="620" 
d="M349 726h-76q-9 0 -12.5 6.5t-0.5 14.5l40 92q4 9 9 13t12 4h107q10 0 14 -9t-3 -19l-66 -87q-6 -9 -11.5 -12t-12.5 -3zM359 0h-104q-7 0 -12.5 5.5t-5.5 13.5v213q0 14 -1.5 21t-4.5 12l-233 389q-5 9 -1.5 17.5t13.5 8.5h112q6 0 11 -3.5t10 -11.5l157 -257
q4 -7 9.5 -7t9.5 7l160 257q4 7 9.5 11t11.5 4h106q10 0 14.5 -8t-1.5 -18l-234 -388q-4 -6 -5.5 -14t-1.5 -20v-213q0 -7 -5.5 -13t-13.5 -6z" />
    <glyph glyph-name="Thorn" unicode="&#xde;" horiz-adv-x="664" 
d="M187 0h-104q-7 0 -12.5 5.5t-5.5 13.5v642q0 8 5.5 13.5t12.5 5.5h104q8 0 13.5 -5.5t5.5 -13.5v-68q0 -9 4 -13.5t13 -4.5h175q112 0 178 -60.5t66 -163.5q0 -100 -71.5 -164t-178.5 -64h-168q-9 0 -13.5 -5t-4.5 -14v-85q0 -7 -5.5 -13t-13.5 -6zM223 239h168
q46 0 76.5 33t30.5 78q0 46 -29.5 76.5t-77.5 30.5h-168q-9 0 -13 -4.5t-4 -13.5v-182q0 -9 4 -13.5t13 -4.5z" />
    <glyph glyph-name="germandbls" unicode="&#xdf;" horiz-adv-x="654" 
d="M626 190q0 -87 -58.5 -145t-151.5 -58q-75 0 -123.5 41t-56.5 105q-2 14 2.5 18.5t15.5 4.5h63q13 0 18 -2.5t8 -12.5q10 -26 27 -38.5t43 -12.5q38 0 60 27.5t22 72.5q0 49 -28 76.5t-78 27.5h-80q-7 0 -13 6t-6 13v66q0 7 5.5 12.5t13.5 5.5h51q45 0 72.5 24t27.5 64
q0 43 -32.5 67.5t-89.5 24.5q-68 0 -107.5 -32.5t-39.5 -84.5v-441q0 -8 -5.5 -13.5t-12.5 -5.5h-100q-7 0 -12.5 5.5t-5.5 13.5v450q0 104 74.5 164t205.5 60q121 0 187 -51t66 -142q0 -41 -13.5 -71t-51.5 -62q-5 -4 -5 -8.5t5 -7.5q55 -30 79 -69t24 -92z" />
    <glyph glyph-name="agrave" unicode="&#xe0;" horiz-adv-x="630" 
d="M349 550h-77q-7 0 -12.5 3.5t-11.5 11.5l-65 87q-7 9 -3 18.5t14 9.5h107q7 0 12 -4t9 -13l40 -92q3 -8 -0.5 -14.5t-12.5 -6.5zM441 54q-39 -36 -77 -51.5t-84 -15.5q-103 0 -174.5 76.5t-71.5 187.5t72.5 187.5t175.5 76.5q36 0 67.5 -12t65.5 -39q7 -6 13 -5t6 10v15
q0 8 5.5 13t12.5 5h94q8 0 13.5 -5.5t5.5 -13.5v-331q0 -18 6.5 -27t19.5 -10q7 -1 12 -5.5t5 -10.5v-87q0 -7 -5 -12t-12 -5q-48 0 -79 14t-48 43q-5 8 -10.5 8.5t-12.5 -6.5zM171 251q0 -58 38.5 -99t93.5 -41t93 40.5t38 99.5t-38 99.5t-93 40.5t-93.5 -41t-38.5 -99z
" />
    <glyph glyph-name="aacute" unicode="&#xe1;" horiz-adv-x="630" 
d="M346 550h-76q-9 0 -12.5 6.5t-0.5 14.5l40 92q4 9 9 13t12 4h107q10 0 14 -9t-3 -19l-66 -87q-6 -9 -11.5 -12t-12.5 -3zM441 54q-39 -36 -77 -51.5t-84 -15.5q-103 0 -174.5 76.5t-71.5 187.5t72.5 187.5t175.5 76.5q36 0 67.5 -12t65.5 -39q7 -6 13 -5t6 10v15
q0 8 5.5 13t12.5 5h94q8 0 13.5 -5.5t5.5 -13.5v-331q0 -18 6.5 -27t19.5 -10q7 -1 12 -5.5t5 -10.5v-87q0 -7 -5 -12t-12 -5q-48 0 -79 14t-48 43q-5 8 -10.5 8.5t-12.5 -6.5zM171 251q0 -58 38.5 -99t93.5 -41t93 40.5t38 99.5t-38 99.5t-93 40.5t-93.5 -41t-38.5 -99z
" />
    <glyph glyph-name="acircumflex" unicode="&#xe2;" horiz-adv-x="630" 
d="M247 550h-53q-11 0 -15 9t2 19l49 86q4 7 9.5 11.5t11.5 4.5h113q5 0 11.5 -4.5t10.5 -11.5l49 -86q6 -10 2 -19t-15 -9h-53q-4 0 -8 2t-7 5l-38 42q-2 2 -4 3t-4 1t-3.5 -0.5t-5.5 -3.5l-37 -42q-3 -3 -7 -5t-8 -2zM441 54q-39 -36 -77 -51.5t-84 -15.5
q-103 0 -174.5 76.5t-71.5 187.5t72.5 187.5t175.5 76.5q36 0 67.5 -12t65.5 -39q7 -6 13 -5t6 10v15q0 8 5.5 13t12.5 5h94q8 0 13.5 -5.5t5.5 -13.5v-331q0 -18 6.5 -27t19.5 -10q7 -1 12 -5.5t5 -10.5v-87q0 -7 -5 -12t-12 -5q-48 0 -79 14t-48 43q-5 8 -10.5 8.5
t-12.5 -6.5zM171 251q0 -58 38.5 -99t93.5 -41t93 40.5t38 99.5t-38 99.5t-93 40.5t-93.5 -41t-38.5 -99z" />
    <glyph glyph-name="atilde" unicode="&#xe3;" horiz-adv-x="630" 
d="M442 609q-13 -25 -35.5 -42t-45.5 -17q-11 0 -25.5 3.5t-44.5 15.5q-22 8 -30.5 10.5t-13.5 2.5q-6 0 -12 -3t-17 -14q-8 -8 -12.5 -8t-9.5 5l-24 24q-4 4 -4.5 9.5t2.5 11.5q11 23 34 39t47 16q11 0 26.5 -3.5t46.5 -14.5q20 -7 27.5 -9t11.5 -2q7 0 12.5 3t18.5 17
q6 7 11.5 8t10.5 -4l23 -26q5 -5 5.5 -10.5t-2.5 -11.5zM441 54q-39 -36 -77 -51.5t-84 -15.5q-103 0 -174.5 76.5t-71.5 187.5t72.5 187.5t175.5 76.5q36 0 67.5 -12t65.5 -39q7 -6 13 -5t6 10v15q0 8 5.5 13t12.5 5h94q8 0 13.5 -5.5t5.5 -13.5v-331q0 -18 6.5 -27
t19.5 -10q7 -1 12 -5.5t5 -10.5v-87q0 -7 -5 -12t-12 -5q-48 0 -79 14t-48 43q-5 8 -10.5 8.5t-12.5 -6.5zM171 251q0 -58 38.5 -99t93.5 -41t93 40.5t38 99.5t-38 99.5t-93 40.5t-93.5 -41t-38.5 -99z" />
    <glyph glyph-name="adieresis" unicode="&#xe4;" horiz-adv-x="630" 
d="M295 617q0 -24 -17.5 -42t-41.5 -18q-25 0 -43 18t-18 42t18 41.5t43 17.5q24 0 41.5 -17.5t17.5 -41.5zM440 617q0 -24 -17.5 -42t-41.5 -18t-42 18t-18 42q0 25 17.5 42t42.5 17t42 -17t17 -42zM441 54q-39 -36 -77 -51.5t-84 -15.5q-103 0 -174.5 76.5t-71.5 187.5
t72.5 187.5t175.5 76.5q36 0 67.5 -12t65.5 -39q7 -6 13 -5t6 10v15q0 8 5.5 13t12.5 5h94q8 0 13.5 -5.5t5.5 -13.5v-331q0 -18 6.5 -27t19.5 -10q7 -1 12 -5.5t5 -10.5v-87q0 -7 -5 -12t-12 -5q-48 0 -79 14t-48 43q-5 8 -10.5 8.5t-12.5 -6.5zM171 251q0 -58 38.5 -99
t93.5 -41t93 40.5t38 99.5t-38 99.5t-93 40.5t-93.5 -41t-38.5 -99z" />
    <glyph glyph-name="aring" unicode="&#xe5;" horiz-adv-x="630" 
d="M395 635q0 -35 -25.5 -60t-61.5 -25t-61 25t-25 60q0 36 25 61.5t61 25.5t61.5 -25.5t25.5 -61.5zM274 635q0 -15 10 -25t24 -10q15 0 25 10t10 25t-10 25t-25 10q-14 0 -24 -10t-10 -25zM441 54q-39 -36 -77 -51.5t-84 -15.5q-103 0 -174.5 76.5t-71.5 187.5t72.5 187.5
t175.5 76.5q36 0 67.5 -12t65.5 -39q7 -6 13 -5t6 10v15q0 8 5.5 13t12.5 5h94q8 0 13.5 -5.5t5.5 -13.5v-331q0 -18 6.5 -27t19.5 -10q7 -1 12 -5.5t5 -10.5v-87q0 -7 -5 -12t-12 -5q-48 0 -79 14t-48 43q-5 8 -10.5 8.5t-12.5 -6.5zM171 251q0 -58 38.5 -99t93.5 -41
t93 40.5t38 99.5t-38 99.5t-93 40.5t-93.5 -41t-38.5 -99z" />
    <glyph glyph-name="ae" unicode="&#xe6;" horiz-adv-x="869" 
d="M393 65q-31 -41 -74.5 -59.5t-104.5 -18.5q-88 0 -137.5 40t-49.5 113q0 79 45 117t139 38h116q5 0 8 3.5t3 9.5v20q0 37 -22 58t-62 21q-33 0 -54.5 -11.5t-29.5 -33.5q-4 -10 -8.5 -13t-13.5 -3h-83q-13 0 -19 6t-3 19q9 68 66 106t151 38q48 0 84.5 -13.5t65.5 -42.5
q6 -5 9.5 -5t7.5 4q34 27 75.5 42t83.5 15q111 0 184.5 -76.5t73.5 -191.5q0 -17 -5.5 -25t-17.5 -8h-346q-4 0 -6.5 -3t-1.5 -7q7 -47 39.5 -75.5t78.5 -28.5q30 0 54.5 11t44.5 34q7 8 14.5 12t16.5 4h92q12 0 17 -7.5t1 -19.5q-26 -66 -92 -106.5t-149 -40.5
q-55 0 -103 21t-77 57q-2 3 -5 3t-6 -3zM470 305q-2 -4 -0.5 -7t6.5 -3h215q5 0 6.5 2.5t0.5 6.5q-10 43 -41.5 69.5t-71.5 26.5q-41 0 -72.5 -26.5t-42.5 -68.5zM163 155q0 -30 21.5 -47.5t59.5 -17.5q43 0 68 24.5t25 63.5v24q0 6 -2.5 9t-7.5 3h-84q-39 0 -59.5 -15
t-20.5 -44z" />
    <glyph glyph-name="ccedilla" unicode="&#xe7;" horiz-adv-x="570" 
d="M321 -42q33 -2 52 -21t19 -49q0 -38 -32.5 -61t-83.5 -23q-24 0 -46.5 3t-35.5 9q-17 7 -11.5 32t24.5 21q28 -6 40.5 -7.5t26.5 -1.5q21 0 32.5 6.5t11.5 18.5q0 11 -9 17.5t-24 6.5q-9 0 -18 -1.5t-21 -4.5q-21 -5 -29.5 14.5t5.5 33.5l38 34q3 3 2.5 5t-5.5 3
q-97 14 -160 86.5t-63 171.5q0 111 76 186t188 75q88 0 152 -43.5t92 -122.5q4 -10 0.5 -16.5t-13.5 -6.5h-104q-8 0 -14.5 3.5t-13.5 13.5q-17 21 -43 33t-55 12q-54 0 -90.5 -38.5t-36.5 -95.5t36.5 -95.5t90.5 -38.5q32 0 59 12.5t44 35.5q7 9 13 12.5t14 3.5h95
q14 0 19.5 -5.5t1.5 -17.5q-20 -64 -71.5 -107t-121.5 -56q-12 -3 -14.5 -4.5t-5.5 -4.5l-16 -18q-4 -5 -2.5 -7.5t7.5 -2.5z" />
    <glyph glyph-name="egrave" unicode="&#xe8;" horiz-adv-x="588" 
d="M336 550h-77q-7 0 -12.5 3.5t-11.5 11.5l-65 87q-7 9 -3 18.5t14 9.5h107q7 0 12 -4t9 -13l40 -92q3 -8 -0.5 -14.5t-12.5 -6.5zM534 134q-25 -66 -91.5 -106.5t-148.5 -40.5q-113 0 -186.5 74t-73.5 188t75 190t187 76q111 0 184.5 -76.5t73.5 -191.5q0 -17 -5.5 -25
t-17.5 -8h-344q-6 0 -9 -3.5t-2 -9.5q5 -43 39.5 -71t82.5 -28q28 0 52.5 11t42.5 32q8 9 15.5 12.5t16.5 3.5h92q12 0 16.5 -7.5t0.5 -19.5zM180 309q-2 -7 0 -10.5t8 -3.5h211q5 0 7.5 2.5t1.5 8.5q-8 41 -40 67.5t-74 26.5q-40 0 -72 -25.5t-42 -65.5z" />
    <glyph glyph-name="eacute" unicode="&#xe9;" horiz-adv-x="588" 
d="M333 550h-76q-9 0 -12.5 6.5t-0.5 14.5l40 92q4 9 9 13t12 4h107q10 0 14 -9t-3 -19l-66 -87q-6 -9 -11.5 -12t-12.5 -3zM534 134q-25 -66 -91.5 -106.5t-148.5 -40.5q-113 0 -186.5 74t-73.5 188t75 190t187 76q111 0 184.5 -76.5t73.5 -191.5q0 -17 -5.5 -25t-17.5 -8
h-344q-6 0 -9 -3.5t-2 -9.5q5 -43 39.5 -71t82.5 -28q28 0 52.5 11t42.5 32q8 9 15.5 12.5t16.5 3.5h92q12 0 16.5 -7.5t0.5 -19.5zM180 309q-2 -7 0 -10.5t8 -3.5h211q5 0 7.5 2.5t1.5 8.5q-8 41 -40 67.5t-74 26.5q-40 0 -72 -25.5t-42 -65.5z" />
    <glyph glyph-name="ecircumflex" unicode="&#xea;" horiz-adv-x="588" 
d="M235 550h-53q-11 0 -15 9t2 19l49 86q4 7 9.5 11.5t11.5 4.5h113q5 0 11.5 -4.5t10.5 -11.5l49 -86q6 -10 2 -19t-15 -9h-53q-4 0 -8 2t-7 5l-38 42q-2 2 -4 3t-4 1t-3.5 -0.5t-5.5 -3.5l-37 -42q-3 -3 -7 -5t-8 -2zM534 134q-25 -66 -91.5 -106.5t-148.5 -40.5
q-113 0 -186.5 74t-73.5 188t75 190t187 76q111 0 184.5 -76.5t73.5 -191.5q0 -17 -5.5 -25t-17.5 -8h-344q-6 0 -9 -3.5t-2 -9.5q5 -43 39.5 -71t82.5 -28q28 0 52.5 11t42.5 32q8 9 15.5 12.5t16.5 3.5h92q12 0 16.5 -7.5t0.5 -19.5zM180 309q-2 -7 0 -10.5t8 -3.5h211
q5 0 7.5 2.5t1.5 8.5q-8 41 -40 67.5t-74 26.5q-40 0 -72 -25.5t-42 -65.5z" />
    <glyph glyph-name="edieresis" unicode="&#xeb;" horiz-adv-x="588" 
d="M282 617q0 -24 -17.5 -42t-41.5 -18q-25 0 -43 18t-18 42t18 41.5t43 17.5q24 0 41.5 -17.5t17.5 -41.5zM427 617q0 -24 -17.5 -42t-41.5 -18t-42 18t-18 42q0 25 17.5 42t42.5 17t42 -17t17 -42zM534 134q-25 -66 -91.5 -106.5t-148.5 -40.5q-113 0 -186.5 74t-73.5 188
t75 190t187 76q111 0 184.5 -76.5t73.5 -191.5q0 -17 -5.5 -25t-17.5 -8h-344q-6 0 -9 -3.5t-2 -9.5q5 -43 39.5 -71t82.5 -28q28 0 52.5 11t42.5 32q8 9 15.5 12.5t16.5 3.5h92q12 0 16.5 -7.5t0.5 -19.5zM180 309q-2 -7 0 -10.5t8 -3.5h211q5 0 7.5 2.5t1.5 8.5
q-8 41 -40 67.5t-74 26.5q-40 0 -72 -25.5t-42 -65.5z" />
    <glyph glyph-name="igrave" unicode="&#xec;" horiz-adv-x="246" 
d="M163 550h-77q-7 0 -12.5 3.5t-11.5 11.5l-65 87q-7 9 -3 18.5t14 9.5h107q7 0 12 -4t9 -13l40 -92q3 -8 -0.5 -14.5t-12.5 -6.5zM172 0h-99q-7 0 -12.5 5.5t-5.5 13.5v464q0 8 5.5 13.5t12.5 5.5h99q8 0 13.5 -5.5t5.5 -13.5v-464q0 -7 -5.5 -13t-13.5 -6z" />
    <glyph glyph-name="iacute" unicode="&#xed;" horiz-adv-x="246" 
d="M160 550h-76q-9 0 -12.5 6.5t-0.5 14.5l40 92q4 9 9 13t12 4h107q10 0 14 -9t-3 -19l-66 -87q-6 -9 -11.5 -12t-12.5 -3zM172 0h-99q-7 0 -12.5 5.5t-5.5 13.5v464q0 8 5.5 13.5t12.5 5.5h99q8 0 13.5 -5.5t5.5 -13.5v-464q0 -7 -5.5 -13t-13.5 -6z" />
    <glyph glyph-name="icircumflex" unicode="&#xee;" horiz-adv-x="246" 
d="M61 550h-53q-11 0 -15 9t2 19l49 86q4 7 9.5 11.5t11.5 4.5h113q5 0 11.5 -4.5t10.5 -11.5l49 -86q6 -10 2 -19t-15 -9h-53q-4 0 -8 2t-7 5l-38 42q-2 2 -4 3t-4 1t-3.5 -0.5t-5.5 -3.5l-37 -42q-3 -3 -7 -5t-8 -2zM171 0h-99q-7 0 -12.5 5.5t-5.5 13.5v464q0 8 5.5 13.5
t12.5 5.5h99q8 0 13.5 -5.5t5.5 -13.5v-464q0 -7 -5.5 -13t-13.5 -6z" />
    <glyph glyph-name="idieresis" unicode="&#xef;" horiz-adv-x="246" 
d="M109 617q0 -24 -17.5 -42t-41.5 -18q-25 0 -43 18t-18 42t18 41.5t43 17.5q24 0 41.5 -17.5t17.5 -41.5zM254 617q0 -24 -17.5 -42t-41.5 -18t-42 18t-18 42q0 25 17.5 42t42.5 17t42 -17t17 -42zM172 0h-99q-7 0 -12.5 5.5t-5.5 13.5v464q0 8 5.5 13.5t12.5 5.5h99
q8 0 13.5 -5.5t5.5 -13.5v-464q0 -7 -5.5 -13t-13.5 -6z" />
    <glyph glyph-name="eth" unicode="&#xf0;" horiz-adv-x="605" 
d="M571 254q0 -113 -77 -190t-192 -77q-114 0 -191 76t-77 188t76.5 186.5t191.5 74.5q6 0 12 -0.5t16 -1.5q5 -1 6.5 1.5t-1.5 6.5l-14 16t-14 15t-12.5 8.5t-12.5 -1.5l-58 -23q-8 -3 -15.5 -1t-9.5 8l-10 27q-3 8 -0.5 15.5t9.5 10.5l35 14q8 3 9.5 7t-3.5 10q-2 3 -5 6
t-8 9q-6 6 -8.5 9t-4.5 6q-8 10 -4.5 18t16.5 8h98q10 0 18 -3.5t13 -9.5l5 -6q4 -5 9 -5.5t14 2.5l35 13q8 3 16 1t10 -9l8 -26q3 -7 0.5 -14.5t-9.5 -10.5l-18 -7q-6 -2 -7 -7t3 -10q76 -94 113.5 -177.5t37.5 -156.5zM170 251q0 -58 39 -99t93 -41q55 0 93.5 41t38.5 99
t-38.5 97.5t-93.5 39.5t-93.5 -40t-38.5 -97z" />
    <glyph glyph-name="ntilde" unicode="&#xf1;" horiz-adv-x="578" 
d="M432 609q-13 -25 -35.5 -42t-45.5 -17q-11 0 -25.5 3.5t-44.5 15.5q-22 8 -30.5 10.5t-13.5 2.5q-6 0 -12 -3t-17 -14q-8 -8 -12.5 -8t-9.5 5l-24 24q-4 4 -4.5 9.5t2.5 11.5q11 23 34 39t47 16q11 0 26.5 -3.5t46.5 -14.5q20 -7 27.5 -9t11.5 -2q7 0 12.5 3t18.5 17
q6 7 11.5 8t10.5 -4l23 -26q5 -5 5.5 -10.5t-2.5 -11.5zM172 0h-99q-7 0 -12.5 5.5t-5.5 13.5v464q0 8 5.5 13.5t12.5 5.5h95q8 0 13.5 -5.5t5.5 -13.5v-10q0 -11 6.5 -13.5t15.5 5.5q37 27 68 38.5t62 11.5q81 0 132.5 -56t51.5 -143v-297q0 -7 -5.5 -13t-13.5 -6h-99
q-7 0 -12.5 5.5t-5.5 13.5v273q0 47 -26.5 76t-69.5 29q-42 0 -71 -30.5t-29 -72.5v-275q0 -7 -5.5 -13t-13.5 -6z" />
    <glyph glyph-name="ograve" unicode="&#xf2;" horiz-adv-x="605" 
d="M341 550h-77q-7 0 -12.5 3.5t-11.5 11.5l-65 87q-7 9 -3 18.5t14 9.5h107q7 0 12 -4t9 -13l40 -92q3 -8 -0.5 -14.5t-12.5 -6.5zM570 251q0 -112 -76.5 -188t-191.5 -76q-114 0 -191 76t-77 188t76.5 188t191.5 76t191.5 -75.5t76.5 -188.5zM170 251q0 -58 39 -99t93 -41
q55 0 93.5 41t38.5 99t-38.5 99t-93.5 41q-54 0 -93 -41t-39 -99z" />
    <glyph glyph-name="oacute" unicode="&#xf3;" horiz-adv-x="605" 
d="M338 550h-76q-9 0 -12.5 6.5t-0.5 14.5l40 92q4 9 9 13t12 4h107q10 0 14 -9t-3 -19l-66 -87q-6 -9 -11.5 -12t-12.5 -3zM570 251q0 -112 -76.5 -188t-191.5 -76q-114 0 -191 76t-77 188t76.5 188t191.5 76t191.5 -75.5t76.5 -188.5zM170 251q0 -58 39 -99t93 -41
q55 0 93.5 41t38.5 99t-38.5 99t-93.5 41q-54 0 -93 -41t-39 -99z" />
    <glyph glyph-name="ocircumflex" unicode="&#xf4;" horiz-adv-x="605" 
d="M240 550h-53q-11 0 -15 9t2 19l49 86q4 7 9.5 11.5t11.5 4.5h113q5 0 11.5 -4.5t10.5 -11.5l49 -86q6 -10 2 -19t-15 -9h-53q-4 0 -8 2t-7 5l-38 42q-2 2 -4 3t-4 1t-3.5 -0.5t-5.5 -3.5l-37 -42q-3 -3 -7 -5t-8 -2zM570 251q0 -112 -76.5 -188t-191.5 -76
q-114 0 -191 76t-77 188t76.5 188t191.5 76t191.5 -75.5t76.5 -188.5zM170 251q0 -58 39 -99t93 -41q55 0 93.5 41t38.5 99t-38.5 99t-93.5 41q-54 0 -93 -41t-39 -99z" />
    <glyph glyph-name="otilde" unicode="&#xf5;" horiz-adv-x="605" 
d="M435 609q-13 -25 -35.5 -42t-45.5 -17q-11 0 -25.5 3.5t-44.5 15.5q-22 8 -30.5 10.5t-13.5 2.5q-6 0 -12 -3t-17 -14q-8 -8 -12.5 -8t-9.5 5l-24 24q-4 4 -4.5 9.5t2.5 11.5q11 23 34 39t47 16q11 0 26.5 -3.5t46.5 -14.5q20 -7 27.5 -9t11.5 -2q7 0 12.5 3t18.5 17
q6 7 11.5 8t10.5 -4l23 -26q5 -5 5.5 -10.5t-2.5 -11.5zM570 251q0 -112 -76.5 -188t-191.5 -76q-114 0 -191 76t-77 188t76.5 188t191.5 76t191.5 -75.5t76.5 -188.5zM170 251q0 -58 39 -99t93 -41q55 0 93.5 41t38.5 99t-38.5 99t-93.5 41q-54 0 -93 -41t-39 -99z" />
    <glyph glyph-name="odieresis" unicode="&#xf6;" horiz-adv-x="605" 
d="M287 617q0 -24 -17.5 -42t-41.5 -18q-25 0 -43 18t-18 42t18 41.5t43 17.5q24 0 41.5 -17.5t17.5 -41.5zM432 617q0 -24 -17.5 -42t-41.5 -18t-42 18t-18 42q0 25 17.5 42t42.5 17t42 -17t17 -42zM570 251q0 -112 -76.5 -188t-191.5 -76q-114 0 -191 76t-77 188t76.5 188
t191.5 76t191.5 -75.5t76.5 -188.5zM170 251q0 -58 39 -99t93 -41q55 0 93.5 41t38.5 99t-38.5 99t-93.5 41q-54 0 -93 -41t-39 -99z" />
    <glyph glyph-name="divide" unicode="&#xf7;" 
d="M382 446q0 -30 -21 -51t-51 -21q-29 0 -50.5 21.5t-21.5 50.5t21.5 50.5t50.5 21.5q30 0 51 -21t21 -51zM534 202h-448q-7 0 -12.5 5.5t-5.5 13.5v78q0 8 5.5 13.5t12.5 5.5h448q8 0 13.5 -5.5t5.5 -13.5v-78q0 -7 -5.5 -13t-13.5 -6zM382 74q0 -29 -21 -50t-51 -21
q-29 0 -50.5 21t-21.5 50q0 30 21.5 51.5t50.5 21.5q30 0 51 -21.5t21 -51.5z" />
    <glyph glyph-name="oslash" unicode="&#xf8;" horiz-adv-x="605" 
d="M131 -40h-51q-10 0 -13.5 8t2.5 17l38 53q8 10 8 16.5t-8 13.5q-35 35 -54 82.5t-19 100.5q0 112 76.5 188t191.5 76q25 0 50.5 -4.5t49.5 -13.5q16 -6 23 -5t12 7l25 34q5 6 9 8t10 2h50q10 0 13 -8t-3 -17l-43 -59q-5 -7 -4.5 -14t10.5 -19q32 -35 49 -80t17 -95
q0 -112 -76.5 -188t-191.5 -76q-25 0 -50.5 5t-52.5 14q-13 4 -18.5 3t-9.5 -7l-23 -32q-4 -5 -8 -7.5t-9 -2.5zM170 251q0 -21 4 -37t12 -30q5 -9 12 -8.5t14 9.5l124 172q7 10 5.5 17.5t-10.5 11.5q-7 2 -14.5 3.5t-14.5 1.5q-54 0 -93 -41t-39 -99zM278 114q4 -2 9 -2.5
t15 -0.5q55 0 93.5 41t38.5 99q0 18 -3.5 33t-10.5 28q-5 10 -11.5 9.5t-14.5 -10.5l-122 -168q-8 -10 -6 -17.5t12 -11.5z" />
    <glyph glyph-name="ugrave" unicode="&#xf9;" horiz-adv-x="592" 
d="M330 550h-77q-7 0 -12.5 3.5t-11.5 11.5l-65 87q-7 9 -3 18.5t14 9.5h107q7 0 12 -4t9 -13l40 -92q3 -8 -0.5 -14.5t-12.5 -6.5zM395 54q-28 -33 -65 -50t-82 -17q-86 0 -139.5 55t-53.5 143v298q0 8 6 13.5t13 5.5h99q7 0 12.5 -5.5t5.5 -13.5v-274q0 -46 26.5 -74.5
t68.5 -28.5t73.5 30.5t31.5 72.5v274q0 8 5.5 13.5t12.5 5.5h99q8 0 13.5 -5.5t5.5 -13.5v-331q0 -19 6 -27.5t20 -9.5q7 -1 12 -5.5t5 -10.5v-87q0 -7 -5 -12t-12 -5q-49 0 -82 14t-52 43q-6 9 -11.5 9.5t-12.5 -7.5z" />
    <glyph glyph-name="uacute" unicode="&#xfa;" horiz-adv-x="592" 
d="M326 550h-76q-9 0 -12.5 6.5t-0.5 14.5l40 92q4 9 9 13t12 4h107q10 0 14 -9t-3 -19l-66 -87q-6 -9 -11.5 -12t-12.5 -3zM395 54q-28 -33 -65 -50t-82 -17q-86 0 -139.5 55t-53.5 143v298q0 8 6 13.5t13 5.5h99q7 0 12.5 -5.5t5.5 -13.5v-274q0 -46 26.5 -74.5
t68.5 -28.5t73.5 30.5t31.5 72.5v274q0 8 5.5 13.5t12.5 5.5h99q8 0 13.5 -5.5t5.5 -13.5v-331q0 -19 6 -27.5t20 -9.5q7 -1 12 -5.5t5 -10.5v-87q0 -7 -5 -12t-12 -5q-49 0 -82 14t-52 43q-6 9 -11.5 9.5t-12.5 -7.5z" />
    <glyph glyph-name="ucircumflex" unicode="&#xfb;" horiz-adv-x="592" 
d="M228 550h-53q-11 0 -15 9t2 19l49 86q4 7 9.5 11.5t11.5 4.5h113q5 0 11.5 -4.5t10.5 -11.5l49 -86q6 -10 2 -19t-15 -9h-53q-4 0 -8 2t-7 5l-38 42q-2 2 -4 3t-4 1t-3.5 -0.5t-5.5 -3.5l-37 -42q-3 -3 -7 -5t-8 -2zM395 54q-28 -33 -65 -50t-82 -17q-86 0 -139.5 55
t-53.5 143v298q0 8 6 13.5t13 5.5h99q7 0 12.5 -5.5t5.5 -13.5v-274q0 -46 26.5 -74.5t68.5 -28.5t73.5 30.5t31.5 72.5v274q0 8 5.5 13.5t12.5 5.5h99q8 0 13.5 -5.5t5.5 -13.5v-331q0 -19 6 -27.5t20 -9.5q7 -1 12 -5.5t5 -10.5v-87q0 -7 -5 -12t-12 -5q-49 0 -82 14
t-52 43q-6 9 -11.5 9.5t-12.5 -7.5z" />
    <glyph glyph-name="udieresis" unicode="&#xfc;" horiz-adv-x="592" 
d="M275 617q0 -24 -17.5 -42t-41.5 -18q-25 0 -43 18t-18 42t18 41.5t43 17.5q24 0 41.5 -17.5t17.5 -41.5zM420 617q0 -24 -17.5 -42t-41.5 -18t-42 18t-18 42q0 25 17.5 42t42.5 17t42 -17t17 -42zM395 54q-28 -33 -65 -50t-82 -17q-86 0 -139.5 55t-53.5 143v298
q0 8 6 13.5t13 5.5h99q7 0 12.5 -5.5t5.5 -13.5v-274q0 -46 26.5 -74.5t68.5 -28.5t73.5 30.5t31.5 72.5v274q0 8 5.5 13.5t12.5 5.5h99q8 0 13.5 -5.5t5.5 -13.5v-331q0 -19 6 -27.5t20 -9.5q7 -1 12 -5.5t5 -10.5v-87q0 -7 -5 -12t-12 -5q-49 0 -82 14t-52 43
q-6 9 -11.5 9.5t-12.5 -7.5z" />
    <glyph glyph-name="yacute" unicode="&#xfd;" horiz-adv-x="530" 
d="M295 550h-76q-9 0 -12.5 6.5t-0.5 14.5l40 92q4 9 9 13t12 4h107q10 0 14 -9t-3 -19l-66 -87q-6 -9 -11.5 -12t-12.5 -3zM48 -195q-7 0 -13 5.5t-6 13.5v81q0 7 5.5 12.5t13.5 5.5q53 0 93.5 26.5t50.5 69.5q3 10 2 19t-6 21l-184 416q-4 11 1 19t15 8h99q6 0 11 -4.5
t9 -13.5l115 -266q7 -16 15 -15.5t15 16.5l110 267q3 9 7.5 12.5t11.5 3.5h95q10 0 15.5 -7.5t1.5 -16.5l-189 -449q-53 -125 -117 -174.5t-171 -49.5z" />
    <glyph glyph-name="thorn" unicode="&#xfe;" horiz-adv-x="620" 
d="M173 -189h-99q-7 0 -13 5.5t-6 13.5v831q0 8 6 13.5t13 5.5h99q7 0 12.5 -5.5t5.5 -13.5v-189q0 -10 6 -12t14 5q28 24 62.5 37t72.5 13q101 0 171 -76.5t70 -187.5q0 -110 -70.5 -187t-171.5 -77q-35 0 -70 13t-64 36q-8 7 -14 4t-6 -14v-196q0 -8 -5.5 -13.5
t-12.5 -5.5zM187 251q0 -59 38 -99.5t93 -40.5t94 41t39 99q0 59 -39 99.5t-94 40.5t-93 -40.5t-38 -99.5z" />
    <glyph glyph-name="ydieresis" unicode="&#xff;" horiz-adv-x="530" 
d="M248 617q0 -24 -17.5 -42t-41.5 -18q-25 0 -43 18t-18 42t18 41.5t43 17.5q24 0 41.5 -17.5t17.5 -41.5zM393 617q0 -24 -17.5 -42t-41.5 -18t-42 18t-18 42q0 25 17.5 42t42.5 17t42 -17t17 -42zM48 -195q-7 0 -13 5.5t-6 13.5v81q0 7 5.5 12.5t13.5 5.5q53 0 93.5 26.5
t50.5 69.5q3 10 2 19t-6 21l-184 416q-4 11 1 19t15 8h99q6 0 11 -4.5t9 -13.5l115 -266q7 -16 15 -15.5t15 16.5l110 267q3 9 7.5 12.5t11.5 3.5h95q10 0 15.5 -7.5t1.5 -16.5l-189 -449q-53 -125 -117 -174.5t-171 -49.5z" />
    <glyph glyph-name="Amacron" unicode="&#x100;" horiz-adv-x="688" 
d="M453 742h-221q-7 0 -12.5 5.5t-5.5 12.5v50q0 8 5.5 13.5t12.5 5.5h221q8 0 13.5 -5.5t5.5 -13.5v-50q0 -7 -5.5 -12.5t-13.5 -5.5zM124 0h-106q-10 0 -14.5 7t-0.5 18l274 639q4 8 9 12t11 4h102q6 0 10.5 -4t8.5 -13l267 -639q4 -9 -0.5 -16.5t-13.5 -7.5h-113
q-7 0 -12 4t-8 12l-49 120q-3 7 -8 10t-13 3h-256q-7 0 -11.5 -3t-7.5 -9l-50 -121q-3 -8 -8 -12t-11 -4zM256 255h173q6 0 8 4t0 10l-85 211q-3 8 -9 8t-9 -8l-87 -211q-3 -6 -0.5 -10t9.5 -4z" />
    <glyph glyph-name="amacron" unicode="&#x101;" horiz-adv-x="630" 
d="M418 566h-221q-7 0 -12.5 5.5t-5.5 12.5v50q0 8 5.5 13.5t12.5 5.5h221q8 0 13.5 -5.5t5.5 -13.5v-50q0 -7 -5.5 -12.5t-13.5 -5.5zM441 54q-39 -36 -77 -51.5t-84 -15.5q-103 0 -174.5 76.5t-71.5 187.5t72.5 187.5t175.5 76.5q36 0 67.5 -12t65.5 -39q7 -6 13 -5t6 10
v15q0 8 5.5 13t12.5 5h94q8 0 13.5 -5.5t5.5 -13.5v-331q0 -18 6.5 -27t19.5 -10q7 -1 12 -5.5t5 -10.5v-87q0 -7 -5 -12t-12 -5q-48 0 -79 14t-48 43q-5 8 -10.5 8.5t-12.5 -6.5zM171 251q0 -58 38.5 -99t93.5 -41t93 40.5t38 99.5t-38 99.5t-93 40.5t-93.5 -41t-38.5 -99z
" />
    <glyph glyph-name="Abreve" unicode="&#x102;" horiz-adv-x="688" 
d="M474 835q0 -47 -35.5 -78t-95.5 -31q-59 0 -94.5 31t-35.5 78q0 9 4.5 15t12.5 6h48q8 0 13 -4.5t7 -13.5q4 -19 15.5 -28t29.5 -9q19 0 29.5 9t15.5 28q2 9 7 13.5t13 4.5h48q8 0 13 -6t5 -15zM124 0h-106q-10 0 -14.5 7t-0.5 18l274 639q4 8 9 12t11 4h102q6 0 10.5 -4
t8.5 -13l267 -639q4 -9 -0.5 -16.5t-13.5 -7.5h-113q-7 0 -12 4t-8 12l-49 120q-3 7 -8 10t-13 3h-256q-7 0 -11.5 -3t-7.5 -9l-50 -121q-3 -8 -8 -12t-11 -4zM256 255h173q6 0 8 4t0 10l-85 211q-3 8 -9 8t-9 -8l-87 -211q-3 -6 -0.5 -10t9.5 -4z" />
    <glyph glyph-name="abreve" unicode="&#x103;" horiz-adv-x="630" 
d="M439 659q0 -47 -35.5 -78t-95.5 -31q-59 0 -94.5 31t-35.5 78q0 9 4.5 15t12.5 6h48q8 0 13 -4.5t7 -13.5q4 -19 15.5 -28t29.5 -9q19 0 29.5 9t15.5 28q2 9 7 13.5t13 4.5h48q8 0 13 -6t5 -15zM441 54q-39 -36 -77 -51.5t-84 -15.5q-103 0 -174.5 76.5t-71.5 187.5
t72.5 187.5t175.5 76.5q36 0 67.5 -12t65.5 -39q7 -6 13 -5t6 10v15q0 8 5.5 13t12.5 5h94q8 0 13.5 -5.5t5.5 -13.5v-331q0 -18 6.5 -27t19.5 -10q7 -1 12 -5.5t5 -10.5v-87q0 -7 -5 -12t-12 -5q-48 0 -79 14t-48 43q-5 8 -10.5 8.5t-12.5 -6.5zM171 251q0 -58 38.5 -99
t93.5 -41t93 40.5t38 99.5t-38 99.5t-93 40.5t-93.5 -41t-38.5 -99z" />
    <glyph glyph-name="Aogonek" unicode="&#x104;" horiz-adv-x="688" 
d="M647 -188q-13 -3 -29 -5t-33 -2q-48 0 -74 19.5t-26 54.5q0 24 10 46t33 48q9 11 11.5 21t-1.5 22l-49 120q-3 7 -8 10t-13 3h-256q-7 0 -11.5 -3t-7.5 -9l-50 -121q-3 -8 -8 -12t-11 -4h-106q-10 0 -14.5 7t-0.5 18l274 639q4 8 9 12t11 4h102q6 0 10.5 -4t8.5 -13
l267 -639q3 -10 1 -17t-9 -8q-34 -12 -65 -44t-31 -55q0 -12 7.5 -18.5t21.5 -6.5q5 0 11.5 0.5t21.5 2.5q10 1 15 -3.5t5 -15.5v-28q0 -8 -4 -12.5t-12 -6.5zM256 255h173q6 0 8 4t0 10l-85 211q-4 8 -9 8t-9 -8l-87 -211q-2 -6 0.5 -10t8.5 -4z" />
    <glyph glyph-name="aogonek" unicode="&#x105;" horiz-adv-x="630" 
d="M591 -189q-12 -3 -30 -5t-35 -2q-47 0 -73 19.5t-26 54.5q0 25 20.5 55t58.5 61q7 5 6.5 9t-7.5 9q-16 10 -25.5 20t-15.5 20q-4 8 -9.5 8.5t-13.5 -6.5q-36 -35 -74.5 -51t-86.5 -16q-103 0 -174.5 76.5t-71.5 187.5t72.5 187.5t175.5 76.5q36 0 67.5 -12t65.5 -39
q7 -6 13 -5t6 10v15q0 8 5.5 13t12.5 5h94q8 0 13.5 -5.5t5.5 -13.5v-331q0 -18 6.5 -27t19.5 -10q7 -1 12 -5.5t5 -10.5v-87q0 -6 -1.5 -9t-4.5 -6q-40 -33 -60 -57t-20 -40q0 -12 7.5 -18.5t21.5 -6.5q6 0 16 1l20 2t15 -3.5t5 -15.5v-29q0 -8 -4 -12.5t-12 -6.5zM171 251
q0 -58 38.5 -99t93.5 -41t93 40.5t38 99.5t-38 99.5t-93 40.5t-93.5 -41t-38.5 -99z" />
    <glyph glyph-name="Cacute" unicode="&#x106;" horiz-adv-x="745" 
d="M438 726h-76q-9 0 -12.5 6.5t-0.5 14.5l40 92q4 9 9 13t12 4h107q10 0 14 -9t-3 -19l-66 -87q-6 -9 -11.5 -12t-12.5 -3zM722 185q-41 -90 -128.5 -144t-193.5 -54q-150 0 -253.5 101.5t-103.5 249.5t104.5 251.5t252.5 103.5q103 0 191 -54.5t130 -143.5
q6 -13 1.5 -21.5t-18.5 -8.5h-108q-12 0 -19 3.5t-15 13.5q-30 38 -72 59.5t-90 21.5q-87 0 -147.5 -65t-60.5 -158t60.5 -158t147.5 -65q47 0 90.5 22.5t74.5 61.5q8 9 15.5 12.5t19.5 3.5h106q14 0 18.5 -9t-2.5 -23z" />
    <glyph glyph-name="cacute" unicode="&#x107;" horiz-adv-x="570" 
d="M329 550h-76q-9 0 -12.5 6.5t-0.5 14.5l40 92q4 9 9 13t12 4h107q10 0 14 -9t-3 -19l-66 -87q-6 -9 -11.5 -12t-12.5 -3zM545 158q-24 -77 -91.5 -124t-155.5 -47q-112 0 -188 76t-76 188t76 188t188 76q86 0 150.5 -44.5t93.5 -124.5q4 -10 0.5 -16.5t-13.5 -6.5h-104
q-8 0 -14.5 3.5t-13.5 13.5q-17 22 -43.5 35t-54.5 13q-54 0 -90.5 -39.5t-36.5 -97.5q0 -57 36.5 -97t90.5 -40q31 0 58 13.5t45 37.5q7 9 13 12.5t14 3.5h95q14 0 19.5 -5.5t1.5 -17.5z" />
    <glyph glyph-name="Ccircumflex" unicode="&#x108;" horiz-adv-x="745" 
d="M339 726h-53q-11 0 -15 9t2 19l49 86q4 7 9.5 11.5t11.5 4.5h113q5 0 11.5 -4.5t10.5 -11.5l49 -86q6 -10 2 -19t-15 -9h-53q-4 0 -8 2t-7 5l-38 42q-2 2 -4 3t-4 1t-3.5 -0.5t-5.5 -3.5l-37 -42q-3 -3 -7 -5t-8 -2zM722 185q-41 -90 -128.5 -144t-193.5 -54
q-150 0 -253.5 101.5t-103.5 249.5t104.5 251.5t252.5 103.5q103 0 191 -54.5t130 -143.5q6 -13 1.5 -21.5t-18.5 -8.5h-108q-12 0 -19 3.5t-15 13.5q-30 38 -72 59.5t-90 21.5q-87 0 -147.5 -65t-60.5 -158t60.5 -158t147.5 -65q47 0 90.5 22.5t74.5 61.5q8 9 15.5 12.5
t19.5 3.5h106q14 0 18.5 -9t-2.5 -23z" />
    <glyph glyph-name="ccircumflex" unicode="&#x109;" horiz-adv-x="570" 
d="M231 550h-53q-11 0 -15 9t2 19l49 86q4 7 9.5 11.5t11.5 4.5h113q5 0 11.5 -4.5t10.5 -11.5l49 -86q6 -10 2 -19t-15 -9h-53q-4 0 -8 2t-7 5l-38 42q-2 2 -4 3t-4 1t-3.5 -0.5t-5.5 -3.5l-37 -42q-3 -3 -7 -5t-8 -2zM545 158q-24 -77 -91.5 -124t-155.5 -47
q-112 0 -188 76t-76 188t76 188t188 76q86 0 150.5 -44.5t93.5 -124.5q4 -10 0.5 -16.5t-13.5 -6.5h-104q-8 0 -14.5 3.5t-13.5 13.5q-17 22 -43.5 35t-54.5 13q-54 0 -90.5 -39.5t-36.5 -97.5q0 -57 36.5 -97t90.5 -40q31 0 58 13.5t45 37.5q7 9 13 12.5t14 3.5h95
q14 0 19.5 -5.5t1.5 -17.5z" />
    <glyph glyph-name="Cdotaccent" unicode="&#x10a;" horiz-adv-x="745" 
d="M461 793q0 -25 -18 -43.5t-43 -18.5t-43.5 18.5t-18.5 43.5q0 26 18.5 44t43.5 18t43 -18.5t18 -43.5zM722 185q-41 -90 -128.5 -144t-193.5 -54q-150 0 -253.5 101.5t-103.5 249.5t104.5 251.5t252.5 103.5q103 0 191 -54.5t130 -143.5q6 -13 1.5 -21.5t-18.5 -8.5h-108
q-12 0 -19 3.5t-15 13.5q-30 38 -72 59.5t-90 21.5q-87 0 -147.5 -65t-60.5 -158t60.5 -158t147.5 -65q47 0 90.5 22.5t74.5 61.5q8 9 15.5 12.5t19.5 3.5h106q14 0 18.5 -9t-2.5 -23z" />
    <glyph glyph-name="cdotaccent" unicode="&#x10b;" horiz-adv-x="570" 
d="M353 617q0 -25 -18 -43.5t-43 -18.5t-43.5 18.5t-18.5 43.5q0 26 18.5 44t43.5 18t43 -18.5t18 -43.5zM545 158q-24 -77 -91.5 -124t-155.5 -47q-112 0 -188 76t-76 188t76 188t188 76q86 0 150.5 -44.5t93.5 -124.5q4 -10 0.5 -16.5t-13.5 -6.5h-104q-8 0 -14.5 3.5
t-13.5 13.5q-17 22 -43.5 35t-54.5 13q-54 0 -90.5 -39.5t-36.5 -97.5q0 -57 36.5 -97t90.5 -40q31 0 58 13.5t45 37.5q7 9 13 12.5t14 3.5h95q14 0 19.5 -5.5t1.5 -17.5z" />
    <glyph glyph-name="Ccaron" unicode="&#x10c;" horiz-adv-x="745" 
d="M456 726h-113q-6 0 -11.5 4t-9.5 11l-49 86q-6 11 -2 20t15 9h53q5 0 8.5 -2t6.5 -6l37 -42q4 -3 5.5 -3.5t3.5 -0.5t4 1t4 3l38 42q3 4 6.5 6t8.5 2h53q11 0 15 -9t-2 -20l-49 -86q-4 -6 -10 -10.5t-12 -4.5zM722 185q-41 -90 -128.5 -144t-193.5 -54
q-150 0 -253.5 101.5t-103.5 249.5t104.5 251.5t252.5 103.5q103 0 191 -54.5t130 -143.5q6 -13 1.5 -21.5t-18.5 -8.5h-108q-12 0 -19 3.5t-15 13.5q-30 38 -72 59.5t-90 21.5q-87 0 -147.5 -65t-60.5 -158t60.5 -158t147.5 -65q47 0 90.5 22.5t74.5 61.5q8 9 15.5 12.5
t19.5 3.5h106q14 0 18.5 -9t-2.5 -23z" />
    <glyph glyph-name="ccaron" unicode="&#x10d;" horiz-adv-x="570" 
d="M348 550h-113q-6 0 -11.5 4t-9.5 11l-49 86q-6 11 -2 20t15 9h53q5 0 8.5 -2t6.5 -6l37 -42q4 -3 5.5 -3.5t3.5 -0.5t4 1t4 3l38 42q3 4 6.5 6t8.5 2h53q11 0 15 -9t-2 -20l-49 -86q-4 -6 -10 -10.5t-12 -4.5zM545 158q-24 -77 -91.5 -124t-155.5 -47q-112 0 -188 76
t-76 188t76 188t188 76q86 0 150.5 -44.5t93.5 -124.5q4 -10 0.5 -16.5t-13.5 -6.5h-104q-8 0 -14.5 3.5t-13.5 13.5q-17 22 -43.5 35t-54.5 13q-54 0 -90.5 -39.5t-36.5 -97.5q0 -57 36.5 -97t90.5 -40q31 0 58 13.5t45 37.5q7 9 13 12.5t14 3.5h95q14 0 19.5 -5.5
t1.5 -17.5z" />
    <glyph glyph-name="Dcaron" unicode="&#x10e;" horiz-adv-x="752" 
d="M407 726h-113q-6 0 -11.5 4t-9.5 11l-49 86q-6 11 -2 20t15 9h53q5 0 8.5 -2t6.5 -6l37 -42q4 -3 5.5 -3.5t3.5 -0.5t4 1t4 3l38 42q3 4 6.5 6t8.5 2h53q11 0 15 -9t-2 -20l-49 -86q-4 -6 -10 -10.5t-12 -4.5zM350 0h-267q-7 0 -12.5 5.5t-5.5 13.5v642q0 8 5.5 13.5
t12.5 5.5h267q154 0 255.5 -96.5t101.5 -245.5q0 -148 -101 -243t-256 -95zM224 121h125q90 0 150.5 62.5t60.5 156.5t-60.5 156t-150.5 62h-125q-7 0 -12.5 -5.5t-5.5 -13.5v-399q0 -8 5.5 -13.5t12.5 -5.5z" />
    <glyph glyph-name="dcaron" unicode="&#x10f;" horiz-adv-x="709" 
d="M441 54q-39 -36 -77 -51.5t-84 -15.5q-103 0 -174.5 76.5t-71.5 187.5t72.5 187.5t175.5 76.5q35 0 66.5 -11t59.5 -34q7 -6 14 -3.5t7 12.5v182q0 8 5.5 13.5t12.5 5.5h99q8 0 13.5 -5.5t5.5 -13.5v-509q0 -18 6.5 -27t19.5 -10q7 -1 12 -5.5t5 -10.5v-87q0 -7 -5 -12
t-12 -5q-48 0 -79 14t-48 43q-5 8 -10.5 8.5t-12.5 -6.5zM685 456h-62q-8 0 -13 4.5t-5 12.5v189q0 8 4.5 13t12.5 5h87q10 0 15 -6.5t4 -16.5l-24 -184q-2 -9 -6.5 -13t-12.5 -4zM171 251q0 -58 38.5 -99t93.5 -41t93 40.5t38 99.5t-38 99.5t-93 40.5t-93.5 -41t-38.5 -99z
" />
    <glyph glyph-name="Dcroat" unicode="&#x110;" horiz-adv-x="752" 
d="M8 305v78q0 8 5.5 13.5t12.5 5.5h20q8 0 13.5 6t5.5 13v240q0 8 5.5 13.5t12.5 5.5h267q154 0 255.5 -96.5t101.5 -245.5q0 -148 -101 -243t-256 -95h-267q-7 0 -12.5 5.5t-5.5 13.5v248q0 8 -5.5 13.5t-13.5 5.5h-20q-7 0 -12.5 5.5t-5.5 13.5zM224 121h125
q90 0 150.5 62.5t60.5 156.5t-60.5 156t-150.5 62h-125q-7 0 -12.5 -5.5t-5.5 -13.5v-118q0 -7 6 -13t13 -6h121q8 0 13.5 -5.5t5.5 -13.5v-78q0 -7 -5.5 -13t-13.5 -6h-121q-7 0 -13 -5.5t-6 -13.5v-127q0 -8 5.5 -13.5t12.5 -5.5z" />
    <glyph glyph-name="dcroat" unicode="&#x111;" horiz-adv-x="630" 
d="M464 52q-5 8 -10.5 8.5t-12.5 -6.5q-37 -34 -75 -49t-86 -15q-103 0 -174.5 75t-71.5 186t72.5 186t175.5 75q35 0 66 -11t60 -34q7 -6 14 -3.5t7 12.5v48q0 7 -5.5 12.5t-13.5 5.5h-133q-7 0 -12.5 5.5t-5.5 12.5v50q0 8 5.5 13.5t12.5 5.5h133q8 0 13.5 5.5t5.5 12.5
v14q0 8 5.5 13.5t12.5 5.5h99q8 0 13.5 -5.5t5.5 -13.5v-14q0 -7 5.5 -12.5t13.5 -5.5h6q8 0 13.5 -5.5t5.5 -13.5v-50q0 -7 -5.5 -12.5t-13.5 -5.5h-6q-8 0 -13.5 -5.5t-5.5 -12.5v-372q0 -18 6.5 -27t19.5 -10q7 -1 12 -5.5t5 -10.5v-87q0 -7 -5 -12t-12 -5q-48 0 -79 14
t-48 43zM171 251q0 -58 38 -97.5t94 -39.5q55 0 93 39.5t38 97.5t-38 97.5t-93 39.5q-56 0 -94 -39.5t-38 -97.5z" />
    <glyph glyph-name="Emacron" unicode="&#x112;" horiz-adv-x="610" 
d="M428 742h-221q-7 0 -12.5 5.5t-5.5 12.5v50q0 8 5.5 13.5t12.5 5.5h221q8 0 13.5 -5.5t5.5 -13.5v-50q0 -7 -5.5 -12.5t-13.5 -5.5zM564 0h-481q-7 0 -12.5 5.5t-5.5 13.5v642q0 8 5.5 13.5t12.5 5.5h481q8 0 13.5 -5.5t5.5 -13.5v-85q0 -7 -5.5 -12.5t-13.5 -5.5h-340
q-7 0 -12.5 -5.5t-5.5 -13.5v-117q0 -7 5.5 -12.5t12.5 -5.5h321q8 0 13.5 -5.5t5.5 -13.5v-84q0 -7 -5.5 -12.5t-13.5 -5.5h-321q-7 0 -12.5 -5.5t-5.5 -13.5v-124q0 -8 5.5 -13.5t12.5 -5.5h340q8 0 13.5 -5.5t5.5 -13.5v-84q0 -7 -5.5 -12.5t-13.5 -5.5z" />
    <glyph glyph-name="emacron" unicode="&#x113;" horiz-adv-x="588" 
d="M406 566h-221q-7 0 -12.5 5.5t-5.5 12.5v50q0 8 5.5 13.5t12.5 5.5h221q8 0 13.5 -5.5t5.5 -13.5v-50q0 -7 -5.5 -12.5t-13.5 -5.5zM534 134q-25 -66 -91.5 -106.5t-148.5 -40.5q-113 0 -186.5 74t-73.5 188t75 190t187 76q111 0 184.5 -76.5t73.5 -191.5q0 -17 -5.5 -25
t-17.5 -8h-344q-6 0 -9 -3.5t-2 -9.5q5 -43 39.5 -71t82.5 -28q28 0 52.5 11t42.5 32q8 9 15.5 12.5t16.5 3.5h92q12 0 16.5 -7.5t0.5 -19.5zM180 309q-2 -7 0 -10.5t8 -3.5h211q5 0 7.5 2.5t1.5 8.5q-8 41 -40 67.5t-74 26.5q-40 0 -72 -25.5t-42 -65.5z" />
    <glyph glyph-name="Ebreve" unicode="&#x114;" horiz-adv-x="610" 
d="M449 835q0 -47 -35.5 -78t-95.5 -31q-59 0 -94.5 31t-35.5 78q0 9 4.5 15t12.5 6h48q8 0 13 -4.5t7 -13.5q4 -19 15.5 -28t29.5 -9q19 0 29.5 9t15.5 28q2 9 7 13.5t13 4.5h48q8 0 13 -6t5 -15zM564 0h-481q-7 0 -12.5 5.5t-5.5 13.5v642q0 8 5.5 13.5t12.5 5.5h481
q8 0 13.5 -5.5t5.5 -13.5v-85q0 -7 -5.5 -12.5t-13.5 -5.5h-340q-7 0 -12.5 -5.5t-5.5 -13.5v-117q0 -7 5.5 -12.5t12.5 -5.5h321q8 0 13.5 -5.5t5.5 -13.5v-84q0 -7 -5.5 -12.5t-13.5 -5.5h-321q-7 0 -12.5 -5.5t-5.5 -13.5v-124q0 -8 5.5 -13.5t12.5 -5.5h340
q8 0 13.5 -5.5t5.5 -13.5v-84q0 -7 -5.5 -12.5t-13.5 -5.5z" />
    <glyph glyph-name="ebreve" unicode="&#x115;" horiz-adv-x="588" 
d="M427 659q0 -47 -35.5 -78t-95.5 -31q-59 0 -94.5 31t-35.5 78q0 9 4.5 15t12.5 6h48q8 0 13 -4.5t7 -13.5q4 -19 15.5 -28t29.5 -9q19 0 29.5 9t15.5 28q2 9 7 13.5t13 4.5h48q8 0 13 -6t5 -15zM534 134q-25 -66 -91.5 -106.5t-148.5 -40.5q-113 0 -186.5 74t-73.5 188
t75 190t187 76q111 0 184.5 -76.5t73.5 -191.5q0 -17 -5.5 -25t-17.5 -8h-344q-6 0 -9 -3.5t-2 -9.5q5 -43 39.5 -71t82.5 -28q28 0 52.5 11t42.5 32q8 9 15.5 12.5t16.5 3.5h92q12 0 16.5 -7.5t0.5 -19.5zM180 309q-2 -7 0 -10.5t8 -3.5h211q5 0 7.5 2.5t1.5 8.5
q-8 41 -40 67.5t-74 26.5q-40 0 -72 -25.5t-42 -65.5z" />
    <glyph glyph-name="Edotaccent" unicode="&#x116;" horiz-adv-x="610" 
d="M379 793q0 -25 -18 -43.5t-43 -18.5t-43.5 18.5t-18.5 43.5q0 26 18.5 44t43.5 18t43 -18.5t18 -43.5zM564 0h-481q-7 0 -12.5 5.5t-5.5 13.5v642q0 8 5.5 13.5t12.5 5.5h481q8 0 13.5 -5.5t5.5 -13.5v-85q0 -7 -5.5 -12.5t-13.5 -5.5h-340q-7 0 -12.5 -5.5t-5.5 -13.5
v-117q0 -7 5.5 -12.5t12.5 -5.5h321q8 0 13.5 -5.5t5.5 -13.5v-84q0 -7 -5.5 -12.5t-13.5 -5.5h-321q-7 0 -12.5 -5.5t-5.5 -13.5v-124q0 -8 5.5 -13.5t12.5 -5.5h340q8 0 13.5 -5.5t5.5 -13.5v-84q0 -7 -5.5 -12.5t-13.5 -5.5z" />
    <glyph glyph-name="edotaccent" unicode="&#x117;" horiz-adv-x="588" 
d="M357 617q0 -25 -18 -43.5t-43 -18.5t-43.5 18.5t-18.5 43.5q0 26 18.5 44t43.5 18t43 -18.5t18 -43.5zM534 134q-25 -66 -91.5 -106.5t-148.5 -40.5q-113 0 -186.5 74t-73.5 188t75 190t187 76q111 0 184.5 -76.5t73.5 -191.5q0 -17 -5.5 -25t-17.5 -8h-344q-6 0 -9 -3.5
t-2 -9.5q5 -43 39.5 -71t82.5 -28q28 0 52.5 11t42.5 32q8 9 15.5 12.5t16.5 3.5h92q12 0 16.5 -7.5t0.5 -19.5zM180 309q-2 -7 0 -10.5t8 -3.5h211q5 0 7.5 2.5t1.5 8.5q-8 41 -40 67.5t-74 26.5q-40 0 -72 -25.5t-42 -65.5z" />
    <glyph glyph-name="Eogonek" unicode="&#x118;" horiz-adv-x="610" 
d="M357 -122q0 27 23.5 60t54.5 55q4 3 3.5 5t-4.5 2h-351q-7 0 -12.5 5.5t-5.5 13.5v642q0 8 5.5 13.5t12.5 5.5h481q8 0 13.5 -5.5t5.5 -13.5v-85q0 -7 -5.5 -12.5t-13.5 -5.5h-340q-7 0 -12.5 -5.5t-5.5 -13.5v-117q0 -7 5.5 -12.5t12.5 -5.5h321q8 0 13.5 -5.5
t5.5 -13.5v-84q0 -7 -5.5 -12.5t-13.5 -5.5h-321q-7 0 -12.5 -5.5t-5.5 -13.5v-124q0 -8 5.5 -13.5t12.5 -5.5h340q8 0 13.5 -5.5t5.5 -13.5v-84q0 -7 -5.5 -12.5t-13.5 -5.5h-16q-8 0 -13 -1.5t-13 -8.5q-35 -30 -52 -52.5t-17 -37.5q0 -12 7.5 -18.5t21.5 -6.5
q5 0 11.5 0.5t21.5 2.5q10 1 15 -3.5t5 -15.5v-29q0 -8 -4 -12.5t-12 -6.5q-13 -3 -29 -5t-33 -2q-48 0 -74 19.5t-26 54.5z" />
    <glyph glyph-name="eogonek" unicode="&#x119;" horiz-adv-x="588" 
d="M495 -189q-13 -3 -29 -5t-33 -2q-48 0 -74 19.5t-26 54.5q0 15 9.5 44.5t24.5 62.5q4 9 1.5 11.5t-12.5 0.5q-14 -4 -29.5 -5.5t-32.5 -1.5q-114 0 -187 73t-73 186t74.5 188t187.5 75q111 0 184.5 -75.5t73.5 -189.5q0 -17 -5.5 -25t-17.5 -8h-344q-6 0 -9 -3.5t-2 -9.5
q5 -43 39 -69.5t83 -26.5q30 0 54 10t41 30q8 9 15.5 12.5t16.5 3.5h92q12 0 16.5 -7t0.5 -20q-4 -12 -12.5 -29.5t-31.5 -57.5q-37 -68 -49 -98.5t-12 -48.5q0 -12 7.5 -18.5t21.5 -6.5q5 0 11.5 0.5t21.5 2.5q10 1 15 -3.5t5 -15.5v-29q0 -8 -4 -12.5t-12 -6.5zM180 308
q-2 -7 0 -10.5t8 -3.5h211q5 0 7.5 2.5t1.5 8.5q-8 40 -39.5 66t-74.5 26q-41 0 -72.5 -24.5t-41.5 -64.5z" />
    <glyph glyph-name="Ecaron" unicode="&#x11a;" horiz-adv-x="610" 
d="M374 726h-113q-6 0 -11.5 4t-9.5 11l-49 86q-6 11 -2 20t15 9h53q5 0 8.5 -2t6.5 -6l37 -42q4 -3 5.5 -3.5t3.5 -0.5t4 1t4 3l38 42q3 4 6.5 6t8.5 2h53q11 0 15 -9t-2 -20l-49 -86q-4 -6 -10 -10.5t-12 -4.5zM564 0h-481q-7 0 -12.5 5.5t-5.5 13.5v642q0 8 5.5 13.5
t12.5 5.5h481q8 0 13.5 -5.5t5.5 -13.5v-85q0 -7 -5.5 -12.5t-13.5 -5.5h-340q-7 0 -12.5 -5.5t-5.5 -13.5v-117q0 -7 5.5 -12.5t12.5 -5.5h321q8 0 13.5 -5.5t5.5 -13.5v-84q0 -7 -5.5 -12.5t-13.5 -5.5h-321q-7 0 -12.5 -5.5t-5.5 -13.5v-124q0 -8 5.5 -13.5t12.5 -5.5
h340q8 0 13.5 -5.5t5.5 -13.5v-84q0 -7 -5.5 -12.5t-13.5 -5.5z" />
    <glyph glyph-name="ecaron" unicode="&#x11b;" horiz-adv-x="588" 
d="M352 550h-113q-6 0 -11.5 4t-9.5 11l-49 86q-6 11 -2 20t15 9h53q5 0 8.5 -2t6.5 -6l37 -42q4 -3 5.5 -3.5t3.5 -0.5t4 1t4 3l38 42q3 4 6.5 6t8.5 2h53q11 0 15 -9t-2 -20l-49 -86q-4 -6 -10 -10.5t-12 -4.5zM534 134q-25 -66 -91.5 -106.5t-148.5 -40.5
q-113 0 -186.5 74t-73.5 188t75 190t187 76q111 0 184.5 -76.5t73.5 -191.5q0 -17 -5.5 -25t-17.5 -8h-344q-6 0 -9 -3.5t-2 -9.5q5 -43 39.5 -71t82.5 -28q28 0 52.5 11t42.5 32q8 9 15.5 12.5t16.5 3.5h92q12 0 16.5 -7.5t0.5 -19.5zM180 309q-2 -7 0 -10.5t8 -3.5h211
q5 0 7.5 2.5t1.5 8.5q-8 41 -40 67.5t-74 26.5q-40 0 -72 -25.5t-42 -65.5z" />
    <glyph glyph-name="Gcircumflex" unicode="&#x11c;" horiz-adv-x="800" 
d="M339 726h-53q-11 0 -15 9t2 19l49 86q4 7 9.5 11.5t11.5 4.5h113q5 0 11.5 -4.5t10.5 -11.5l49 -86q6 -10 2 -19t-15 -9h-53q-4 0 -8 2t-7 5l-38 42q-2 2 -4 3t-4 1t-3.5 -0.5t-5.5 -3.5l-37 -42q-3 -3 -7 -5t-8 -2zM654 89q-51 -49 -116.5 -75.5t-137.5 -26.5
q-150 0 -253.5 101.5t-103.5 249.5t104.5 251.5t252.5 103.5q104 0 192 -54.5t130 -144.5q6 -13 1 -21.5t-19 -8.5h-108q-11 0 -17.5 3t-15.5 14q-30 39 -73 61t-89 22q-88 0 -148.5 -65t-60.5 -159t60.5 -159t148.5 -65q65 0 118.5 33.5t79.5 88.5q4 8 1 13.5t-12 5.5h-163
q-8 0 -13.5 5.5t-5.5 12.5v74q0 8 6 13.5t13 5.5h312q13 0 19 -4.5t6 -14.5v-10q0 -70 -28 -135t-80 -115z" />
    <glyph glyph-name="gcircumflex" unicode="&#x11d;" horiz-adv-x="614" 
d="M239 550h-53q-11 0 -15 9t2 19l49 86q4 7 9.5 11.5t11.5 4.5h113q5 0 11.5 -4.5t10.5 -11.5l49 -86q6 -10 2 -19t-15 -9h-53q-4 0 -8 2t-7 5l-38 42q-2 2 -4 3t-4 1t-3.5 -0.5t-5.5 -3.5l-37 -42q-3 -3 -7 -5t-8 -2zM299 -200q-93 0 -159 42.5t-90 119.5q-3 9 2.5 15
t17.5 6h96q9 0 15.5 -3.5t12.5 -12.5q16 -25 42.5 -37.5t61.5 -12.5q55 0 90 37t35 95v6q0 10 -6 12.5t-15 -3.5q-36 -23 -67.5 -33.5t-60.5 -10.5q-104 0 -173.5 69.5t-69.5 176.5q0 108 70.5 178.5t174.5 70.5q39 0 71.5 -13t61.5 -39q7 -7 13 -5.5t6 10.5v16q0 8 5.5 13
t12.5 5h94q8 0 13.5 -5.5t5.5 -13.5v-422q0 -113 -73.5 -187t-186.5 -74zM168 261q0 -55 37.5 -92t92.5 -37q56 0 93 36.5t37 92.5q0 57 -37.5 94.5t-92.5 37.5t-92.5 -38t-37.5 -94z" />
    <glyph glyph-name="Gbreve" unicode="&#x11e;" horiz-adv-x="800" 
d="M531 835q0 -47 -35.5 -78t-95.5 -31q-59 0 -94.5 31t-35.5 78q0 9 4.5 15t12.5 6h48q8 0 13 -4.5t7 -13.5q4 -19 15.5 -28t29.5 -9q19 0 29.5 9t15.5 28q2 9 7 13.5t13 4.5h48q8 0 13 -6t5 -15zM654 89q-51 -49 -116.5 -75.5t-137.5 -26.5q-150 0 -253.5 101.5
t-103.5 249.5t104.5 251.5t252.5 103.5q104 0 192 -54.5t130 -144.5q6 -13 1 -21.5t-19 -8.5h-108q-11 0 -17.5 3t-15.5 14q-30 39 -73 61t-89 22q-88 0 -148.5 -65t-60.5 -159t60.5 -159t148.5 -65q65 0 118.5 33.5t79.5 88.5q4 8 1 13.5t-12 5.5h-163q-8 0 -13.5 5.5
t-5.5 12.5v74q0 8 6 13.5t13 5.5h312q13 0 19 -4.5t6 -14.5v-10q0 -70 -28 -135t-80 -115z" />
    <glyph glyph-name="gbreve" unicode="&#x11f;" horiz-adv-x="614" 
d="M431 659q0 -47 -35.5 -78t-95.5 -31q-59 0 -94.5 31t-35.5 78q0 9 4.5 15t12.5 6h48q8 0 13 -4.5t7 -13.5q4 -19 15.5 -28t29.5 -9q19 0 29.5 9t15.5 28q2 9 7 13.5t13 4.5h48q8 0 13 -6t5 -15zM299 -200q-93 0 -159 42.5t-90 119.5q-3 9 2.5 15t17.5 6h96q9 0 15.5 -3.5
t12.5 -12.5q16 -25 42.5 -37.5t61.5 -12.5q55 0 90 37t35 95v6q0 10 -6 12.5t-15 -3.5q-36 -23 -67.5 -33.5t-60.5 -10.5q-104 0 -173.5 69.5t-69.5 176.5q0 108 70.5 178.5t174.5 70.5q39 0 71.5 -13t61.5 -39q7 -7 13 -5.5t6 10.5v16q0 8 5.5 13t12.5 5h94q8 0 13.5 -5.5
t5.5 -13.5v-422q0 -113 -73.5 -187t-186.5 -74zM168 261q0 -55 37.5 -92t92.5 -37q56 0 93 36.5t37 92.5q0 57 -37.5 94.5t-92.5 37.5t-92.5 -38t-37.5 -94z" />
    <glyph glyph-name="Gdotaccent" unicode="&#x120;" horiz-adv-x="800" 
d="M461 793q0 -25 -18 -43.5t-43 -18.5t-43.5 18.5t-18.5 43.5q0 26 18.5 44t43.5 18t43 -18.5t18 -43.5zM654 89q-51 -49 -116.5 -75.5t-137.5 -26.5q-150 0 -253.5 101.5t-103.5 249.5t104.5 251.5t252.5 103.5q104 0 192 -54.5t130 -144.5q6 -13 1 -21.5t-19 -8.5h-108
q-11 0 -17.5 3t-15.5 14q-30 39 -73 61t-89 22q-88 0 -148.5 -65t-60.5 -159t60.5 -159t148.5 -65q65 0 118.5 33.5t79.5 88.5q4 8 1 13.5t-12 5.5h-163q-8 0 -13.5 5.5t-5.5 12.5v74q0 8 6 13.5t13 5.5h312q13 0 19 -4.5t6 -14.5v-10q0 -70 -28 -135t-80 -115z" />
    <glyph glyph-name="gdotaccent" unicode="&#x121;" horiz-adv-x="614" 
d="M361 617q0 -25 -18 -43.5t-43 -18.5t-43.5 18.5t-18.5 43.5q0 26 18.5 44t43.5 18t43 -18.5t18 -43.5zM299 -200q-93 0 -159 42.5t-90 119.5q-3 9 2.5 15t17.5 6h96q9 0 15.5 -3.5t12.5 -12.5q16 -25 42.5 -37.5t61.5 -12.5q55 0 90 37t35 95v6q0 10 -6 12.5t-15 -3.5
q-36 -23 -67.5 -33.5t-60.5 -10.5q-104 0 -173.5 69.5t-69.5 176.5q0 108 70.5 178.5t174.5 70.5q39 0 71.5 -13t61.5 -39q7 -7 13 -5.5t6 10.5v16q0 8 5.5 13t12.5 5h94q8 0 13.5 -5.5t5.5 -13.5v-422q0 -113 -73.5 -187t-186.5 -74zM168 261q0 -55 37.5 -92t92.5 -37
q56 0 93 36.5t37 92.5q0 57 -37.5 94.5t-92.5 37.5t-92.5 -38t-37.5 -94z" />
    <glyph glyph-name="Gcommaaccent" unicode="&#x122;" horiz-adv-x="800" 
d="M654 89q-51 -49 -116.5 -75.5t-137.5 -26.5q-150 0 -253.5 101.5t-103.5 249.5t104.5 251.5t252.5 103.5q104 0 192 -54.5t130 -144.5q6 -13 1 -21.5t-19 -8.5h-108q-11 0 -17.5 3t-15.5 14q-30 39 -73 61t-89 22q-88 0 -148.5 -65t-60.5 -159t60.5 -159t148.5 -65
q65 0 118.5 33.5t79.5 88.5q4 8 1 13.5t-12 5.5h-163q-8 0 -13.5 5.5t-5.5 12.5v74q0 8 6 13.5t13 5.5h312q13 0 19 -4.5t6 -14.5v-10q0 -70 -28 -135t-80 -115zM468 -108q0 -25 -22.5 -56t-58.5 -55q-18 -12 -38 0t-10 30q1 2 3.5 5t10.5 11q7 8 11 12t7 8q-17 8 -26 19.5
t-9 26.5q0 25 18 40t48 15t48 -15t18 -41z" />
    <glyph glyph-name="gcommaaccent" unicode="&#x123;" horiz-adv-x="614" 
d="M368 607q0 -25 -17.5 -39.5t-48.5 -14.5q-30 0 -48 15t-18 41t22 55.5t59 54.5q16 12 36 1t13 -28q-1 -4 -5 -9t-15 -15q-5 -6 -8 -9l-5 -5q17 -8 26 -20t9 -27zM299 -200q-93 0 -159 42.5t-90 119.5q-3 9 2.5 15t17.5 6h96q9 0 15.5 -3.5t12.5 -12.5q16 -25 42.5 -37.5
t61.5 -12.5q55 0 90 37t35 95v6q0 10 -6 12.5t-15 -3.5q-36 -23 -67.5 -33.5t-60.5 -10.5q-104 0 -173.5 69.5t-69.5 176.5q0 108 70.5 178.5t174.5 70.5q39 0 71.5 -13t61.5 -39q7 -7 13 -5.5t6 10.5v16q0 8 5.5 13t12.5 5h94q8 0 13.5 -5.5t5.5 -13.5v-422
q0 -113 -73.5 -187t-186.5 -74zM168 261q0 -55 37.5 -92t92.5 -37q56 0 93 36.5t37 92.5q0 57 -37.5 94.5t-92.5 37.5t-92.5 -38t-37.5 -94z" />
    <glyph glyph-name="Hcircumflex" unicode="&#x124;" horiz-adv-x="737" 
d="M301 726h-53q-11 0 -15 9t2 19l49 86q4 7 9.5 11.5t11.5 4.5h113q5 0 11.5 -4.5t10.5 -11.5l49 -86q6 -10 2 -19t-15 -9h-53q-4 0 -8 2t-7 5l-38 42q-2 2 -4 3t-4 1t-3.5 -0.5t-5.5 -3.5l-37 -42q-3 -3 -7 -5t-8 -2zM187 0h-104q-7 0 -12.5 5.5t-5.5 13.5v642
q0 8 5.5 13.5t12.5 5.5h104q8 0 13.5 -5.5t5.5 -13.5v-237q0 -8 5.5 -13.5t12.5 -5.5h288q8 0 13.5 6t5.5 13v237q0 8 5.5 13.5t12.5 5.5h104q8 0 13.5 -5.5t5.5 -13.5v-642q0 -7 -5.5 -13t-13.5 -6h-104q-7 0 -12.5 5.5t-5.5 13.5v245q0 8 -5.5 13.5t-13.5 5.5h-288
q-7 0 -12.5 -5.5t-5.5 -13.5v-245q0 -7 -5.5 -13t-13.5 -6z" />
    <glyph glyph-name="hcircumflex" unicode="&#x125;" horiz-adv-x="577" 
d="M54 726h-53q-11 0 -15 9t2 19l49 86q4 7 9.5 11.5t11.5 4.5h113q5 0 11.5 -4.5t10.5 -11.5l49 -86q6 -10 2 -19t-15 -9h-53q-4 0 -8 2t-7 5l-38 42q-2 2 -4 3t-4 1t-3.5 -0.5t-5.5 -3.5l-37 -42q-3 -3 -7 -5t-8 -2zM171 0h-99q-7 0 -12.5 5.5t-5.5 13.5v642q0 8 5.5 13.5
t12.5 5.5h99q8 0 13.5 -5.5t5.5 -13.5v-184q0 -10 6.5 -12.5t13.5 3.5q28 23 60 35t66 12q83 0 134.5 -54t51.5 -141v-301q0 -7 -5.5 -13t-13.5 -6h-99q-7 0 -12.5 5.5t-5.5 13.5v278q0 45 -27 72.5t-69 27.5q-41 0 -70.5 -28.5t-29.5 -69.5v-280q0 -7 -5.5 -13t-13.5 -6z
" />
    <glyph glyph-name="Hbar" unicode="&#x126;" horiz-adv-x="737" 
d="M206 661v-61q0 -8 5.5 -13.5t12.5 -5.5h289q7 0 12.5 5.5t5.5 13.5v61q0 8 5.5 13.5t12.5 5.5h104q8 0 13.5 -5.5t5.5 -13.5v-61q0 -8 5.5 -13.5t12.5 -5.5h20q8 0 13.5 -5.5t5.5 -13.5v-51q0 -7 -5.5 -12.5t-13.5 -5.5h-20q-7 0 -12.5 -5.5t-5.5 -13.5v-455
q0 -7 -5.5 -13t-13.5 -6h-104q-7 0 -12.5 5.5t-5.5 13.5v245q0 8 -5.5 13.5t-13.5 5.5h-288q-7 0 -12.5 -5.5t-5.5 -13.5v-245q0 -7 -5.5 -13t-13.5 -6h-104q-7 0 -12.5 5.5t-5.5 13.5v455q0 8 -5.5 13.5t-12.5 5.5h-21q-7 0 -12.5 5.5t-5.5 12.5v51q0 8 5.5 13.5t12.5 5.5
h21q7 0 12.5 5.5t5.5 13.5v61q0 8 5.5 13.5t12.5 5.5h104q8 0 13.5 -5.5t5.5 -13.5zM224 405h288q8 0 13.5 6t5.5 13v50q0 8 -5.5 13.5t-12.5 5.5h-289q-7 0 -12.5 -5.5t-5.5 -13.5v-50q0 -8 5.5 -13.5t12.5 -5.5z" />
    <glyph glyph-name="hbar" unicode="&#x127;" horiz-adv-x="577" 
d="M9 560v50q0 8 5.5 13.5t12.5 5.5h10q7 0 12.5 5.5t5.5 13.5v13q0 8 5.5 13.5t12.5 5.5h99q8 0 13.5 -5.5t5.5 -13.5v-13q0 -8 5.5 -13.5t12.5 -5.5h131q8 0 13.5 -5.5t5.5 -13.5v-50q0 -7 -5.5 -12.5t-13.5 -5.5h-131q-7 0 -12.5 -5.5t-5.5 -13.5v-49q0 -10 6.5 -12.5
t13.5 3.5q28 23 60 35t66 12q83 0 134.5 -54t51.5 -141v-298q0 -7 -5.5 -13t-13.5 -6h-99q-7 0 -12.5 5.5t-5.5 13.5v275q0 44 -27 72t-69 28q-41 0 -70.5 -28.5t-29.5 -69.5v-277q0 -7 -5.5 -13t-13.5 -6h-99q-7 0 -12.5 5.5t-5.5 13.5v504q0 8 -5.5 13.5t-12.5 5.5h-10
q-7 0 -12.5 5.5t-5.5 12.5z" />
    <glyph glyph-name="Itilde" unicode="&#x128;" horiz-adv-x="271" 
d="M270 785q-13 -25 -35.5 -42t-45.5 -17q-11 0 -25.5 3.5t-44.5 15.5q-22 8 -30.5 10.5t-13.5 2.5q-6 0 -12 -3t-17 -14q-8 -8 -12.5 -8t-9.5 5l-24 24q-4 4 -4.5 9.5t2.5 11.5q11 23 34 39t47 16q11 0 26.5 -3.5t46.5 -14.5q20 -7 27.5 -9t11.5 -2q7 0 12.5 3t18.5 17
q6 7 11.5 8t10.5 -4l23 -26q5 -5 5.5 -10.5t-2.5 -11.5zM186 0h-104q-7 0 -12.5 5.5t-5.5 13.5v642q0 8 5.5 13.5t12.5 5.5h104q8 0 13.5 -5.5t5.5 -13.5v-642q0 -7 -5.5 -13t-13.5 -6z" />
    <glyph glyph-name="itilde" unicode="&#x129;" horiz-adv-x="246" 
d="M256 609q-13 -25 -35.5 -42t-45.5 -17q-11 0 -25.5 3.5t-44.5 15.5q-22 8 -30.5 10.5t-13.5 2.5q-6 0 -12 -3t-17 -14q-8 -8 -12.5 -8t-9.5 5l-24 24q-4 4 -4.5 9.5t2.5 11.5q11 23 34 39t47 16q11 0 26.5 -3.5t46.5 -14.5q20 -7 27.5 -9t11.5 -2q7 0 12.5 3t18.5 17
q6 7 11.5 8t10.5 -4l23 -26q5 -5 5.5 -10.5t-2.5 -11.5zM171 0h-99q-7 0 -12.5 5.5t-5.5 13.5v464q0 8 5.5 13.5t12.5 5.5h99q8 0 13.5 -5.5t5.5 -13.5v-464q0 -7 -5.5 -13t-13.5 -6z" />
    <glyph glyph-name="Imacron" unicode="&#x12a;" horiz-adv-x="271" 
d="M246 742h-221q-7 0 -12.5 5.5t-5.5 12.5v50q0 8 5.5 13.5t12.5 5.5h221q8 0 13.5 -5.5t5.5 -13.5v-50q0 -7 -5.5 -12.5t-13.5 -5.5zM187 0h-104q-7 0 -12.5 5.5t-5.5 13.5v642q0 8 5.5 13.5t12.5 5.5h104q8 0 13.5 -5.5t5.5 -13.5v-642q0 -7 -5.5 -13t-13.5 -6z" />
    <glyph glyph-name="imacron" unicode="&#x12b;" horiz-adv-x="246" 
d="M232 566h-221q-7 0 -12.5 5.5t-5.5 12.5v50q0 8 5.5 13.5t12.5 5.5h221q8 0 13.5 -5.5t5.5 -13.5v-50q0 -7 -5.5 -12.5t-13.5 -5.5zM172 0h-99q-7 0 -12.5 5.5t-5.5 13.5v464q0 8 5.5 13.5t12.5 5.5h99q8 0 13.5 -5.5t5.5 -13.5v-464q0 -7 -5.5 -13t-13.5 -6z" />
    <glyph glyph-name="Ibreve" unicode="&#x12c;" horiz-adv-x="271" 
d="M267 835q0 -47 -35.5 -78t-95.5 -31q-59 0 -94.5 31t-35.5 78q0 9 4.5 15t12.5 6h48q8 0 13 -4.5t7 -13.5q4 -19 15.5 -28t29.5 -9q19 0 29.5 9t15.5 28q2 9 7 13.5t13 4.5h48q8 0 13 -6t5 -15zM187 0h-104q-7 0 -12.5 5.5t-5.5 13.5v642q0 8 5.5 13.5t12.5 5.5h104
q8 0 13.5 -5.5t5.5 -13.5v-642q0 -7 -5.5 -13t-13.5 -6z" />
    <glyph glyph-name="ibreve" unicode="&#x12d;" horiz-adv-x="246" 
d="M254 659q0 -47 -35.5 -78t-95.5 -31q-59 0 -94.5 31t-35.5 78q0 9 4.5 15t12.5 6h48q8 0 13 -4.5t7 -13.5q4 -19 15.5 -28t29.5 -9q19 0 29.5 9t15.5 28q2 9 7 13.5t13 4.5h48q8 0 13 -6t5 -15zM172 0h-99q-7 0 -12.5 5.5t-5.5 13.5v464q0 8 5.5 13.5t12.5 5.5h99
q8 0 13.5 -5.5t5.5 -13.5v-464q0 -7 -5.5 -13t-13.5 -6z" />
    <glyph glyph-name="Iogonek" unicode="&#x12e;" horiz-adv-x="271" 
d="M175 -188q-13 -3 -29 -5t-33 -2q-48 0 -74 19.5t-26 54.5q0 20 8.5 42.5t29.5 52.5q8 15 11 25t3 20v642q0 8 5.5 13.5t12.5 5.5h104q8 0 13.5 -5.5t5.5 -13.5v-645q0 -8 -3.5 -13t-13.5 -10q-28 -13 -54 -42.5t-26 -50.5q0 -12 7.5 -18.5t21.5 -6.5q5 0 11.5 0.5
t21.5 2.5q10 1 15 -3.5t5 -15.5v-28q0 -8 -4 -12.5t-12 -6.5z" />
    <glyph glyph-name="iogonek" unicode="&#x12f;" horiz-adv-x="246" 
d="M200 633q0 -31 -22.5 -53.5t-53.5 -22.5t-53.5 22.5t-22.5 53.5t22.5 53.5t53.5 22.5t53.5 -22.5t22.5 -53.5zM165 -188q-13 -3 -29 -5t-33 -2q-48 0 -74 19.5t-26 54.5q0 20 8 41.5t35 62.5q6 13 7.5 20t1.5 16v464q0 8 5.5 13.5t12.5 5.5h99q8 0 13.5 -5.5t5.5 -13.5
v-468q0 -8 -3.5 -14t-11.5 -12q-32 -20 -54.5 -45.5t-22.5 -43.5q0 -12 7.5 -18.5t21.5 -6.5q5 0 11.5 0.5t21.5 2.5q10 1 15 -3.5t5 -15.5v-28q0 -8 -4 -12.5t-12 -6.5z" />
    <glyph glyph-name="Idotaccent" unicode="&#x130;" horiz-adv-x="271" 
d="M197 793q0 -25 -18 -43.5t-43 -18.5t-43.5 18.5t-18.5 43.5q0 26 18.5 44t43.5 18t43 -18.5t18 -43.5zM187 0h-104q-7 0 -12.5 5.5t-5.5 13.5v642q0 8 5.5 13.5t12.5 5.5h104q8 0 13.5 -5.5t5.5 -13.5v-642q0 -7 -5.5 -13t-13.5 -6z" />
    <glyph glyph-name="dotlessi" unicode="&#x131;" horiz-adv-x="246" 
d="M172 0h-99q-7 0 -12.5 5.5t-5.5 13.5v464q0 8 5.5 13.5t12.5 5.5h99q8 0 13.5 -5.5t5.5 -13.5v-464q0 -7 -5.5 -13t-13.5 -6z" />
    <glyph glyph-name="IJ" unicode="&#x132;" horiz-adv-x="913" 
d="M187 0h-104q-7 0 -12.5 5.5t-5.5 13.5v642q0 8 5.5 13.5t12.5 5.5h104q8 0 13.5 -5.5t5.5 -13.5v-642q0 -7 -5.5 -13t-13.5 -6zM564 -13q-104 0 -178 56t-92 148q-2 12 2 18t14 6h104q10 0 15 -3t9 -12q19 -41 52.5 -63t78.5 -22q63 0 100.5 43.5t37.5 115.5v265
q0 8 -5.5 13.5t-13.5 5.5h-213q-8 0 -13.5 5.5t-5.5 12.5v85q0 8 6 13.5t13 5.5h355q7 0 12.5 -5.5t5.5 -13.5v-384q0 -134 -77 -212t-207 -78z" />
    <glyph glyph-name="ij" unicode="&#x133;" horiz-adv-x="492" 
d="M200 633q0 -31 -22.5 -53.5t-53.5 -22.5t-53.5 22.5t-22.5 53.5t22.5 53.5t53.5 22.5t53.5 -22.5t22.5 -53.5zM446 633q0 -31 -22.5 -53.5t-53.5 -22.5t-53.5 22.5t-22.5 53.5t22.5 53.5t53.5 22.5t53.5 -22.5t22.5 -53.5zM172 0h-99q-7 0 -12.5 5.5t-5.5 13.5v464
q0 8 5.5 13.5t12.5 5.5h99q8 0 13.5 -5.5t5.5 -13.5v-464q0 -7 -5.5 -13t-13.5 -6zM226 -195h-4q-7 0 -12 6t-5 14v81q0 7 5.5 13t12.5 6q41 0 59.5 20.5t18.5 64.5v473q0 8 5.5 13.5t12.5 5.5h99q8 0 13.5 -5.5t5.5 -13.5v-474q0 -106 -50.5 -155t-160.5 -49z" />
    <glyph glyph-name="Jcircumflex" unicode="&#x134;" horiz-adv-x="642" 
d="M316 726h-53q-11 0 -15 9t2 19l49 86q4 7 9.5 11.5t11.5 4.5h113q5 0 11.5 -4.5t10.5 -11.5l49 -86q6 -10 2 -19t-15 -9h-53q-4 0 -8 2t-7 5l-38 42q-2 2 -4 3t-4 1t-3.5 -0.5t-5.5 -3.5l-37 -42q-3 -3 -7 -5t-8 -2zM293 -13q-104 0 -178 56t-92 148q-2 12 2 18t14 6h104
q10 0 15 -3t9 -12q19 -41 52.5 -63t78.5 -22q63 0 100.5 43.5t37.5 115.5v265q0 8 -5.5 13.5t-13.5 5.5h-213q-8 0 -13.5 5.5t-5.5 12.5v85q0 8 6 13.5t13 5.5h355q7 0 12.5 -5.5t5.5 -13.5v-384q0 -134 -77 -212t-207 -78z" />
    <glyph glyph-name="jcircumflex" unicode="&#x135;" horiz-adv-x="246" 
d="M62 550h-53q-11 0 -15 9t2 19l49 86q4 7 9.5 11.5t11.5 4.5h113q5 0 11.5 -4.5t10.5 -11.5l49 -86q6 -10 2 -19t-15 -9h-53q-4 0 -8 2t-7 5l-38 42q-2 2 -4 3t-4 1t-3.5 -0.5t-5.5 -3.5l-37 -42q-3 -3 -7 -5t-8 -2zM-20 -195h-5q-7 0 -11.5 5.5t-4.5 13.5v85
q0 7 4.5 11.5t11.5 4.5q42 0 61 20.5t19 64.5v473q0 8 5.5 13.5t12.5 5.5h99q8 0 13.5 -5.5t5.5 -13.5v-474q0 -106 -50.5 -155t-160.5 -49z" />
    <glyph glyph-name="Kcommaaccent" unicode="&#x136;" horiz-adv-x="635" 
d="M628 -5q-78 0 -131.5 30t-105.5 100l-114 153q-6 9 -14.5 9.5t-15.5 -6.5l-30 -29q-6 -6 -8.5 -12.5t-2.5 -20.5v-200q0 -7 -5.5 -13t-13.5 -6h-104q-7 0 -12.5 5.5t-5.5 13.5v642q0 8 5.5 13.5t12.5 5.5h104q8 0 13.5 -5.5t5.5 -13.5v-221q0 -14 10.5 -17t19.5 6
l232 238q5 6 11 9.5t11 3.5h115q10 0 14.5 -10.5t-3.5 -19.5l-242 -245q-7 -8 -7.5 -14.5t4.5 -13.5l134 -177q39 -52 63.5 -68t61.5 -17q8 0 13 -6t5 -15v-81q0 -7 -6 -12.5t-14 -5.5zM388 -108q0 -25 -22.5 -56t-58.5 -55q-18 -12 -38 0t-10 30q1 2 3.5 5t10.5 11
q7 8 11 12t7 8q-17 8 -26 19.5t-9 26.5q0 25 18 40t48 15t48 -15t18 -41z" />
    <glyph glyph-name="kcommaaccent" unicode="&#x137;" horiz-adv-x="515" 
d="M497 -5q-80 0 -122 27t-95 115l-40 66q-5 8 -10.5 8.5t-13.5 -6.5l-25 -24q-3 -2 -4 -5.5t-1 -11.5v-145q0 -7 -5.5 -13t-13.5 -6h-96q-7 0 -12.5 5.5t-5.5 13.5v642q0 8 5.5 13.5t12.5 5.5h96q8 0 13.5 -5.5t5.5 -13.5v-320q0 -10 7 -11.5t14 6.5l147 153q6 6 12.5 9.5
t11.5 3.5h100q12 0 16.5 -11.5t-3.5 -19.5l-150 -152q-8 -8 -9 -16t5 -17l42 -68q38 -62 63.5 -83.5t54.5 -21.5q9 0 14.5 -5.5t5.5 -14.5v-79q0 -8 -6 -13.5t-14 -5.5zM343 -108q0 -25 -22.5 -56t-58.5 -55q-18 -12 -38 0t-10 30q1 2 3.5 5t10.5 11q7 8 11 12t7 8
q-17 8 -26 19.5t-9 26.5q0 25 18 40t48 15t48 -15t18 -41z" />
    <glyph glyph-name="kgreenlandic" unicode="&#x138;" horiz-adv-x="515" 
d="M497 -5q-79 0 -120.5 26.5t-96.5 115.5l-40 66q-7 8 -12.5 8.5t-11.5 -6.5l-25 -24q-3 -3 -4 -7t-1 -10v-145q0 -7 -5.5 -13t-13.5 -6h-96q-7 0 -12.5 5.5t-5.5 13.5v464q0 8 5.5 13.5t12.5 5.5h96q8 0 13.5 -5.5t5.5 -13.5v-142q0 -10 7 -11.5t14 6.5l147 153
q6 6 12.5 9.5t11.5 3.5h100q12 0 16.5 -11.5t-3.5 -19.5l-150 -152q-8 -8 -9 -16t5 -17l42 -68q40 -63 64.5 -84t53.5 -21q9 0 14.5 -5.5t5.5 -14.5v-79q0 -8 -6 -13.5t-14 -5.5z" />
    <glyph glyph-name="Lacute" unicode="&#x139;" horiz-adv-x="546" 
d="M174 726h-76q-9 0 -12.5 6.5t-0.5 14.5l40 92q4 9 9 13t12 4h107q10 0 14 -9t-3 -19l-66 -87q-6 -9 -11.5 -12t-12.5 -3zM514 0h-431q-7 0 -12.5 5.5t-5.5 13.5v642q0 8 5.5 13.5t12.5 5.5h104q8 0 13.5 -5.5t5.5 -13.5v-521q0 -8 5.5 -13.5t12.5 -5.5h290q8 0 13.5 -5.5
t5.5 -13.5v-84q0 -7 -5.5 -12.5t-13.5 -5.5z" />
    <glyph glyph-name="lacute" unicode="&#x13a;" horiz-adv-x="266" 
d="M156 726h-76q-9 0 -12.5 6.5t-0.5 14.5l40 92q4 9 9 13t12 4h107q10 0 14 -9t-3 -19l-66 -87q-6 -9 -11.5 -12t-12.5 -3zM240 -5q-102 0 -143.5 39.5t-41.5 135.5v491q0 8 5.5 13.5t12.5 5.5h99q8 0 13.5 -5.5t5.5 -13.5v-494q0 -26 12.5 -39.5t36.5 -13.5q8 0 13.5 -5.5
t5.5 -13.5v-82q0 -7 -5.5 -12.5t-13.5 -5.5z" />
    <glyph glyph-name="Lcommaaccent" unicode="&#x13b;" horiz-adv-x="546" 
d="M514 0h-431q-7 0 -12.5 5.5t-5.5 13.5v642q0 8 5.5 13.5t12.5 5.5h104q8 0 13.5 -5.5t5.5 -13.5v-521q0 -8 5.5 -13.5t12.5 -5.5h290q8 0 13.5 -5.5t5.5 -13.5v-84q0 -7 -5.5 -12.5t-13.5 -5.5zM363 -108q0 -25 -22.5 -56t-58.5 -55q-18 -12 -38 0t-10 30q1 2 3.5 5
t10.5 11q7 8 11 12t7 8q-17 8 -26 19.5t-9 26.5q0 25 18 40t48 15t48 -15t18 -41z" />
    <glyph glyph-name="lcommaaccent" unicode="&#x13c;" horiz-adv-x="266" 
d="M240 -5q-102 0 -143.5 39.5t-41.5 135.5v491q0 8 5.5 13.5t12.5 5.5h99q8 0 13.5 -5.5t5.5 -13.5v-494q0 -26 12.5 -39.5t36.5 -13.5q8 0 13.5 -5.5t5.5 -13.5v-82q0 -7 -5.5 -12.5t-13.5 -5.5zM196 -108q0 -25 -22.5 -56t-58.5 -55q-18 -12 -38 0t-10 30q1 2 3.5 5
t10.5 11q7 8 11 12t7 8q-17 8 -26 19.5t-9 26.5q0 25 18 40t48 15t48 -15t18 -41z" />
    <glyph glyph-name="Lcaron" unicode="&#x13d;" horiz-adv-x="546" 
d="M514 0h-431q-7 0 -12.5 5.5t-5.5 13.5v642q0 8 5.5 13.5t12.5 5.5h104q8 0 13.5 -5.5t5.5 -13.5v-521q0 -8 5.5 -13.5t12.5 -5.5h290q8 0 13.5 -5.5t5.5 -13.5v-84q0 -7 -5.5 -12.5t-13.5 -5.5zM342 456h-62q-8 0 -13 4.5t-5 12.5v189q0 8 4.5 13t12.5 5h87q10 0 15 -6.5
t4 -16.5l-24 -184q-2 -9 -6.5 -13t-12.5 -4z" />
    <glyph glyph-name="lcaron" unicode="&#x13e;" horiz-adv-x="339" 
d="M240 -5q-102 0 -143.5 39.5t-41.5 135.5v491q0 8 5.5 13.5t12.5 5.5h99q8 0 13.5 -5.5t5.5 -13.5v-494q0 -26 12.5 -39.5t36.5 -13.5q8 0 13.5 -5.5t5.5 -13.5v-82q0 -7 -5.5 -12.5t-13.5 -5.5zM314 456h-62q-8 0 -13 4.5t-5 12.5v189q0 8 4.5 13t12.5 5h87q10 0 15 -6.5
t4 -16.5l-24 -184q-2 -9 -6.5 -13t-12.5 -4z" />
    <glyph glyph-name="Ldot" unicode="&#x13f;" horiz-adv-x="546" 
d="M514 0h-431q-7 0 -12.5 5.5t-5.5 13.5v642q0 8 5.5 13.5t12.5 5.5h104q8 0 13.5 -5.5t5.5 -13.5v-521q0 -8 5.5 -13.5t12.5 -5.5h290q8 0 13.5 -5.5t5.5 -13.5v-84q0 -7 -5.5 -12.5t-13.5 -5.5zM450 348q0 -32 -23 -54.5t-56 -22.5q-32 0 -54.5 22.5t-22.5 54.5
q0 33 22.5 56.5t54.5 23.5q33 0 56 -23.5t23 -56.5z" />
    <glyph glyph-name="ldot" unicode="&#x140;" horiz-adv-x="372" 
d="M240 -5q-102 0 -143.5 39.5t-41.5 135.5v491q0 8 5.5 13.5t12.5 5.5h99q8 0 13.5 -5.5t5.5 -13.5v-494q0 -26 12.5 -39.5t36.5 -13.5q8 0 13.5 -5.5t5.5 -13.5v-82q0 -7 -5.5 -12.5t-13.5 -5.5zM386 348q0 -32 -23 -54.5t-56 -22.5q-32 0 -54.5 22.5t-22.5 54.5
q0 33 22.5 56.5t54.5 23.5q33 0 56 -23.5t23 -56.5z" />
    <glyph glyph-name="Lslash" unicode="&#x141;" horiz-adv-x="542" 
d="M528 102v-84q0 -7 -5.5 -12.5t-13.5 -5.5h-431q-7 0 -12.5 5.5t-5.5 13.5v201q0 8 -4.5 10t-13.5 -1q-7 -2 -14.5 1t-9.5 10l-27 74q-2 7 1 14.5t10 9.5l42 16q8 3 12 8.5t4 14.5v284q0 8 5.5 13.5t12.5 5.5h104q8 0 13.5 -5.5t5.5 -13.5v-234q0 -8 5 -10.5t14 0.5
l127 46q7 2 14.5 -1t9.5 -10l27 -74q2 -7 -1.5 -14.5t-10.5 -9.5l-169 -61q-9 -3 -12.5 -8.5t-3.5 -16.5v-128q0 -8 5.5 -13.5t12.5 -5.5h290q8 0 13.5 -5.5t5.5 -13.5z" />
    <glyph glyph-name="lslash" unicode="&#x142;" horiz-adv-x="262" 
d="M259 95v-82q0 -7 -5.5 -12.5t-13.5 -5.5q-103 0 -144 39.5t-41 135.5v134q0 8 -4 11.5t-11 0.5l-9 -3q-7 -2 -14 1t-9 9l-27 75q-3 7 0.5 14.5t10.5 9.5l45 16q10 4 14 10t4 17v196q0 8 5.5 13.5t12.5 5.5h99q8 0 13.5 -5.5t5.5 -13.5v-148q0 -11 5 -13.5t16 1.5l18 7
q7 3 14.5 -0.5t9.5 -10.5l28 -74q2 -7 -1.5 -14t-10.5 -10l-64 -23q-7 -2 -11 -9.5t-4 -18.5v-181q0 -27 12 -40t37 -13q8 0 13.5 -5.5t5.5 -13.5z" />
    <glyph glyph-name="Nacute" unicode="&#x143;" horiz-adv-x="728" 
d="M408 726h-76q-9 0 -12.5 6.5t-0.5 14.5l40 92q4 9 9 13t12 4h107q10 0 14 -9t-3 -19l-66 -87q-6 -9 -11.5 -12t-12.5 -3zM179 0h-96q-7 0 -12.5 5.5t-5.5 13.5v642q0 8 5.5 13.5t12.5 5.5h96q6 0 11.5 -4t12.5 -13l319 -428q6 -8 11.5 -6.5t5.5 11.5l-6 421q0 8 6 13.5
t13 5.5h96q8 0 13.5 -5.5t5.5 -13.5v-642q0 -7 -5.5 -13t-13.5 -6h-97q-6 0 -11 3t-10 9l-320 434q-5 8 -11 7t-6 -9l5 -425q0 -8 -5.5 -13.5t-13.5 -5.5z" />
    <glyph glyph-name="nacute" unicode="&#x144;" horiz-adv-x="578" 
d="M325 550h-76q-9 0 -12.5 6.5t-0.5 14.5l40 92q4 9 9 13t12 4h107q10 0 14 -9t-3 -19l-66 -87q-6 -9 -11.5 -12t-12.5 -3zM172 0h-99q-7 0 -12.5 5.5t-5.5 13.5v464q0 8 5.5 13.5t12.5 5.5h95q8 0 13.5 -5.5t5.5 -13.5v-10q0 -11 6.5 -13.5t15.5 5.5q37 27 68 38.5
t62 11.5q81 0 132.5 -56t51.5 -143v-297q0 -7 -5.5 -13t-13.5 -6h-99q-7 0 -12.5 5.5t-5.5 13.5v273q0 47 -26.5 76t-69.5 29q-42 0 -71 -30.5t-29 -72.5v-275q0 -7 -5.5 -13t-13.5 -6z" />
    <glyph glyph-name="Ncommaaccent" unicode="&#x145;" horiz-adv-x="728" 
d="M179 0h-96q-7 0 -12.5 5.5t-5.5 13.5v642q0 8 5.5 13.5t12.5 5.5h96q6 0 11.5 -4t12.5 -13l319 -428q6 -8 11.5 -6.5t5.5 11.5l-6 421q0 8 6 13.5t13 5.5h96q8 0 13.5 -5.5t5.5 -13.5v-642q0 -7 -5.5 -13t-13.5 -6h-97q-6 0 -11 3t-10 9l-320 434q-5 8 -11 7t-6 -9
l5 -425q0 -8 -5.5 -13.5t-13.5 -5.5zM438 -108q0 -25 -22.5 -56t-58.5 -55q-18 -12 -38 0t-10 30q1 2 3.5 5t10.5 11q7 8 11 12t7 8q-17 8 -26 19.5t-9 26.5q0 25 18 40t48 15t48 -15t18 -41z" />
    <glyph glyph-name="ncommaaccent" unicode="&#x146;" horiz-adv-x="578" 
d="M172 0h-99q-7 0 -12.5 5.5t-5.5 13.5v464q0 8 5.5 13.5t12.5 5.5h95q8 0 13.5 -5.5t5.5 -13.5v-10q0 -11 6.5 -13.5t15.5 5.5q37 27 68 38.5t62 11.5q81 0 132.5 -56t51.5 -143v-297q0 -7 -5.5 -13t-13.5 -6h-99q-7 0 -12.5 5.5t-5.5 13.5v273q0 47 -26.5 76t-69.5 29
q-42 0 -71 -30.5t-29 -72.5v-275q0 -7 -5.5 -13t-13.5 -6zM349 -108q0 -25 -22.5 -56t-58.5 -55q-18 -12 -38 0t-10 30q1 2 3.5 5t10.5 11q7 8 11 12t7 8q-17 8 -26 19.5t-9 26.5q0 25 18 40t48 15t48 -15t18 -41z" />
    <glyph glyph-name="Ncaron" unicode="&#x147;" horiz-adv-x="728" 
d="M426 726h-113q-6 0 -11.5 4t-9.5 11l-49 86q-6 11 -2 20t15 9h53q5 0 8.5 -2t6.5 -6l37 -42q4 -3 5.5 -3.5t3.5 -0.5t4 1t4 3l38 42q3 4 6.5 6t8.5 2h53q11 0 15 -9t-2 -20l-49 -86q-4 -6 -10 -10.5t-12 -4.5zM179 0h-96q-7 0 -12.5 5.5t-5.5 13.5v642q0 8 5.5 13.5
t12.5 5.5h96q6 0 11.5 -4t12.5 -13l319 -428q6 -8 11.5 -6.5t5.5 11.5l-6 421q0 8 6 13.5t13 5.5h96q8 0 13.5 -5.5t5.5 -13.5v-642q0 -7 -5.5 -13t-13.5 -6h-97q-6 0 -11 3t-10 9l-320 434q-5 8 -11 7t-6 -9l5 -425q0 -8 -5.5 -13.5t-13.5 -5.5z" />
    <glyph glyph-name="ncaron" unicode="&#x148;" horiz-adv-x="578" 
d="M344 550h-113q-6 0 -11.5 4t-9.5 11l-49 86q-6 11 -2 20t15 9h53q5 0 8.5 -2t6.5 -6l37 -42q4 -3 5.5 -3.5t3.5 -0.5t4 1t4 3l38 42q3 4 6.5 6t8.5 2h53q11 0 15 -9t-2 -20l-49 -86q-4 -6 -10 -10.5t-12 -4.5zM172 0h-99q-7 0 -12.5 5.5t-5.5 13.5v464q0 8 5.5 13.5
t12.5 5.5h95q8 0 13.5 -5.5t5.5 -13.5v-10q0 -11 6.5 -13.5t15.5 5.5q37 27 68 38.5t62 11.5q81 0 132.5 -56t51.5 -143v-297q0 -7 -5.5 -13t-13.5 -6h-99q-7 0 -12.5 5.5t-5.5 13.5v273q0 47 -26.5 76t-69.5 29q-42 0 -71 -30.5t-29 -72.5v-275q0 -7 -5.5 -13t-13.5 -6z
" />
    <glyph glyph-name="napostrophe" unicode="&#x149;" horiz-adv-x="578" 
d="M195 646q0 -25 -22.5 -55.5t-57.5 -55.5q-17 -12 -37 -0.5t-12 28.5q1 3 9.5 12.5t23.5 25.5q-16 7 -25.5 19t-9.5 27q0 25 18 39.5t48 14.5t47.5 -14.5t17.5 -40.5zM172 0h-99q-7 0 -12.5 5.5t-5.5 13.5v464q0 8 5.5 13.5t12.5 5.5h95q8 0 13.5 -5.5t5.5 -13.5v-10
q0 -11 6.5 -13.5t15.5 5.5q37 27 68 38.5t62 11.5q81 0 132.5 -56t51.5 -143v-297q0 -7 -5.5 -13t-13.5 -6h-99q-7 0 -12.5 5.5t-5.5 13.5v273q0 47 -26.5 76t-69.5 29q-42 0 -71 -30.5t-29 -72.5v-275q0 -7 -5.5 -13t-13.5 -6z" />
    <glyph glyph-name="Eng" unicode="&#x14a;" horiz-adv-x="728" 
d="M471 -190q-81 0 -131 42.5t-52 106.5q-1 9 2.5 13t12.5 4h89q10 0 13.5 -2t6.5 -10q6 -19 20.5 -29.5t36.5 -10.5q27 0 42.5 15t15.5 42v7q0 14 -5 27.5t-17 29.5l-295 401q-5 8 -11 7t-6 -9l5 -425q0 -8 -5.5 -13.5t-13.5 -5.5h-96q-7 0 -12.5 5.5t-5.5 13.5v642
q0 8 5.5 13.5t12.5 5.5h96q6 0 11.5 -4t12.5 -13l319 -428q6 -8 11.5 -6.5t5.5 11.5l-6 421q0 8 6 13.5t13 5.5h96q8 0 13.5 -5.5t5.5 -13.5v-667q0 -86 -53.5 -135t-142.5 -49z" />
    <glyph glyph-name="eng" unicode="&#x14b;" horiz-adv-x="578" 
d="M318 -195h-11q-7 0 -12 5.5t-5 13.5v82q0 9 4.5 14t11.5 5q43 0 62 20.5t19 64.5v282q0 46 -26 74t-70 28q-42 0 -71 -29t-29 -71v-275q0 -7 -5.5 -13t-13.5 -6h-99q-7 0 -12.5 5.5t-5.5 13.5v464q0 8 5.5 13.5t12.5 5.5h95q8 0 13.5 -5.5t5.5 -13.5v-10q0 -11 6.5 -13.5
t15.5 5.5q33 24 65 35.5t65 11.5q81 0 132.5 -54.5t51.5 -141.5v-307q0 -106 -49.5 -155t-155.5 -49z" />
    <glyph glyph-name="Omacron" unicode="&#x14c;" horiz-adv-x="810" 
d="M514 742h-221q-7 0 -12.5 5.5t-5.5 12.5v50q0 8 5.5 13.5t12.5 5.5h221q8 0 13.5 -5.5t5.5 -13.5v-50q0 -7 -5.5 -12.5t-13.5 -5.5zM766 338q0 -151 -103.5 -250.5t-258.5 -99.5t-258 99.5t-103 250.5t103.5 253t257.5 102t258 -102t104 -253zM192 340q0 -96 60.5 -159.5
t152.5 -63.5q91 0 152 64t61 159t-61 159.5t-152 64.5t-152 -64.5t-61 -159.5z" />
    <glyph glyph-name="omacron" unicode="&#x14d;" horiz-adv-x="605" 
d="M410 566h-221q-7 0 -12.5 5.5t-5.5 12.5v50q0 8 5.5 13.5t12.5 5.5h221q8 0 13.5 -5.5t5.5 -13.5v-50q0 -7 -5.5 -12.5t-13.5 -5.5zM570 251q0 -112 -76.5 -188t-191.5 -76q-114 0 -191 76t-77 188t76.5 188t191.5 76t191.5 -75.5t76.5 -188.5zM170 251q0 -58 39 -99
t93 -41q55 0 93.5 41t38.5 99t-38.5 99t-93.5 41q-54 0 -93 -41t-39 -99z" />
    <glyph glyph-name="Obreve" unicode="&#x14e;" horiz-adv-x="810" 
d="M536 835q0 -47 -35.5 -78t-95.5 -31q-59 0 -94.5 31t-35.5 78q0 9 4.5 15t12.5 6h48q8 0 13 -4.5t7 -13.5q4 -19 15.5 -28t29.5 -9q19 0 29.5 9t15.5 28q2 9 7 13.5t13 4.5h48q8 0 13 -6t5 -15zM766 338q0 -151 -103.5 -250.5t-258.5 -99.5t-258 99.5t-103 250.5
t103.5 253t257.5 102t258 -102t104 -253zM192 340q0 -96 60.5 -159.5t152.5 -63.5q91 0 152 64t61 159t-61 159.5t-152 64.5t-152 -64.5t-61 -159.5z" />
    <glyph glyph-name="obreve" unicode="&#x14f;" horiz-adv-x="605" 
d="M432 659q0 -47 -35.5 -78t-95.5 -31q-59 0 -94.5 31t-35.5 78q0 9 4.5 15t12.5 6h48q8 0 13 -4.5t7 -13.5q4 -19 15.5 -28t29.5 -9q19 0 29.5 9t15.5 28q2 9 7 13.5t13 4.5h48q8 0 13 -6t5 -15zM570 251q0 -112 -76.5 -188t-191.5 -76q-114 0 -191 76t-77 188t76.5 188
t191.5 76t191.5 -75.5t76.5 -188.5zM170 251q0 -58 39 -99t93 -41q55 0 93.5 41t38.5 99t-38.5 99t-93.5 41q-54 0 -93 -41t-39 -99z" />
    <glyph glyph-name="Ohungarumlaut" unicode="&#x150;" horiz-adv-x="810" 
d="M363 726h-46q-8 0 -12.5 6.5t-1.5 14.5l28 92q2 7 8 12t13 5h57q9 0 14 -8.5t1 -17.5l-42 -89q-4 -8 -8.5 -11.5t-10.5 -3.5zM489 726h-46q-8 0 -12.5 6.5t-1.5 14.5l28 92q2 7 8.5 12t12.5 5h57q10 0 14.5 -8t0.5 -18l-42 -89q-4 -8 -8.5 -11.5t-10.5 -3.5zM766 338
q0 -151 -103.5 -250.5t-258.5 -99.5t-258 99.5t-103 250.5t103.5 253t257.5 102t258 -102t104 -253zM192 340q0 -96 60.5 -159.5t152.5 -63.5q91 0 152 64t61 159t-61 159.5t-152 64.5t-152 -64.5t-61 -159.5z" />
    <glyph glyph-name="ohungarumlaut" unicode="&#x151;" horiz-adv-x="605" 
d="M259 550h-46q-8 0 -12.5 6.5t-1.5 14.5l28 92q2 7 8 12t13 5h57q9 0 14 -8.5t1 -17.5l-42 -89q-4 -8 -8.5 -11.5t-10.5 -3.5zM385 550h-46q-8 0 -12.5 6.5t-1.5 14.5l28 92q2 7 8.5 12t12.5 5h57q10 0 14.5 -8t0.5 -18l-42 -89q-4 -8 -8.5 -11.5t-10.5 -3.5zM570 251
q0 -112 -76.5 -188t-191.5 -76q-114 0 -191 76t-77 188t76.5 188t191.5 76t191.5 -75.5t76.5 -188.5zM170 251q0 -58 39 -99t93 -41q55 0 93.5 41t38.5 99t-38.5 99t-93.5 41q-54 0 -93 -41t-39 -99z" />
    <glyph glyph-name="OE" unicode="&#x152;" horiz-adv-x="1163" 
d="M599 61q-40 -36 -90.5 -55t-108.5 -19q-154 0 -254.5 99.5t-100.5 251.5q0 153 101 254t254 101q58 0 110 -21t93 -60q7 -7 10.5 -5t3.5 13v41q0 8 5.5 13.5t12.5 5.5h481q8 0 13.5 -5.5t5.5 -13.5v-85q0 -7 -5.5 -12.5t-13.5 -5.5h-339q-7 0 -13 -5.5t-6 -13.5v-117
q0 -7 5.5 -12.5t13.5 -5.5h321q8 0 13.5 -5.5t5.5 -13.5v-84q0 -7 -5.5 -12.5t-13.5 -5.5h-321q-7 0 -13 -5.5t-6 -13.5v-124q0 -7 6 -13t13 -6h339q8 0 13.5 -5.5t5.5 -13.5v-84q0 -7 -5.5 -12.5t-13.5 -5.5h-481q-7 0 -12.5 5.5t-5.5 13.5v38q0 10 -3.5 12t-14.5 -8z
M194 340q0 -96 60.5 -160t151.5 -64q92 0 153 64t61 160q0 95 -61 159.5t-153 64.5q-91 0 -151.5 -64.5t-60.5 -159.5z" />
    <glyph glyph-name="oe" unicode="&#x153;" horiz-adv-x="980" 
d="M486 69q-35 -39 -83.5 -60t-103.5 -21q-114 0 -189.5 75.5t-75.5 187.5q0 113 75.5 188.5t189.5 75.5q57 0 107 -21t82 -59q5 -5 9 -5t8 5q33 39 80.5 59.5t102.5 20.5q111 0 184.5 -76.5t73.5 -191.5q0 -17 -5.5 -25t-17.5 -8h-346q-5 0 -7 -3t-1 -8q8 -46 40.5 -73.5
t80.5 -27.5q29 0 52.5 10.5t42.5 32.5q7 8 14.5 12t17.5 4h92q12 0 17 -7.5t1 -19.5q-26 -66 -92.5 -106.5t-148.5 -40.5q-56 0 -103 21t-80 61q-4 5 -8 5t-9 -5zM572 308q-2 -6 0 -10t7 -4h212q5 0 7 2.5t1 8.5q-7 41 -39 68t-74 27q-41 0 -72.5 -26t-41.5 -66zM170 251
q0 -57 39 -98t93 -41q55 0 93.5 40.5t38.5 98.5t-38.5 99t-93.5 41q-54 0 -93 -41t-39 -99z" />
    <glyph glyph-name="Racute" unicode="&#x154;" horiz-adv-x="676" 
d="M365 726h-76q-9 0 -12.5 6.5t-0.5 14.5l40 92q4 9 9 13t12 4h107q10 0 14 -9t-3 -19l-66 -87q-6 -9 -11.5 -12t-12.5 -3zM634 -5q-86 0 -135.5 29.5t-97.5 108.5l-51 85q-6 9 -12 12.5t-16 3.5h-98q-8 0 -13 -5t-5 -14v-196q0 -7 -5.5 -13t-13.5 -6h-104q-7 0 -12.5 5.5
t-5.5 13.5v642q0 8 5.5 13.5t12.5 5.5h317q109 0 174.5 -60t65.5 -162q0 -68 -36.5 -118.5t-102.5 -76.5q-9 -3 -11.5 -9t2.5 -14l27 -43q29 -44 55 -62t61 -20q8 0 13.5 -5.5t5.5 -13.5v-83q0 -7 -6 -12.5t-14 -5.5zM223 349h166q46 0 77 31t31 76q0 46 -29.5 75.5
t-78.5 29.5h-166q-9 0 -13 -4.5t-4 -13.5v-176q0 -9 4 -13.5t13 -4.5z" />
    <glyph glyph-name="racute" unicode="&#x155;" horiz-adv-x="371" 
d="M237 550h-76q-9 0 -12.5 6.5t-0.5 14.5l40 92q4 9 9 13t12 4h107q10 0 14 -9t-3 -19l-66 -87q-6 -9 -11.5 -12t-12.5 -3zM172 0h-99q-7 0 -12.5 5.5t-5.5 13.5v464q0 8 5.5 13.5t12.5 5.5h95q8 0 13.5 -5.5t5.5 -13.5v-20q0 -10 7 -11.5t17 7.5q30 27 62 40t68 13
q9 0 14.5 -5t5.5 -14v-97q0 -8 -5.5 -13.5t-12.5 -5.5q-81 0 -116.5 -33t-35.5 -106v-219q0 -7 -5.5 -13t-13.5 -6z" />
    <glyph glyph-name="Rcommaaccent" unicode="&#x156;" horiz-adv-x="676" 
d="M634 -5q-86 0 -135.5 29.5t-97.5 108.5l-51 85q-6 9 -12 12.5t-16 3.5h-98q-8 0 -13 -5t-5 -14v-196q0 -7 -5.5 -13t-13.5 -6h-104q-7 0 -12.5 5.5t-5.5 13.5v642q0 8 5.5 13.5t12.5 5.5h317q109 0 174.5 -60t65.5 -162q0 -68 -36.5 -118.5t-102.5 -76.5q-9 -3 -11.5 -9
t2.5 -14l27 -43q29 -44 55 -62t61 -20q8 0 13.5 -5.5t5.5 -13.5v-83q0 -7 -6 -12.5t-14 -5.5zM223 349h166q46 0 77 31t31 76q0 46 -29.5 75.5t-78.5 29.5h-166q-9 0 -13 -4.5t-4 -13.5v-176q0 -9 4 -13.5t13 -4.5zM392 -108q0 -25 -22.5 -56t-58.5 -55q-18 -12 -38 0
t-10 30q1 2 3.5 5t10.5 11q7 8 11 12t7 8q-17 8 -26 19.5t-9 26.5q0 25 18 40t48 15t48 -15t18 -41z" />
    <glyph glyph-name="rcommaaccent" unicode="&#x157;" horiz-adv-x="371" 
d="M172 0h-99q-7 0 -12.5 5.5t-5.5 13.5v464q0 8 5.5 13.5t12.5 5.5h95q8 0 13.5 -5.5t5.5 -13.5v-20q0 -10 7 -11.5t17 7.5q30 27 62 40t68 13q9 0 14.5 -5t5.5 -14v-97q0 -8 -5.5 -13.5t-12.5 -5.5q-81 0 -116.5 -33t-35.5 -106v-219q0 -7 -5.5 -13t-13.5 -6zM188 -108
q0 -25 -22.5 -56t-58.5 -55q-18 -12 -38 0t-10 30q1 2 3.5 5t10.5 11q7 8 11 12t7 8q-17 8 -26 19.5t-9 26.5q0 25 18 40t48 15t48 -15t18 -41z" />
    <glyph glyph-name="Rcaron" unicode="&#x158;" horiz-adv-x="676" 
d="M384 726h-113q-6 0 -11.5 4t-9.5 11l-49 86q-6 11 -2 20t15 9h53q5 0 8.5 -2t6.5 -6l37 -42q4 -3 5.5 -3.5t3.5 -0.5t4 1t4 3l38 42q3 4 6.5 6t8.5 2h53q11 0 15 -9t-2 -20l-49 -86q-4 -6 -10 -10.5t-12 -4.5zM634 -5q-86 0 -135.5 29.5t-97.5 108.5l-51 85
q-6 9 -12 12.5t-16 3.5h-98q-8 0 -13 -5t-5 -14v-196q0 -7 -5.5 -13t-13.5 -6h-104q-7 0 -12.5 5.5t-5.5 13.5v642q0 8 5.5 13.5t12.5 5.5h317q109 0 174.5 -60t65.5 -162q0 -68 -36.5 -118.5t-102.5 -76.5q-9 -3 -11.5 -9t2.5 -14l27 -43q29 -44 55 -62t61 -20
q8 0 13.5 -5.5t5.5 -13.5v-83q0 -7 -6 -12.5t-14 -5.5zM223 349h166q46 0 77 31t31 76q0 46 -29.5 75.5t-78.5 29.5h-166q-9 0 -13 -4.5t-4 -13.5v-176q0 -9 4 -13.5t13 -4.5z" />
    <glyph glyph-name="rcaron" unicode="&#x159;" horiz-adv-x="371" 
d="M256 550h-113q-6 0 -11.5 4t-9.5 11l-49 86q-6 11 -2 20t15 9h53q5 0 8.5 -2t6.5 -6l37 -42q4 -3 5.5 -3.5t3.5 -0.5t4 1t4 3l38 42q3 4 6.5 6t8.5 2h53q11 0 15 -9t-2 -20l-49 -86q-4 -6 -10 -10.5t-12 -4.5zM172 0h-99q-7 0 -12.5 5.5t-5.5 13.5v464q0 8 5.5 13.5
t12.5 5.5h95q8 0 13.5 -5.5t5.5 -13.5v-20q0 -10 7 -11.5t17 7.5q30 27 62 40t68 13q9 0 14.5 -5t5.5 -14v-97q0 -8 -5.5 -13.5t-12.5 -5.5q-81 0 -116.5 -33t-35.5 -106v-219q0 -7 -5.5 -13t-13.5 -6z" />
    <glyph glyph-name="Sacute" unicode="&#x15a;" horiz-adv-x="596" 
d="M330 726h-76q-9 0 -12.5 6.5t-0.5 14.5l40 92q4 9 9 13t12 4h107q10 0 14 -9t-3 -19l-66 -87q-6 -9 -11.5 -12t-12.5 -3zM584 210q0 -101 -80 -162t-208 -61q-115 0 -191.5 57t-89.5 155q-1 9 3 13.5t15 4.5h99q10 0 15.5 -4t7.5 -12q13 -42 55 -69t97 -27
q58 0 96.5 25.5t38.5 65.5q0 39 -34.5 60t-150.5 36q-130 17 -183.5 60.5t-53.5 123.5q0 95 76 156t196 61q110 0 182.5 -50.5t87.5 -139.5q2 -11 -1.5 -16.5t-13.5 -5.5h-99q-10 0 -15.5 3.5t-8.5 13.5q-16 36 -52.5 56t-87.5 20q-52 0 -87.5 -23t-35.5 -56
q0 -34 35.5 -53.5t128.5 -31.5q138 -18 198.5 -66t60.5 -134z" />
    <glyph glyph-name="sacute" unicode="&#x15b;" horiz-adv-x="503" 
d="M295 550h-76q-9 0 -12.5 6.5t-0.5 14.5l40 92q4 9 9 13t12 4h107q10 0 14 -9t-3 -19l-66 -87q-6 -9 -11.5 -12t-12.5 -3zM480 162q0 -78 -63.5 -126.5t-162.5 -48.5q-95 0 -156 40t-69 106q-2 14 2.5 18.5t15.5 4.5h91q10 0 16 -3.5t12 -13.5q16 -29 38.5 -41t55.5 -12
q38 0 62.5 16.5t24.5 40.5q0 21 -20.5 32.5t-91.5 22.5q-57 9 -84.5 16.5t-47.5 18.5q-34 18 -50 46t-16 67q0 78 58.5 123.5t159.5 45.5q84 0 137 -36t69 -103q3 -13 -2 -18.5t-17 -5.5h-83q-10 0 -16 3.5t-11 12.5q-13 25 -32.5 36.5t-48.5 11.5q-35 0 -56.5 -15
t-21.5 -38q0 -20 20 -31.5t90 -22.5q57 -8 84.5 -16t47.5 -18q33 -18 49 -46t16 -67z" />
    <glyph glyph-name="Scircumflex" unicode="&#x15c;" horiz-adv-x="596" 
d="M231 726h-53q-11 0 -15 9t2 19l49 86q4 7 9.5 11.5t11.5 4.5h113q5 0 11.5 -4.5t10.5 -11.5l49 -86q6 -10 2 -19t-15 -9h-53q-4 0 -8 2t-7 5l-38 42q-2 2 -4 3t-4 1t-3.5 -0.5t-5.5 -3.5l-37 -42q-3 -3 -7 -5t-8 -2zM584 210q0 -101 -80 -162t-208 -61q-115 0 -191.5 57
t-89.5 155q-1 9 3 13.5t15 4.5h99q10 0 15.5 -4t7.5 -12q13 -42 55 -69t97 -27q58 0 96.5 25.5t38.5 65.5q0 39 -34.5 60t-150.5 36q-130 17 -183.5 60.5t-53.5 123.5q0 95 76 156t196 61q110 0 182.5 -50.5t87.5 -139.5q2 -11 -1.5 -16.5t-13.5 -5.5h-99q-10 0 -15.5 3.5
t-8.5 13.5q-16 36 -52.5 56t-87.5 20q-52 0 -87.5 -23t-35.5 -56q0 -34 35.5 -53.5t128.5 -31.5q138 -18 198.5 -66t60.5 -134z" />
    <glyph glyph-name="scircumflex" unicode="&#x15d;" horiz-adv-x="503" 
d="M196 550h-53q-11 0 -15 9t2 19l49 86q4 7 9.5 11.5t11.5 4.5h113q5 0 11.5 -4.5t10.5 -11.5l49 -86q6 -10 2 -19t-15 -9h-53q-4 0 -8 2t-7 5l-38 42q-2 2 -4 3t-4 1t-3.5 -0.5t-5.5 -3.5l-37 -42q-3 -3 -7 -5t-8 -2zM480 162q0 -78 -63.5 -126.5t-162.5 -48.5
q-95 0 -156 40t-69 106q-2 14 2.5 18.5t15.5 4.5h91q10 0 16 -3.5t12 -13.5q16 -29 38.5 -41t55.5 -12q38 0 62.5 16.5t24.5 40.5q0 21 -20.5 32.5t-91.5 22.5q-57 9 -84.5 16.5t-47.5 18.5q-34 18 -50 46t-16 67q0 78 58.5 123.5t159.5 45.5q84 0 137 -36t69 -103
q3 -13 -2 -18.5t-17 -5.5h-83q-10 0 -16 3.5t-11 12.5q-13 25 -32.5 36.5t-48.5 11.5q-35 0 -56.5 -15t-21.5 -38q0 -20 20 -31.5t90 -22.5q57 -8 84.5 -16t47.5 -18q33 -18 49 -46t16 -67z" />
    <glyph glyph-name="Scedilla" unicode="&#x15e;" horiz-adv-x="596" 
d="M338 -42q33 -2 52 -21t19 -49q0 -38 -32.5 -61t-83.5 -23q-24 0 -46.5 3t-35.5 9q-17 7 -11.5 32t24.5 21q28 -6 40.5 -7.5t26.5 -1.5q21 0 32.5 6.5t11.5 18.5q0 11 -9 17.5t-24 6.5q-9 0 -18 -1.5t-21 -4.5q-21 -5 -30 15t6 33l29 26q7 6 4.5 10t-9.5 4q-104 8 -170 63
t-78 145q-1 9 3 13.5t15 4.5h99q10 0 15.5 -4t7.5 -12q12 -41 54 -67t98 -26q59 0 97 24t38 64q0 39 -34.5 60t-150.5 36q-130 17 -183.5 60.5t-53.5 123.5q0 94 75.5 154t196.5 60q111 0 183 -49.5t87 -137.5q2 -11 -1.5 -16.5t-13.5 -5.5h-99q-10 0 -15.5 3.5t-8.5 13.5
q-15 35 -51.5 54t-88.5 19q-53 0 -88 -21.5t-35 -54.5q0 -34 35.5 -53.5t128.5 -31.5q138 -18 198.5 -66t60.5 -134q0 -84 -56.5 -140t-154.5 -73q-7 -1 -14 -5t-12 -9l-14 -15q-4 -5 -2.5 -7.5t7.5 -2.5z" />
    <glyph glyph-name="scedilla" unicode="&#x15f;" horiz-adv-x="503" 
d="M284 -42q33 -2 52 -21t19 -49q0 -38 -32.5 -61t-83.5 -23q-24 0 -46.5 3t-35.5 9q-17 7 -11.5 32t24.5 21q28 -6 40.5 -7.5t26.5 -1.5q21 0 32.5 6.5t11.5 18.5q0 11 -9 17.5t-24 6.5q-9 0 -18 -1.5t-21 -4.5q-21 -5 -29.5 14.5t5.5 33.5l35 31q5 5 3.5 7.5t-8.5 2.5
q-80 8 -129.5 45.5t-56.5 95.5q-2 14 2.5 18.5t15.5 4.5h91q10 0 16 -3.5t12 -13.5q15 -27 37.5 -38.5t56.5 -11.5q38 0 62.5 15.5t24.5 38.5q0 21 -20.5 32.5t-91.5 22.5q-57 9 -84.5 16.5t-47.5 18.5q-34 18 -50 46t-16 67q0 77 58 121.5t160 44.5q85 0 137.5 -35
t68.5 -101q3 -13 -2 -18.5t-17 -5.5h-83q-10 0 -15.5 3t-11.5 13q-11 23 -31 34t-50 11q-35 0 -56.5 -14t-21.5 -36q0 -20 20 -31.5t90 -22.5q57 -8 84.5 -16t47.5 -18q33 -18 49 -46t16 -67q0 -63 -42.5 -107t-116.5 -59q-13 -2 -17 -4.5t-9 -7.5l-16 -16q-4 -5 -2.5 -7.5
t7.5 -2.5z" />
    <glyph glyph-name="Scaron" unicode="&#x160;" horiz-adv-x="596" 
d="M348 726h-113q-6 0 -11.5 4t-9.5 11l-49 86q-6 11 -2 20t15 9h53q5 0 8.5 -2t6.5 -6l37 -42q4 -3 5.5 -3.5t3.5 -0.5t4 1t4 3l38 42q3 4 6.5 6t8.5 2h53q11 0 15 -9t-2 -20l-49 -86q-4 -6 -10 -10.5t-12 -4.5zM584 210q0 -101 -80 -162t-208 -61q-115 0 -191.5 57
t-89.5 155q-1 9 3 13.5t15 4.5h99q10 0 15.5 -4t7.5 -12q13 -42 55 -69t97 -27q58 0 96.5 25.5t38.5 65.5q0 39 -34.5 60t-150.5 36q-130 17 -183.5 60.5t-53.5 123.5q0 95 76 156t196 61q110 0 182.5 -50.5t87.5 -139.5q2 -11 -1.5 -16.5t-13.5 -5.5h-99q-10 0 -15.5 3.5
t-8.5 13.5q-16 36 -52.5 56t-87.5 20q-52 0 -87.5 -23t-35.5 -56q0 -34 35.5 -53.5t128.5 -31.5q138 -18 198.5 -66t60.5 -134z" />
    <glyph glyph-name="scaron" unicode="&#x161;" horiz-adv-x="503" 
d="M313 550h-113q-6 0 -11.5 4t-9.5 11l-49 86q-6 11 -2 20t15 9h53q5 0 8.5 -2t6.5 -6l37 -42q4 -3 5.5 -3.5t3.5 -0.5t4 1t4 3l38 42q3 4 6.5 6t8.5 2h53q11 0 15 -9t-2 -20l-49 -86q-4 -6 -10 -10.5t-12 -4.5zM480 162q0 -78 -63.5 -126.5t-162.5 -48.5q-95 0 -156 40
t-69 106q-2 14 2.5 18.5t15.5 4.5h91q10 0 16 -3.5t12 -13.5q16 -29 38.5 -41t55.5 -12q38 0 62.5 16.5t24.5 40.5q0 21 -20.5 32.5t-91.5 22.5q-57 9 -84.5 16.5t-47.5 18.5q-34 18 -50 46t-16 67q0 78 58.5 123.5t159.5 45.5q84 0 137 -36t69 -103q3 -13 -2 -18.5
t-17 -5.5h-83q-10 0 -16 3.5t-11 12.5q-13 25 -32.5 36.5t-48.5 11.5q-35 0 -56.5 -15t-21.5 -38q0 -20 20 -31.5t90 -22.5q57 -8 84.5 -16t47.5 -18q33 -18 49 -46t16 -67z" />
    <glyph glyph-name="uni0162" unicode="&#x162;" horiz-adv-x="604" 
d="M354 0h-104q-7 0 -13 6t-6 13v520q0 8 -5.5 13.5t-12.5 5.5h-184q-8 0 -13.5 5.5t-5.5 12.5v85q0 8 6 13.5t13 5.5h546q8 0 13.5 -5.5t5.5 -13.5v-85q0 -7 -5.5 -12.5t-13.5 -5.5h-184q-7 0 -12.5 -5.5t-5.5 -13.5v-520q0 -7 -5.5 -13t-13.5 -6zM368 -108
q0 -25 -22.5 -56t-58.5 -55q-18 -12 -38 0t-10 30q1 2 3.5 5t10.5 11q7 8 11 12t7 8q-17 8 -26 19.5t-9 26.5q0 25 18 40t48 15t48 -15t18 -41z" />
    <glyph glyph-name="uni0163" unicode="&#x163;" horiz-adv-x="334" 
d="M304 -5h-5q-111 0 -165 50.5t-54 153.5v169q0 8 -5 13t-13 5h-35q-8 0 -13.5 5.5t-5.5 12.5v79q0 8 6 13.5t13 5.5h35q8 0 13 5.5t5 12.5v86q0 8 5.5 13.5t12.5 5.5h99q8 0 13.5 -5.5t5.5 -13.5v-86q0 -7 5.5 -12.5t13.5 -5.5h65q8 0 13.5 -5.5t5.5 -13.5v-79
q0 -7 -5.5 -12.5t-13.5 -5.5h-65q-7 0 -13 -5.5t-6 -13.5v-167q0 -42 22.5 -64t65.5 -22q7 0 12 -4.5t5 -11.5v-85q0 -8 -5 -13t-12 -5zM251 -108q0 -25 -22.5 -56t-58.5 -55q-18 -12 -38 0t-10 30q1 2 3.5 5t10.5 11q7 8 11 12t7 8q-17 8 -26 19.5t-9 26.5q0 25 18 40
t48 15t48 -15t18 -41z" />
    <glyph glyph-name="Tcaron" unicode="&#x164;" horiz-adv-x="604" 
d="M359 726h-113q-6 0 -11.5 4t-9.5 11l-49 86q-6 11 -2 20t15 9h53q5 0 8.5 -2t6.5 -6l37 -42q4 -3 5.5 -3.5t3.5 -0.5t4 1t4 3l38 42q3 4 6.5 6t8.5 2h53q11 0 15 -9t-2 -20l-49 -86q-4 -6 -10 -10.5t-12 -4.5zM354 0h-104q-7 0 -13 6t-6 13v520q0 8 -5.5 13.5t-12.5 5.5
h-184q-8 0 -13.5 5.5t-5.5 12.5v85q0 8 6 13.5t13 5.5h546q8 0 13.5 -5.5t5.5 -13.5v-85q0 -7 -5.5 -12.5t-13.5 -5.5h-184q-7 0 -12.5 -5.5t-5.5 -13.5v-520q0 -7 -5.5 -13t-13.5 -6z" />
    <glyph glyph-name="tcaron" unicode="&#x165;" horiz-adv-x="334" 
d="M382 655q0 -25 -22.5 -55.5t-57.5 -55.5q-17 -12 -37 -0.5t-12 28.5q1 3 9.5 12.5t23.5 25.5q-16 7 -25.5 19t-9.5 27q0 25 18 39.5t48 14.5t47.5 -14.5t17.5 -40.5zM304 -5h-5q-111 0 -165 50.5t-54 153.5v169q0 8 -5 13t-13 5h-35q-8 0 -13.5 5.5t-5.5 12.5v79
q0 8 6 13.5t13 5.5h35q8 0 13 5.5t5 12.5v86q0 8 5.5 13.5t12.5 5.5h99q8 0 13.5 -5.5t5.5 -13.5v-86q0 -7 5.5 -12.5t13.5 -5.5h65q8 0 13.5 -5.5t5.5 -13.5v-79q0 -7 -5.5 -12.5t-13.5 -5.5h-65q-7 0 -13 -5.5t-6 -13.5v-167q0 -42 22.5 -64t65.5 -22q7 0 12 -4.5t5 -11.5
v-85q0 -8 -5 -13t-12 -5z" />
    <glyph glyph-name="Tbar" unicode="&#x166;" horiz-adv-x="604" 
d="M373 255v-236q0 -7 -5.5 -13t-13.5 -6h-104q-7 0 -13 6t-6 13v236q0 9 -5 14t-14 5h-70q-7 0 -13 6t-6 13v79q0 8 6 13.5t13 5.5h70q9 0 14 5t5 14v129q0 8 -5.5 13.5t-12.5 5.5h-184q-8 0 -13.5 5.5t-5.5 12.5v85q0 8 6 13.5t13 5.5h546q8 0 13.5 -5.5t5.5 -13.5v-85
q0 -7 -5.5 -12.5t-13.5 -5.5h-184q-7 0 -12.5 -5.5t-5.5 -13.5v-129q0 -9 5 -14t14 -5h70q8 0 13.5 -5.5t5.5 -13.5v-79q0 -7 -5.5 -13t-13.5 -6h-70q-9 0 -14 -5t-5 -14z" />
    <glyph glyph-name="tbar" unicode="&#x167;" horiz-adv-x="334" 
d="M321 98v-85q0 -8 -5 -13t-12 -5h-5q-110 0 -164.5 50t-54.5 152q0 8 -5 13t-13 5h-36q-7 0 -12.5 5.5t-5.5 12.5v50q0 8 5.5 13.5t12.5 5.5h36q8 0 13 5.5t5 12.5v48q0 8 -5 13t-13 5h-35q-8 0 -13.5 5.5t-5.5 12.5v79q0 8 6 13.5t13 5.5h35q8 0 13 5.5t5 12.5v86
q0 8 5.5 13.5t12.5 5.5h99q8 0 13.5 -5.5t5.5 -13.5v-86q0 -7 5.5 -12.5t13.5 -5.5h65q8 0 13.5 -5.5t5.5 -13.5v-79q0 -7 -5.5 -12.5t-13.5 -5.5h-65q-7 0 -13 -5.5t-6 -13.5v-47q0 -7 5.5 -12.5t12.5 -5.5h66q8 0 13.5 -5.5t5.5 -13.5v-50q0 -7 -5.5 -12.5t-13.5 -5.5h-66
q-7 0 -12.5 -5t-5.5 -13q0 -41 22.5 -62t65.5 -21q7 0 12 -4.5t5 -11.5z" />
    <glyph glyph-name="Utilde" unicode="&#x168;" horiz-adv-x="714" 
d="M488 785q-13 -25 -35.5 -42t-45.5 -17q-11 0 -25.5 3.5t-44.5 15.5q-22 8 -30.5 10.5t-13.5 2.5q-6 0 -12 -3t-17 -14q-8 -8 -12.5 -8t-9.5 5l-24 24q-4 4 -4.5 9.5t2.5 11.5q11 23 34 39t47 16q11 0 26.5 -3.5t46.5 -14.5q20 -7 27.5 -9t11.5 -2q7 0 12.5 3t18.5 17
q6 7 11.5 8t10.5 -4l23 -26q5 -5 5.5 -10.5t-2.5 -11.5zM356 -13q-135 0 -213 84t-78 230v360q0 8 5.5 13.5t12.5 5.5h104q8 0 13.5 -5.5t5.5 -13.5v-364q0 -82 41 -131t110 -49t110 49t41 131v364q0 8 5.5 13.5t12.5 5.5h104q8 0 13.5 -5.5t5.5 -13.5v-360
q0 -146 -78.5 -230t-214.5 -84z" />
    <glyph glyph-name="utilde" unicode="&#x169;" horiz-adv-x="592" 
d="M423 609q-13 -25 -35.5 -42t-45.5 -17q-11 0 -25.5 3.5t-44.5 15.5q-22 8 -30.5 10.5t-13.5 2.5q-6 0 -12 -3t-17 -14q-8 -8 -12.5 -8t-9.5 5l-24 24q-4 4 -4.5 9.5t2.5 11.5q11 23 34 39t47 16q11 0 26.5 -3.5t46.5 -14.5q20 -7 27.5 -9t11.5 -2q7 0 12.5 3t18.5 17
q6 7 11.5 8t10.5 -4l23 -26q5 -5 5.5 -10.5t-2.5 -11.5zM395 54q-28 -33 -65 -50t-82 -17q-86 0 -139.5 55t-53.5 143v298q0 8 6 13.5t13 5.5h99q7 0 12.5 -5.5t5.5 -13.5v-274q0 -46 26.5 -74.5t68.5 -28.5t73.5 30.5t31.5 72.5v274q0 8 5.5 13.5t12.5 5.5h99
q8 0 13.5 -5.5t5.5 -13.5v-331q0 -19 6 -27.5t20 -9.5q7 -1 12 -5.5t5 -10.5v-87q0 -7 -5 -12t-12 -5q-49 0 -82 14t-52 43q-6 9 -11.5 9.5t-12.5 -7.5z" />
    <glyph glyph-name="Umacron" unicode="&#x16a;" horiz-adv-x="714" 
d="M464 742h-221q-7 0 -12.5 5.5t-5.5 12.5v50q0 8 5.5 13.5t12.5 5.5h221q8 0 13.5 -5.5t5.5 -13.5v-50q0 -7 -5.5 -12.5t-13.5 -5.5zM356 -13q-135 0 -213 84t-78 230v360q0 8 5.5 13.5t12.5 5.5h104q8 0 13.5 -5.5t5.5 -13.5v-364q0 -82 41 -131t110 -49t110 49t41 131
v364q0 8 5.5 13.5t12.5 5.5h104q8 0 13.5 -5.5t5.5 -13.5v-360q0 -146 -78.5 -230t-214.5 -84z" />
    <glyph glyph-name="umacron" unicode="&#x16b;" horiz-adv-x="592" 
d="M397 566h-221q-7 0 -12.5 5.5t-5.5 12.5v50q0 8 5.5 13.5t12.5 5.5h221q8 0 13.5 -5.5t5.5 -13.5v-50q0 -7 -5.5 -12.5t-13.5 -5.5zM395 54q-28 -33 -65 -50t-82 -17q-86 0 -139.5 55t-53.5 143v298q0 8 6 13.5t13 5.5h99q7 0 12.5 -5.5t5.5 -13.5v-274q0 -46 26.5 -74.5
t68.5 -28.5t73.5 30.5t31.5 72.5v274q0 8 5.5 13.5t12.5 5.5h99q8 0 13.5 -5.5t5.5 -13.5v-331q0 -19 6 -27.5t20 -9.5q7 -1 12 -5.5t5 -10.5v-87q0 -7 -5 -12t-12 -5q-49 0 -82 14t-52 43q-6 9 -11.5 9.5t-12.5 -7.5z" />
    <glyph glyph-name="Ubreve" unicode="&#x16c;" horiz-adv-x="714" 
d="M485 835q0 -47 -35.5 -78t-95.5 -31q-59 0 -94.5 31t-35.5 78q0 9 4.5 15t12.5 6h48q8 0 13 -4.5t7 -13.5q4 -19 15.5 -28t29.5 -9q19 0 29.5 9t15.5 28q2 9 7 13.5t13 4.5h48q8 0 13 -6t5 -15zM356 -13q-135 0 -213 84t-78 230v360q0 8 5.5 13.5t12.5 5.5h104
q8 0 13.5 -5.5t5.5 -13.5v-364q0 -82 41 -131t110 -49t110 49t41 131v364q0 8 5.5 13.5t12.5 5.5h104q8 0 13.5 -5.5t5.5 -13.5v-360q0 -146 -78.5 -230t-214.5 -84z" />
    <glyph glyph-name="ubreve" unicode="&#x16d;" horiz-adv-x="592" 
d="M420 659q0 -47 -35.5 -78t-95.5 -31q-59 0 -94.5 31t-35.5 78q0 9 4.5 15t12.5 6h48q8 0 13 -4.5t7 -13.5q4 -19 15.5 -28t29.5 -9q19 0 29.5 9t15.5 28q2 9 7 13.5t13 4.5h48q8 0 13 -6t5 -15zM395 54q-28 -33 -65 -50t-82 -17q-86 0 -139.5 55t-53.5 143v298
q0 8 6 13.5t13 5.5h99q7 0 12.5 -5.5t5.5 -13.5v-274q0 -46 26.5 -74.5t68.5 -28.5t73.5 30.5t31.5 72.5v274q0 8 5.5 13.5t12.5 5.5h99q8 0 13.5 -5.5t5.5 -13.5v-331q0 -19 6 -27.5t20 -9.5q7 -1 12 -5.5t5 -10.5v-87q0 -7 -5 -12t-12 -5q-49 0 -82 14t-52 43
q-6 9 -11.5 9.5t-12.5 -7.5z" />
    <glyph glyph-name="Uring" unicode="&#x16e;" horiz-adv-x="714" 
d="M441 811q0 -35 -25.5 -60t-61.5 -25t-61 25t-25 60q0 36 25 61.5t61 25.5t61.5 -25.5t25.5 -61.5zM320 811q0 -15 10 -25t24 -10q15 0 25 10t10 25t-10 25t-25 10q-14 0 -24 -10t-10 -25zM356 -13q-135 0 -213 84t-78 230v360q0 8 5.5 13.5t12.5 5.5h104q8 0 13.5 -5.5
t5.5 -13.5v-364q0 -82 41 -131t110 -49t110 49t41 131v364q0 8 5.5 13.5t12.5 5.5h104q8 0 13.5 -5.5t5.5 -13.5v-360q0 -146 -78.5 -230t-214.5 -84z" />
    <glyph glyph-name="uring" unicode="&#x16f;" horiz-adv-x="592" 
d="M377 635q0 -35 -25.5 -60t-61.5 -25t-61 25t-25 60q0 36 25 61.5t61 25.5t61.5 -25.5t25.5 -61.5zM256 635q0 -15 10 -25t24 -10q15 0 25 10t10 25t-10 25t-25 10q-14 0 -24 -10t-10 -25zM395 54q-28 -33 -65 -50t-82 -17q-86 0 -139.5 55t-53.5 143v298q0 8 6 13.5
t13 5.5h99q7 0 12.5 -5.5t5.5 -13.5v-274q0 -46 26.5 -74.5t68.5 -28.5t73.5 30.5t31.5 72.5v274q0 8 5.5 13.5t12.5 5.5h99q8 0 13.5 -5.5t5.5 -13.5v-331q0 -19 6 -27.5t20 -9.5q7 -1 12 -5.5t5 -10.5v-87q0 -7 -5 -12t-12 -5q-49 0 -82 14t-52 43q-6 9 -11.5 9.5
t-12.5 -7.5z" />
    <glyph glyph-name="Uhungarumlaut" unicode="&#x170;" horiz-adv-x="714" 
d="M312 726h-46q-8 0 -12.5 6.5t-1.5 14.5l28 92q2 7 8 12t13 5h57q9 0 14 -8.5t1 -17.5l-42 -89q-4 -8 -8.5 -11.5t-10.5 -3.5zM438 726h-46q-8 0 -12.5 6.5t-1.5 14.5l28 92q2 7 8.5 12t12.5 5h57q10 0 14.5 -8t0.5 -18l-42 -89q-4 -8 -8.5 -11.5t-10.5 -3.5zM356 -13
q-135 0 -213 84t-78 230v360q0 8 5.5 13.5t12.5 5.5h104q8 0 13.5 -5.5t5.5 -13.5v-364q0 -82 41 -131t110 -49t110 49t41 131v364q0 8 5.5 13.5t12.5 5.5h104q8 0 13.5 -5.5t5.5 -13.5v-360q0 -146 -78.5 -230t-214.5 -84z" />
    <glyph glyph-name="uhungarumlaut" unicode="&#x171;" horiz-adv-x="592" 
d="M247 550h-46q-8 0 -12.5 6.5t-1.5 14.5l28 92q2 7 8 12t13 5h57q9 0 14 -8.5t1 -17.5l-42 -89q-4 -8 -8.5 -11.5t-10.5 -3.5zM373 550h-46q-8 0 -12.5 6.5t-1.5 14.5l28 92q2 7 8.5 12t12.5 5h57q10 0 14.5 -8t0.5 -18l-42 -89q-4 -8 -8.5 -11.5t-10.5 -3.5zM395 54
q-28 -33 -65 -50t-82 -17q-86 0 -139.5 55t-53.5 143v298q0 8 6 13.5t13 5.5h99q7 0 12.5 -5.5t5.5 -13.5v-274q0 -46 26.5 -74.5t68.5 -28.5t73.5 30.5t31.5 72.5v274q0 8 5.5 13.5t12.5 5.5h99q8 0 13.5 -5.5t5.5 -13.5v-331q0 -19 6 -27.5t20 -9.5q7 -1 12 -5.5t5 -10.5
v-87q0 -7 -5 -12t-12 -5q-49 0 -82 14t-52 43q-6 9 -11.5 9.5t-12.5 -7.5z" />
    <glyph glyph-name="Uogonek" unicode="&#x172;" horiz-adv-x="714" 
d="M394 -189q-13 -3 -29 -5t-33 -2q-48 0 -74 19.5t-26 54.5q0 24 17.5 52t46.5 53q5 5 4.5 7.5t-7.5 4.5q-108 19 -168 100t-60 209v357q0 8 5.5 13.5t12.5 5.5h104q8 0 13.5 -5.5t5.5 -13.5v-361q0 -82 41 -131t110 -49t110 49.5t41 130.5v361q0 8 5.5 13.5t12.5 5.5h104
q8 0 13.5 -5.5t5.5 -13.5v-357q0 -128 -61.5 -209.5t-171.5 -99.5q-10 -1 -17.5 -5.5t-20.5 -16.5q-24 -22 -37 -41t-13 -32q0 -12 7.5 -18.5t21.5 -6.5q5 0 11.5 0.5t21.5 2.5q10 1 15 -3.5t5 -15.5v-29q0 -8 -4 -12.5t-12 -6.5z" />
    <glyph glyph-name="uogonek" unicode="&#x173;" horiz-adv-x="592" 
d="M553 -188q-12 -3 -29.5 -5t-34.5 -2q-48 0 -74 19.5t-26 54.5q0 25 20.5 55t56.5 58q8 6 8.5 10.5t-6.5 7.5q-17 8 -29 18.5t-20 23.5q-6 9 -11.5 9.5t-12.5 -7.5q-25 -31 -63 -47.5t-84 -16.5q-86 0 -139.5 54t-53.5 141v298q0 8 6 13.5t13 5.5h99q7 0 12.5 -5.5
t5.5 -13.5v-274q0 -45 26 -72.5t69 -27.5t74 29.5t31 70.5v274q0 8 5.5 13.5t12.5 5.5h99q8 0 13.5 -5.5t5.5 -13.5v-331q0 -19 6 -27.5t20 -9.5q7 -1 12 -5.5t5 -10.5v-88q0 -5 -1.5 -8t-5.5 -4q-30 -21 -54.5 -50t-24.5 -49q0 -12 8 -18.5t22 -6.5q2 0 10.5 1t24.5 3
q10 1 15 -3.5t5 -15.5v-29q0 -8 -4 -12.5t-12 -6.5z" />
    <glyph glyph-name="Wcircumflex" unicode="&#x174;" horiz-adv-x="1010" 
d="M444 726h-53q-11 0 -15 9t2 19l49 86q4 7 9.5 11.5t11.5 4.5h113q5 0 11.5 -4.5t10.5 -11.5l49 -86q6 -10 2 -19t-15 -9h-53q-4 0 -8 2t-7 5l-38 42q-2 2 -4 3t-4 1t-3.5 -0.5t-5.5 -3.5l-37 -42q-3 -3 -7 -5t-8 -2zM882 680h114q10 0 14 -6t1 -16l-203 -642
q-2 -7 -7.5 -11.5t-11.5 -4.5h-102q-6 0 -11.5 4.5t-8.5 11.5l-157 415q-2 6 -7 6.5t-7 -6.5l-158 -415q-3 -7 -8.5 -11.5t-11.5 -4.5h-102q-6 0 -11.5 4.5t-7.5 11.5l-199 642q-3 9 1.5 15.5t13.5 6.5h121q7 0 11.5 -3.5t6.5 -10.5l127 -420q2 -6 7 -6t7 6l151 417
q3 8 8.5 12.5t13.5 4.5h77q8 0 13 -4t8 -13l158 -420q2 -6 7 -6t6 6l128 423q2 7 7 10.5t12 3.5z" />
    <glyph glyph-name="wcircumflex" unicode="&#x175;" horiz-adv-x="765" 
d="M319 550h-53q-11 0 -15 9t2 19l49 86q4 7 9.5 11.5t11.5 4.5h113q5 0 11.5 -4.5t10.5 -11.5l49 -86q6 -10 2 -19t-15 -9h-53q-4 0 -8 2t-7 5l-38 42q-2 2 -4 3t-4 1t-3.5 -0.5t-5.5 -3.5l-37 -42q-3 -3 -7 -5t-8 -2zM252 0h-84q-6 0 -11 4t-7 11l-148 461q-4 11 1.5 18.5
t15.5 7.5h100q7 0 13 -5t8 -13l81 -275q2 -8 8 -8t9 8l99 275q4 10 8.5 14t12.5 4h54q9 0 13.5 -4t7.5 -14l95 -279q2 -7 6.5 -6.5t6.5 6.5l88 279q3 10 7.5 14t12.5 4h97q10 0 15.5 -7.5t2.5 -16.5l-156 -462q-2 -8 -7 -12t-12 -4h-85q-6 0 -11 4t-7 12l-98 277
q-2 7 -7.5 6.5t-7.5 -7.5l-102 -276q-3 -8 -7.5 -12t-11.5 -4z" />
    <glyph glyph-name="Ycircumflex" unicode="&#x176;" horiz-adv-x="620" 
d="M250 726h-53q-11 0 -15 9t2 19l49 86q4 7 9.5 11.5t11.5 4.5h113q5 0 11.5 -4.5t10.5 -11.5l49 -86q6 -10 2 -19t-15 -9h-53q-4 0 -8 2t-7 5l-38 42q-2 2 -4 3t-4 1t-3.5 -0.5t-5.5 -3.5l-37 -42q-3 -3 -7 -5t-8 -2zM359 0h-104q-7 0 -12.5 5.5t-5.5 13.5v213
q0 14 -1.5 21t-4.5 12l-233 389q-5 9 -1.5 17.5t13.5 8.5h112q6 0 11 -3.5t10 -11.5l157 -257q4 -7 9.5 -7t9.5 7l160 257q4 7 9.5 11t11.5 4h106q10 0 14.5 -8t-1.5 -18l-234 -388q-4 -6 -5.5 -14t-1.5 -20v-213q0 -7 -5.5 -13t-13.5 -6z" />
    <glyph glyph-name="ycircumflex" unicode="&#x177;" horiz-adv-x="530" 
d="M200 550h-53q-11 0 -15 9t2 19l49 86q4 7 9.5 11.5t11.5 4.5h113q5 0 11.5 -4.5t10.5 -11.5l49 -86q6 -10 2 -19t-15 -9h-53q-4 0 -8 2t-7 5l-38 42q-2 2 -4 3t-4 1t-3.5 -0.5t-5.5 -3.5l-37 -42q-3 -3 -7 -5t-8 -2zM48 -195q-7 0 -13 5.5t-6 13.5v81q0 7 5.5 12.5
t13.5 5.5q53 0 93.5 26.5t50.5 69.5q3 10 2 19t-6 21l-184 416q-4 11 1 19t15 8h99q6 0 11 -4.5t9 -13.5l115 -266q7 -16 15 -15.5t15 16.5l110 267q3 9 7.5 12.5t11.5 3.5h95q10 0 15.5 -7.5t1.5 -16.5l-189 -449q-53 -125 -117 -174.5t-171 -49.5z" />
    <glyph glyph-name="Ydieresis" unicode="&#x178;" horiz-adv-x="620" 
d="M298 793q0 -24 -17.5 -42t-41.5 -18q-25 0 -43 18t-18 42t18 41.5t43 17.5q24 0 41.5 -17.5t17.5 -41.5zM443 793q0 -24 -17.5 -42t-41.5 -18t-42 18t-18 42q0 25 17.5 42t42.5 17t42 -17t17 -42zM359 0h-104q-7 0 -12.5 5.5t-5.5 13.5v213q0 14 -1.5 21t-4.5 12
l-233 389q-5 9 -1.5 17.5t13.5 8.5h112q6 0 11 -3.5t10 -11.5l157 -257q4 -7 9.5 -7t9.5 7l160 257q4 7 9.5 11t11.5 4h106q10 0 14.5 -8t-1.5 -18l-234 -388q-4 -6 -5.5 -14t-1.5 -20v-213q0 -7 -5.5 -13t-13.5 -6z" />
    <glyph glyph-name="Zacute" unicode="&#x179;" horiz-adv-x="559" 
d="M316 726h-76q-9 0 -12.5 6.5t-0.5 14.5l40 92q4 9 9 13t12 4h107q10 0 14 -9t-3 -19l-66 -87q-6 -9 -11.5 -12t-12.5 -3zM525 0h-492q-8 0 -13.5 5.5t-5.5 12.5v76q0 7 1.5 12.5t4.5 9.5l327 423q6 8 3.5 13.5t-12.5 5.5h-296q-8 0 -13.5 5.5t-5.5 12.5v85q0 8 6 13.5
t13 5.5h476q8 0 13.5 -5.5t5.5 -13.5v-70q0 -7 -1.5 -12t-5.5 -10l-333 -430q-5 -7 -3 -12.5t10 -5.5h321q8 0 13.5 -5.5t5.5 -13.5v-84q0 -7 -5.5 -12.5t-13.5 -5.5z" />
    <glyph glyph-name="zacute" unicode="&#x17a;" horiz-adv-x="463" 
d="M269 550h-76q-9 0 -12.5 6.5t-0.5 14.5l40 92q4 9 9 13t12 4h107q10 0 14 -9t-3 -19l-66 -87q-6 -9 -11.5 -12t-12.5 -3zM425 0h-389q-8 0 -13.5 5.5t-5.5 12.5v81q0 5 1.5 10t5.5 9l226 248q6 6 4 13t-10 7h-201q-8 0 -13.5 5.5t-5.5 12.5v79q0 8 6 13.5t13 5.5h376
q8 0 13.5 -5.5t5.5 -13.5v-79q0 -5 -1.5 -9t-4.5 -8l-233 -255q-4 -5 -3 -9.5t7 -4.5h222q8 0 13.5 -5.5t5.5 -13.5v-81q0 -7 -5.5 -12.5t-13.5 -5.5z" />
    <glyph glyph-name="Zdotaccent" unicode="&#x17b;" horiz-adv-x="559" 
d="M340 793q0 -25 -18 -43.5t-43 -18.5t-43.5 18.5t-18.5 43.5q0 26 18.5 44t43.5 18t43 -18.5t18 -43.5zM525 0h-492q-8 0 -13.5 5.5t-5.5 12.5v76q0 7 1.5 12.5t4.5 9.5l327 423q6 8 3.5 13.5t-12.5 5.5h-296q-8 0 -13.5 5.5t-5.5 12.5v85q0 8 6 13.5t13 5.5h476
q8 0 13.5 -5.5t5.5 -13.5v-70q0 -7 -1.5 -12t-5.5 -10l-333 -430q-5 -7 -3 -12.5t10 -5.5h321q8 0 13.5 -5.5t5.5 -13.5v-84q0 -7 -5.5 -12.5t-13.5 -5.5z" />
    <glyph glyph-name="zdotaccent" unicode="&#x17c;" horiz-adv-x="463" 
d="M292 617q0 -25 -18 -43.5t-43 -18.5t-43.5 18.5t-18.5 43.5q0 26 18.5 44t43.5 18t43 -18.5t18 -43.5zM425 0h-389q-8 0 -13.5 5.5t-5.5 12.5v81q0 5 1.5 10t5.5 9l226 248q6 6 4 13t-10 7h-201q-8 0 -13.5 5.5t-5.5 12.5v79q0 8 6 13.5t13 5.5h376q8 0 13.5 -5.5
t5.5 -13.5v-79q0 -5 -1.5 -9t-4.5 -8l-233 -255q-4 -5 -3 -9.5t7 -4.5h222q8 0 13.5 -5.5t5.5 -13.5v-81q0 -7 -5.5 -12.5t-13.5 -5.5z" />
    <glyph glyph-name="Zcaron" unicode="&#x17d;" horiz-adv-x="559" 
d="M335 726h-113q-6 0 -11.5 4t-9.5 11l-49 86q-6 11 -2 20t15 9h53q5 0 8.5 -2t6.5 -6l37 -42q4 -3 5.5 -3.5t3.5 -0.5t4 1t4 3l38 42q3 4 6.5 6t8.5 2h53q11 0 15 -9t-2 -20l-49 -86q-4 -6 -10 -10.5t-12 -4.5zM525 0h-492q-8 0 -13.5 5.5t-5.5 12.5v76q0 7 1.5 12.5
t4.5 9.5l327 423q6 8 3.5 13.5t-12.5 5.5h-296q-8 0 -13.5 5.5t-5.5 12.5v85q0 8 6 13.5t13 5.5h476q8 0 13.5 -5.5t5.5 -13.5v-70q0 -7 -1.5 -12t-5.5 -10l-333 -430q-5 -7 -3 -12.5t10 -5.5h321q8 0 13.5 -5.5t5.5 -13.5v-84q0 -7 -5.5 -12.5t-13.5 -5.5z" />
    <glyph glyph-name="zcaron" unicode="&#x17e;" horiz-adv-x="463" 
d="M287 550h-113q-6 0 -11.5 4t-9.5 11l-49 86q-6 11 -2 20t15 9h53q5 0 8.5 -2t6.5 -6l37 -42q4 -3 5.5 -3.5t3.5 -0.5t4 1t4 3l38 42q3 4 6.5 6t8.5 2h53q11 0 15 -9t-2 -20l-49 -86q-4 -6 -10 -10.5t-12 -4.5zM425 0h-389q-8 0 -13.5 5.5t-5.5 12.5v81q0 5 1.5 10t5.5 9
l226 248q6 6 4 13t-10 7h-201q-8 0 -13.5 5.5t-5.5 12.5v79q0 8 6 13.5t13 5.5h376q8 0 13.5 -5.5t5.5 -13.5v-79q0 -5 -1.5 -9t-4.5 -8l-233 -255q-4 -5 -3 -9.5t7 -4.5h222q8 0 13.5 -5.5t5.5 -13.5v-81q0 -7 -5.5 -12.5t-13.5 -5.5z" />
    <glyph glyph-name="longs" unicode="&#x17f;" horiz-adv-x="320" 
d="M197 0h-99q-7 0 -12.5 5.5t-5.5 13.5v349q0 7 -5.5 12.5t-13.5 5.5h-34q-7 0 -13 6t-6 13v79q0 7 5.5 12.5t13.5 5.5h35q9 0 13.5 4.5t4.5 13.5v3q0 96 54 141.5t169 45.5h5q7 0 11.5 -5t4.5 -13v-83q0 -7 -4.5 -12t-11.5 -5q-48 0 -70 -16.5t-22 -51.5v-505
q0 -7 -5.5 -13t-13.5 -6z" />
    <glyph glyph-name="florin" unicode="&#x192;" 
d="M158 -190h-6q-7 0 -12 4.5t-5 12.5v84q0 7 4.5 11.5t11.5 4.5q48 0 70 17.5t22 53.5v269q0 7 -5.5 12.5t-13.5 5.5h-94q-7 0 -13 6t-6 13v79q0 7 5.5 12.5t13.5 5.5h96q8 0 12.5 5t4.5 13v84q0 96 54 141.5t169 45.5h5q7 0 11.5 -5t4.5 -13v-84q0 -7 -4.5 -11.5
t-11.5 -4.5q-48 0 -70 -16.5t-22 -51.5v-85q0 -8 5.5 -13t13.5 -5h113q8 0 13.5 -5.5t5.5 -12.5v-79q0 -7 -5.5 -13t-13.5 -6h-113q-8 0 -13.5 -5.5t-5.5 -12.5v-268q0 -97 -54 -143t-167 -46z" />
    <glyph glyph-name="uni0218" unicode="&#x218;" horiz-adv-x="598" 
d="M584 210q0 -101 -80 -162t-208 -61q-115 0 -191.5 57t-89.5 155q-1 9 3 13.5t15 4.5h99q10 0 15.5 -4t7.5 -12q13 -42 55 -69t97 -27q58 0 96.5 25.5t38.5 65.5q0 39 -34.5 60t-150.5 36q-130 17 -183.5 60.5t-53.5 123.5q0 95 76 156t196 61q110 0 182.5 -50.5
t87.5 -139.5q2 -11 -1.5 -16.5t-13.5 -5.5h-99q-10 0 -15.5 3.5t-8.5 13.5q-16 36 -52.5 56t-87.5 20q-52 0 -87.5 -23t-35.5 -56q0 -34 35.5 -53.5t128.5 -31.5q138 -18 198.5 -66t60.5 -134zM368 -108q0 -25 -22.5 -56t-58.5 -55q-18 -12 -38 0t-10 30q1 2 3.5 5t10.5 11
q7 8 11 12t7 8q-17 8 -26 19.5t-9 26.5q0 25 18 40t48 15t48 -15t18 -41z" />
    <glyph glyph-name="uni0219" unicode="&#x219;" horiz-adv-x="503" 
d="M480 162q0 -78 -63.5 -126.5t-162.5 -48.5q-95 0 -156 40t-69 106q-2 14 2.5 18.5t15.5 4.5h91q10 0 16 -3.5t12 -13.5q16 -29 38.5 -41t55.5 -12q38 0 62.5 16.5t24.5 40.5q0 21 -20.5 32.5t-91.5 22.5q-57 9 -84.5 16.5t-47.5 18.5q-34 18 -50 46t-16 67
q0 78 58.5 123.5t159.5 45.5q84 0 137 -36t69 -103q3 -13 -2 -18.5t-17 -5.5h-83q-10 0 -16 3.5t-11 12.5q-13 25 -32.5 36.5t-48.5 11.5q-35 0 -56.5 -15t-21.5 -38q0 -20 20 -31.5t90 -22.5q57 -8 84.5 -16t47.5 -18q33 -18 49 -46t16 -67zM320 -108q0 -25 -22.5 -56
t-58.5 -55q-18 -12 -38 0t-10 30q1 2 3.5 5t10.5 11q7 8 11 12t7 8q-17 8 -26 19.5t-9 26.5q0 25 18 40t48 15t48 -15t18 -41z" />
    <glyph glyph-name="uni021A" unicode="&#x21a;" horiz-adv-x="604" 
d="M354 0h-104q-7 0 -13 6t-6 13v520q0 8 -5.5 13.5t-12.5 5.5h-184q-8 0 -13.5 5.5t-5.5 12.5v85q0 8 6 13.5t13 5.5h546q8 0 13.5 -5.5t5.5 -13.5v-85q0 -7 -5.5 -12.5t-13.5 -5.5h-184q-7 0 -12.5 -5.5t-5.5 -13.5v-520q0 -7 -5.5 -13t-13.5 -6zM368 -108
q0 -25 -22.5 -56t-58.5 -55q-18 -12 -38 0t-10 30q1 2 3.5 5t10.5 11q7 8 11 12t7 8q-17 8 -26 19.5t-9 26.5q0 25 18 40t48 15t48 -15t18 -41z" />
    <glyph glyph-name="uni021B" unicode="&#x21b;" horiz-adv-x="334" 
d="M304 -5h-5q-111 0 -165 50.5t-54 153.5v169q0 8 -5 13t-13 5h-35q-8 0 -13.5 5.5t-5.5 12.5v79q0 8 6 13.5t13 5.5h35q8 0 13 5.5t5 12.5v86q0 8 5.5 13.5t12.5 5.5h99q8 0 13.5 -5.5t5.5 -13.5v-86q0 -7 5.5 -12.5t13.5 -5.5h65q8 0 13.5 -5.5t5.5 -13.5v-79
q0 -7 -5.5 -12.5t-13.5 -5.5h-65q-7 0 -13 -5.5t-6 -13.5v-167q0 -42 22.5 -64t65.5 -22q7 0 12 -4.5t5 -11.5v-85q0 -8 -5 -13t-12 -5zM251 -108q0 -25 -22.5 -56t-58.5 -55q-18 -12 -38 0t-10 30q1 2 3.5 5t10.5 11q7 8 11 12t7 8q-17 8 -26 19.5t-9 26.5q0 25 18 40
t48 15t48 -15t18 -41z" />
    <glyph glyph-name="dotlessj" unicode="&#x237;" horiz-adv-x="246" 
d="M-20 -195h-5q-7 0 -11.5 5.5t-4.5 13.5v85q0 7 4.5 11.5t11.5 4.5q42 0 61 20.5t19 64.5v473q0 8 5.5 13.5t12.5 5.5h99q8 0 13.5 -5.5t5.5 -13.5v-474q0 -106 -50.5 -155t-160.5 -49z" />
    <glyph glyph-name="apostrophe" unicode="&#x2bc;" horiz-adv-x="272" 
d="M204 655q0 -25 -22.5 -55.5t-57.5 -55.5q-17 -12 -37 -0.5t-12 28.5q1 3 9.5 12.5t23.5 25.5q-16 7 -25.5 19t-9.5 27q0 25 18 39.5t48 14.5t47.5 -14.5t17.5 -40.5z" />
    <glyph glyph-name="circumflex" unicode="&#x2c6;" horiz-adv-x="258" 
d="M67 550h-53q-11 0 -15 9t2 19l49 86q4 7 9.5 11.5t11.5 4.5h113q5 0 11.5 -4.5t10.5 -11.5l49 -86q6 -10 2 -19t-15 -9h-53q-4 0 -8 2t-7 5l-38 42q-2 2 -4 3t-4 1t-3.5 -0.5t-5.5 -3.5l-37 -42q-3 -3 -7 -5t-8 -2z" />
    <glyph glyph-name="caron" unicode="&#x2c7;" horiz-adv-x="258" 
d="M184 550h-113q-6 0 -11.5 4t-9.5 11l-49 86q-6 11 -2 20t15 9h53q5 0 8.5 -2t6.5 -6l37 -42q4 -3 5.5 -3.5t3.5 -0.5t4 1t4 3l38 42q3 4 6.5 6t8.5 2h53q11 0 15 -9t-2 -20l-49 -86q-4 -6 -10 -10.5t-12 -4.5z" />
    <glyph glyph-name="uni02C9" unicode="&#x2c9;" horiz-adv-x="258" 
d="M285 566h-313q-8 0 -13 5.5t-5 12.5v50q0 8 5.5 13.5t12.5 5.5h313q8 0 13.5 -5.5t5.5 -13.5v-50q0 -7 -5.5 -12.5t-13.5 -5.5z" />
    <glyph glyph-name="breve" unicode="&#x2d8;" horiz-adv-x="258" 
d="M260 659q0 -47 -35.5 -78t-95.5 -31q-59 0 -94.5 31t-35.5 78q0 9 4.5 15t12.5 6h48q8 0 13 -4.5t7 -13.5q4 -19 15.5 -28t29.5 -9q19 0 29.5 9t15.5 28q2 9 7 13.5t13 4.5h48q8 0 13 -6t5 -15z" />
    <glyph glyph-name="dotaccent" unicode="&#x2d9;" horiz-adv-x="258" 
d="M190 617q0 -25 -18 -43.5t-43 -18.5t-43.5 18.5t-18.5 43.5q0 26 18.5 44t43.5 18t43 -18.5t18 -43.5z" />
    <glyph glyph-name="ring" unicode="&#x2da;" horiz-adv-x="258" 
d="M216 635q0 -35 -25.5 -60t-61.5 -25t-61 25t-25 60q0 36 25 61.5t61 25.5t61.5 -25.5t25.5 -61.5zM95 635q0 -15 10 -25t24 -10q15 0 25 10t10 25t-10 25t-25 10q-14 0 -24 -10t-10 -25z" />
    <glyph glyph-name="ogonek" unicode="&#x2db;" horiz-adv-x="258" 
d="M178 -189q-13 -3 -29 -5t-33 -2q-48 0 -74 19.5t-26 54.5q0 29 25.5 63.5t55.5 53.5q4 3 7.5 4t8.5 1h80q-38 -30 -59.5 -56.5t-21.5 -43.5q0 -12 7.5 -18.5t21.5 -6.5q5 0 11.5 0.5t21.5 2.5q10 1 15 -3.5t5 -15.5v-29q0 -8 -4 -12.5t-12 -6.5z" />
    <glyph glyph-name="tilde" unicode="&#x2dc;" horiz-adv-x="258" 
d="M264 609q-13 -25 -35.5 -42t-45.5 -17q-11 0 -25.5 3.5t-44.5 15.5q-22 8 -30.5 10.5t-13.5 2.5q-6 0 -12 -3t-17 -14q-8 -8 -12.5 -8t-9.5 5l-24 24q-4 4 -4.5 9.5t2.5 11.5q11 23 34 39t47 16q11 0 26.5 -3.5t46.5 -14.5q20 -7 27.5 -9t11.5 -2q7 0 12.5 3t18.5 17
q6 7 11.5 8t10.5 -4l23 -26q5 -5 5.5 -10.5t-2.5 -11.5z" />
    <glyph glyph-name="hungarumlaut" unicode="&#x2dd;" horiz-adv-x="258" 
d="M88 550h-46q-8 0 -12.5 6.5t-1.5 14.5l28 92q2 7 8 12t13 5h57q9 0 14 -8.5t1 -17.5l-42 -89q-4 -8 -8.5 -11.5t-10.5 -3.5zM214 550h-46q-8 0 -12.5 6.5t-1.5 14.5l28 92q2 7 8.5 12t12.5 5h57q10 0 14.5 -8t0.5 -18l-42 -89q-4 -8 -8.5 -11.5t-10.5 -3.5z" />
    <glyph glyph-name="pi" unicode="&#x3c0;" horiz-adv-x="616" 
d="M586 -5h-7q-110 0 -163.5 50.5t-53.5 153.5v169q0 8 -5 13t-13 5h-109q-7 0 -13 -5.5t-6 -13.5v-348q0 -7 -5.5 -13t-13.5 -6h-99q-7 0 -12.5 5.5t-5.5 13.5v349q0 8 -5 13t-13 5h-35q-8 0 -13.5 5.5t-5.5 12.5v79q0 8 6 13.5t13 5.5h555q8 0 13.5 -5.5t5.5 -13.5v-79
q0 -7 -5.5 -12.5t-13.5 -5.5h-65q-7 0 -13 -5.5t-6 -13.5v-167q0 -42 22.5 -64t65.5 -22q7 0 11.5 -4.5t4.5 -11.5v-85q0 -8 -4.5 -13t-11.5 -5z" />
    <glyph glyph-name="Wgrave" unicode="&#x1e80;" horiz-adv-x="1010" 
d="M533 726h-77q-7 0 -12.5 3.5t-11.5 11.5l-65 87q-7 9 -3 18.5t14 9.5h107q7 0 12 -4t9 -13l40 -92q3 -8 -0.5 -14.5t-12.5 -6.5zM882 680h114q10 0 14 -6t1 -16l-203 -642q-2 -7 -7.5 -11.5t-11.5 -4.5h-102q-6 0 -11.5 4.5t-8.5 11.5l-157 415q-2 6 -7 6.5t-7 -6.5
l-158 -415q-3 -7 -8.5 -11.5t-11.5 -4.5h-102q-6 0 -11.5 4.5t-7.5 11.5l-199 642q-3 9 1.5 15.5t13.5 6.5h121q7 0 11.5 -3.5t6.5 -10.5l127 -420q2 -6 7 -6t7 6l151 417q3 8 8.5 12.5t13.5 4.5h77q8 0 13 -4t8 -13l158 -420q2 -6 7 -6t6 6l128 423q2 7 7 10.5t12 3.5z" />
    <glyph glyph-name="wgrave" unicode="&#x1e81;" horiz-adv-x="765" 
d="M421 550h-77q-7 0 -12.5 3.5t-11.5 11.5l-65 87q-7 9 -3 18.5t14 9.5h107q7 0 12 -4t9 -13l40 -92q3 -8 -0.5 -14.5t-12.5 -6.5zM252 0h-84q-6 0 -11 4t-7 11l-148 461q-4 11 1.5 18.5t15.5 7.5h100q7 0 13 -5t8 -13l81 -275q2 -8 8 -8t9 8l99 275q4 10 8.5 14t12.5 4h54
q9 0 13.5 -4t7.5 -14l95 -279q2 -7 6.5 -6.5t6.5 6.5l88 279q3 10 7.5 14t12.5 4h97q10 0 15.5 -7.5t2.5 -16.5l-156 -462q-2 -8 -7 -12t-12 -4h-85q-6 0 -11 4t-7 12l-98 277q-2 7 -7.5 6.5t-7.5 -7.5l-102 -276q-3 -8 -7.5 -12t-11.5 -4z" />
    <glyph glyph-name="Wacute" unicode="&#x1e82;" horiz-adv-x="1010" 
d="M543 726h-76q-9 0 -12.5 6.5t-0.5 14.5l40 92q4 9 9 13t12 4h107q10 0 14 -9t-3 -19l-66 -87q-6 -9 -11.5 -12t-12.5 -3zM882 680h114q10 0 14 -6t1 -16l-203 -642q-2 -7 -7.5 -11.5t-11.5 -4.5h-102q-6 0 -11.5 4.5t-8.5 11.5l-157 415q-2 6 -7 6.5t-7 -6.5l-158 -415
q-3 -7 -8.5 -11.5t-11.5 -4.5h-102q-6 0 -11.5 4.5t-7.5 11.5l-199 642q-3 9 1.5 15.5t13.5 6.5h121q7 0 11.5 -3.5t6.5 -10.5l127 -420q2 -6 7 -6t7 6l151 417q3 8 8.5 12.5t13.5 4.5h77q8 0 13 -4t8 -13l158 -420q2 -6 7 -6t6 6l128 423q2 7 7 10.5t12 3.5z" />
    <glyph glyph-name="wacute" unicode="&#x1e83;" horiz-adv-x="765" 
d="M418 550h-76q-9 0 -12.5 6.5t-0.5 14.5l40 92q4 9 9 13t12 4h107q10 0 14 -9t-3 -19l-66 -87q-6 -9 -11.5 -12t-12.5 -3zM252 0h-84q-6 0 -11 4t-7 11l-148 461q-4 11 1.5 18.5t15.5 7.5h100q7 0 13 -5t8 -13l81 -275q2 -8 8 -8t9 8l99 275q4 10 8.5 14t12.5 4h54
q9 0 13.5 -4t7.5 -14l95 -279q2 -7 6.5 -6.5t6.5 6.5l88 279q3 10 7.5 14t12.5 4h97q10 0 15.5 -7.5t2.5 -16.5l-156 -462q-2 -8 -7 -12t-12 -4h-85q-6 0 -11 4t-7 12l-98 277q-2 7 -7.5 6.5t-7.5 -7.5l-102 -276q-3 -8 -7.5 -12t-11.5 -4z" />
    <glyph glyph-name="Wdieresis" unicode="&#x1e84;" horiz-adv-x="1010" 
d="M492 793q0 -24 -17.5 -42t-41.5 -18q-25 0 -43 18t-18 42t18 41.5t43 17.5q24 0 41.5 -17.5t17.5 -41.5zM637 793q0 -24 -17.5 -42t-41.5 -18t-42 18t-18 42q0 25 17.5 42t42.5 17t42 -17t17 -42zM882 680h114q10 0 14 -6t1 -16l-203 -642q-2 -7 -7.5 -11.5t-11.5 -4.5
h-102q-6 0 -11.5 4.5t-8.5 11.5l-157 415q-2 6 -7 6.5t-7 -6.5l-158 -415q-3 -7 -8.5 -11.5t-11.5 -4.5h-102q-6 0 -11.5 4.5t-7.5 11.5l-199 642q-3 9 1.5 15.5t13.5 6.5h121q7 0 11.5 -3.5t6.5 -10.5l127 -420q2 -6 7 -6t7 6l151 417q3 8 8.5 12.5t13.5 4.5h77q8 0 13 -4
t8 -13l158 -420q2 -6 7 -6t6 6l128 423q2 7 7 10.5t12 3.5z" />
    <glyph glyph-name="wdieresis" unicode="&#x1e85;" horiz-adv-x="765" 
d="M367 617q0 -24 -17.5 -42t-41.5 -18q-25 0 -43 18t-18 42t18 41.5t43 17.5q24 0 41.5 -17.5t17.5 -41.5zM512 617q0 -24 -17.5 -42t-41.5 -18t-42 18t-18 42q0 25 17.5 42t42.5 17t42 -17t17 -42zM252 0h-84q-6 0 -11 4t-7 11l-148 461q-4 11 1.5 18.5t15.5 7.5h100
q7 0 13 -5t8 -13l81 -275q2 -8 8 -8t9 8l99 275q4 10 8.5 14t12.5 4h54q9 0 13.5 -4t7.5 -14l95 -279q2 -7 6.5 -6.5t6.5 6.5l88 279q3 10 7.5 14t12.5 4h97q10 0 15.5 -7.5t2.5 -16.5l-156 -462q-2 -8 -7 -12t-12 -4h-85q-6 0 -11 4t-7 12l-98 277q-2 7 -7.5 6.5t-7.5 -7.5
l-102 -276q-3 -8 -7.5 -12t-11.5 -4z" />
    <glyph glyph-name="Ygrave" unicode="&#x1ef2;" horiz-adv-x="620" 
d="M352 726h-77q-7 0 -12.5 3.5t-11.5 11.5l-65 87q-7 9 -3 18.5t14 9.5h107q7 0 12 -4t9 -13l40 -92q3 -8 -0.5 -14.5t-12.5 -6.5zM359 0h-104q-7 0 -12.5 5.5t-5.5 13.5v213q0 14 -1.5 21t-4.5 12l-233 389q-5 9 -1.5 17.5t13.5 8.5h112q6 0 11 -3.5t10 -11.5l157 -257
q4 -7 9.5 -7t9.5 7l160 257q4 7 9.5 11t11.5 4h106q10 0 14.5 -8t-1.5 -18l-234 -388q-4 -6 -5.5 -14t-1.5 -20v-213q0 -7 -5.5 -13t-13.5 -6z" />
    <glyph glyph-name="ygrave" unicode="&#x1ef3;" horiz-adv-x="530" 
d="M302 550h-77q-7 0 -12.5 3.5t-11.5 11.5l-65 87q-7 9 -3 18.5t14 9.5h107q7 0 12 -4t9 -13l40 -92q3 -8 -0.5 -14.5t-12.5 -6.5zM48 -195q-7 0 -13 5.5t-6 13.5v81q0 7 5.5 12.5t13.5 5.5q53 0 93.5 26.5t50.5 69.5q3 10 2 19t-6 21l-184 416q-4 11 1 19t15 8h99
q6 0 11 -4.5t9 -13.5l115 -266q7 -16 15 -15.5t15 16.5l110 267q3 9 7.5 12.5t11.5 3.5h95q10 0 15.5 -7.5t1.5 -16.5l-189 -449q-53 -125 -117 -174.5t-171 -49.5z" />
    <glyph glyph-name="endash" unicode="&#x2013;" horiz-adv-x="500" 
d="M444 214h-390q-7 0 -12.5 5.5t-5.5 13.5v78q0 8 5.5 13.5t12.5 5.5h390q8 0 13.5 -5.5t5.5 -13.5v-78q0 -7 -5.5 -13t-13.5 -6z" />
    <glyph glyph-name="emdash" unicode="&#x2014;" horiz-adv-x="1000" 
d="M944 214h-890q-7 0 -12.5 5.5t-5.5 13.5v78q0 8 5.5 13.5t12.5 5.5h890q8 0 13.5 -5.5t5.5 -13.5v-78q0 -7 -5.5 -13t-13.5 -6z" />
    <glyph glyph-name="quoteleft" unicode="&#x2018;" horiz-adv-x="183" 
d="M123 449h-94q-9 0 -15 8t-3 17l57 189q2 8 7.5 12.5t12.5 4.5h65q8 0 13 -6t4 -15l-29 -192q-1 -7 -6 -12.5t-12 -5.5z" />
    <glyph glyph-name="quoteright" unicode="&#x2019;" horiz-adv-x="183" 
d="M94 449h-65q-9 0 -14 6t-3 15l28 192q1 7 6 12.5t12 5.5h94q10 0 15.5 -7.5t2.5 -17.5l-57 -189q-2 -8 -7 -12.5t-12 -4.5z" />
    <glyph glyph-name="quotesinglbase" unicode="&#x201a;" horiz-adv-x="183" 
d="M94 -107h-65q-8 0 -13 6t-4 14l29 192q2 8 6.5 13t11.5 5h94q9 0 15 -8t3 -17l-58 -188q-3 -9 -7.5 -13t-11.5 -4z" />
    <glyph glyph-name="quotedblleft" unicode="&#x201c;" horiz-adv-x="359" 
d="M123 449h-94q-9 0 -15 8t-3 17l57 189q2 8 7.5 12.5t12.5 4.5h65q8 0 13 -6t4 -15l-29 -192q-1 -7 -6 -12.5t-12 -5.5zM299 449h-94q-9 0 -15 8t-3 17l57 189q2 8 7.5 12.5t12.5 4.5h65q8 0 13 -6t4 -15l-29 -192q-1 -7 -6 -12.5t-12 -5.5z" />
    <glyph glyph-name="quotedblright" unicode="&#x201d;" horiz-adv-x="359" 
d="M94 449h-65q-9 0 -14 6t-3 15l28 192q1 7 6 12.5t12 5.5h94q10 0 15.5 -7.5t2.5 -17.5l-57 -189q-2 -8 -7 -12.5t-12 -4.5zM270 449h-65q-9 0 -14 6t-3 15l28 192q1 7 6 12.5t12 5.5h94q10 0 15.5 -7.5t2.5 -17.5l-57 -189q-2 -8 -7 -12.5t-12 -4.5z" />
    <glyph glyph-name="quotedblbase" unicode="&#x201e;" horiz-adv-x="359" 
d="M94 -107h-65q-8 0 -13 6t-4 14l29 192q2 8 6.5 13t11.5 5h94q9 0 15 -8t3 -17l-58 -188q-3 -9 -7.5 -13t-11.5 -4zM270 -107h-65q-8 0 -13 6t-4 14l29 192q2 8 6.5 13t11.5 5h94q9 0 15 -8t3 -17l-58 -188q-3 -9 -7.5 -13t-11.5 -4z" />
    <glyph glyph-name="dagger" unicode="&#x2020;" 
d="M360 -179h-100q-7 0 -12.5 5.5t-5.5 13.5v527q0 8 -5.5 13.5t-13.5 5.5h-136q-8 0 -13.5 5.5t-5.5 12.5v80q0 7 5.5 12.5t13.5 5.5h136q8 0 13.5 6t5.5 13v140q0 8 5.5 13.5t12.5 5.5h100q7 0 12.5 -5.5t5.5 -13.5v-140q0 -7 6 -13t13 -6h137q8 0 13.5 -5.5t5.5 -12.5
v-80q0 -7 -5.5 -12.5t-13.5 -5.5h-137q-7 0 -13 -5.5t-6 -13.5v-527q0 -8 -5.5 -13.5t-12.5 -5.5z" />
    <glyph glyph-name="daggerdbl" unicode="&#x2021;" 
d="M360 271h-100q-7 0 -12.5 5.5t-5.5 13.5v77q0 8 -5.5 13.5t-13.5 5.5h-136q-8 0 -13.5 5.5t-5.5 12.5v80q0 7 5.5 12.5t13.5 5.5h136q8 0 13.5 6t5.5 13v140q0 8 5.5 13.5t12.5 5.5h100q7 0 12.5 -5.5t5.5 -13.5v-140q0 -7 6 -13t13 -6h137q8 0 13.5 -5.5t5.5 -12.5v-80
q0 -7 -5.5 -12.5t-13.5 -5.5h-137q-7 0 -13 -5.5t-6 -13.5v-77q0 -8 -5.5 -13.5t-12.5 -5.5zM360 -179h-100q-7 0 -12.5 5.5t-5.5 13.5v140q0 7 -5.5 13t-13.5 6h-136q-8 0 -13.5 5.5t-5.5 12.5v79q0 8 6 13.5t13 5.5h136q8 0 13.5 5.5t5.5 12.5v77q0 8 5.5 13.5t12.5 5.5
h100q7 0 12.5 -5.5t5.5 -13.5v-77q0 -7 5.5 -12.5t13.5 -5.5h137q8 0 13.5 -5.5t5.5 -13.5v-79q0 -7 -5.5 -12.5t-13.5 -5.5h-137q-7 0 -13 -6t-6 -13v-140q0 -8 -5.5 -13.5t-12.5 -5.5z" />
    <glyph glyph-name="bullet" unicode="&#x2022;" horiz-adv-x="420" 
d="M374 348q0 -68 -48 -116t-116 -48t-116 48t-48 116t48 116t116 48t116 -48t48 -116z" />
    <glyph glyph-name="ellipsis" unicode="&#x2026;" horiz-adv-x="665" 
d="M189 67q0 -31 -23.5 -54t-55.5 -23t-55 22.5t-23 54.5q0 33 23 56.5t55 23.5t55.5 -23.5t23.5 -56.5zM411 67q0 -32 -23.5 -54.5t-56.5 -22.5q-31 0 -54 23t-23 54q0 33 22.5 56.5t54.5 23.5q33 0 56.5 -23.5t23.5 -56.5zM632 67q0 -32 -23 -54.5t-56 -22.5
q-32 0 -55 22.5t-23 54.5q0 33 23 56.5t55 23.5q33 0 56 -23.5t23 -56.5z" />
    <glyph glyph-name="perthousand" unicode="&#x2030;" horiz-adv-x="1079" 
d="M176 -5h-63q-11 0 -14.5 8t3.5 18l435 653q4 5 9 8t10 3h61q11 0 15 -8.5t-3 -18.5l-435 -653q-4 -5 -8.5 -7.5t-9.5 -2.5zM340 510q0 -74 -43.5 -121.5t-112.5 -47.5t-111.5 47.5t-42.5 121.5t43 122t111 48q69 0 112.5 -48t43.5 -122zM124 510q0 -35 16 -55.5t44 -20.5
q29 0 46 21t17 55t-17 56t-46 22q-28 0 -44 -21t-16 -57zM697 158q0 -74 -43.5 -121t-112.5 -47t-111.5 47t-42.5 121t43 122t111 48q69 0 112.5 -48t43.5 -122zM1049 158q0 -74 -43.5 -121t-112.5 -47t-112 47t-43 121t43.5 122t111.5 48q69 0 112.5 -48t43.5 -122z
M481 158q0 -35 16 -55.5t44 -20.5q29 0 45.5 21t16.5 55q0 35 -16.5 56.5t-45.5 21.5q-28 0 -44 -21t-16 -57zM833 158q0 -35 16 -55.5t44 -20.5q29 0 45.5 21t16.5 55q0 35 -16.5 56.5t-45.5 21.5q-28 0 -44 -21t-16 -57z" />
    <glyph glyph-name="guilsinglleft" unicode="&#x2039;" horiz-adv-x="297" 
d="M254 77h-75q-8 0 -15 3.5t-12 9.5l-115 148q-8 11 -8 20.5t8 19.5l115 146q5 6 12 9.5t15 3.5h75q11 0 15.5 -8.5t-3.5 -18.5l-110 -142q-3 -4 -3 -9t3 -9l110 -146q8 -10 3.5 -18.5t-15.5 -8.5z" />
    <glyph glyph-name="guilsinglright" unicode="&#x203a;" horiz-adv-x="297" 
d="M119 77h-75q-11 0 -15.5 8.5t3.5 18.5l110 146q3 4 3 9t-3 9l-110 142q-8 10 -3.5 18.5t15.5 8.5h75q8 0 15 -3.5t12 -9.5l115 -146q8 -10 8 -19.5t-8 -20.5l-115 -148q-5 -6 -12 -9.5t-15 -3.5z" />
    <glyph glyph-name="fraction" unicode="&#x2044;" horiz-adv-x="100" 
d="M-135 -5h-54q-11 0 -15 8t3 18l418 654q4 5 8 7.5t10 2.5h56q11 0 14.5 -8t-3.5 -18l-419 -654q-4 -5 -8 -7.5t-10 -2.5z" />
    <glyph glyph-name="zerosuperior" unicode="&#x2070;" horiz-adv-x="400" 
d="M374 629q0 -107 -45.5 -165.5t-127.5 -58.5q-83 0 -129 58t-46 166q0 102 46.5 159t128.5 57q81 0 127 -57t46 -159zM130 629q0 -68 17.5 -102t53.5 -34q34 0 51 34.5t17 101.5q0 61 -17.5 93t-50.5 32q-35 0 -53 -31.5t-18 -93.5z" />
    <glyph glyph-name="foursuperior" unicode="&#x2074;" horiz-adv-x="400" 
d="M301 411h-59q-7 0 -13 6t-6 13v69h-182q-8 0 -14 5.5t-6 13.5v45q0 8 2 14.5t6 13.5l173 235q5 7 10.5 10t12.5 3h76q8 0 14.5 -6t6.5 -14v-237h33q8 0 14 -5.5t6 -13.5v-45q0 -7 -6 -13t-14 -6h-33v-69q0 -7 -6.5 -13t-14.5 -6zM224 720l-102 -138h102v138z" />
    <glyph glyph-name="fivesuperior" unicode="&#x2075;" horiz-adv-x="400" 
d="M373 558q0 -66 -49.5 -109.5t-123.5 -43.5q-69 0 -115 34.5t-53 91.5q-1 9 4 14.5t15 5.5h62q8 0 13.5 -4t8.5 -12q7 -20 24.5 -31t42.5 -11q28 0 47.5 18.5t19.5 45.5t-18.5 44.5t-47.5 17.5q-20 0 -35 -5.5t-28 -17.5q-7 -6 -12 -8t-12 -1l-52 6q-10 1 -16 8.5t-5 16.5
l27 202q1 7 7.5 13t14.5 6h237q7 0 13 -6t6 -14v-53q0 -7 -5.5 -12.5t-13.5 -5.5h-164q-5 0 -7.5 -2.5t-3.5 -8.5l-8 -51q17 9 36 13.5t38 4.5q65 0 109 -41t44 -105z" />
    <glyph glyph-name="sixsuperior" unicode="&#x2076;" horiz-adv-x="400" 
d="M377 558q0 -66 -49.5 -109.5t-125.5 -43.5q-77 0 -126.5 42t-49.5 109q0 26 9.5 52.5t25.5 46.5l143 173q4 5 10 8t11 3h80q11 0 15.5 -10.5t-2.5 -19.5l-90 -104q67 -7 108 -47.5t41 -99.5zM129 558q0 -28 21 -46.5t52 -18.5t51.5 18.5t20.5 46.5q0 27 -21 45.5
t-51 18.5q-31 0 -52 -18.5t-21 -45.5z" />
    <glyph glyph-name="sevensuperior" unicode="&#x2077;" horiz-adv-x="400" 
d="M173 411h-73q-12 0 -16 8t1 19l159 310h-188q-9 0 -14.5 5t-5.5 13v53q0 8 6 14t14 6h279q8 0 14.5 -6t6.5 -14v-42q0 -3 -1 -7t-2 -7l-161 -339q-3 -6 -8 -9.5t-11 -3.5z" />
    <glyph glyph-name="eightsuperior" unicode="&#x2078;" horiz-adv-x="400" 
d="M381 541q0 -62 -49 -99t-131 -37q-84 0 -133 36.5t-49 99.5q0 33 18 60t50 43q-21 15 -32.5 35t-11.5 44q0 54 44 88t114 34q69 0 112.5 -34t43.5 -88q0 -22 -11.5 -42t-32.5 -37q32 -18 50 -44.5t18 -58.5zM142 718q0 -18 15.5 -29t43.5 -11q26 0 41.5 11t15.5 29
t-15 28.5t-42 10.5q-28 0 -43.5 -10t-15.5 -29zM122 545q0 -24 22 -38.5t57 -14.5q34 0 55.5 14.5t21.5 38.5t-21.5 39t-55.5 15q-36 0 -57.5 -15t-21.5 -39z" />
    <glyph glyph-name="ninesuperior" unicode="&#x2079;" horiz-adv-x="400" 
d="M177 411h-83q-10 0 -13.5 9.5t4.5 19.5l95 109q-72 5 -114 43.5t-42 99.5q0 67 49.5 110t126.5 43q78 0 126.5 -42t48.5 -110q0 -27 -10.5 -54.5t-29.5 -49.5l-139 -168q-4 -5 -9 -7.5t-10 -2.5zM127 693q0 -26 21 -43.5t52 -17.5t51.5 17.5t20.5 43.5q0 27 -20.5 45
t-51.5 18t-52 -18t-21 -45z" />
    <glyph glyph-name="zeroinferior" unicode="&#x2080;" horiz-adv-x="400" 
d="M374 29q0 -107 -45.5 -165.5t-127.5 -58.5q-83 0 -129 58t-46 166q0 102 46.5 159t128.5 57q81 0 127 -57t46 -159zM130 29q0 -68 17.5 -102t53.5 -34q34 0 51 34.5t17 101.5q0 61 -17.5 93t-50.5 32q-35 0 -53 -31.5t-18 -93.5z" />
    <glyph glyph-name="oneinferior" unicode="&#x2081;" horiz-adv-x="400" 
d="M255 -189h-63q-8 0 -14 5.5t-6 13.5v266q0 7 -3.5 10t-9.5 0q-26 -12 -47.5 -18t-38.5 -6q-8 0 -12.5 5t-4.5 13v46q0 7 4.5 13t11.5 7q35 8 64 24.5t52 40.5q5 5 8.5 6.5t7.5 1.5h51q8 0 14 -6t6 -14v-389q0 -7 -6 -13t-14 -6z" />
    <glyph glyph-name="twoinferior" unicode="&#x2082;" horiz-adv-x="400" 
d="M342 -189h-286q-7 0 -13 6t-6 13v36q0 8 2 12.5t7 8.5l131 115q48 43 63 64t15 40q0 21 -16 34.5t-42 13.5t-41.5 -11.5t-20.5 -35.5q-2 -9 -8 -13.5t-14 -4.5h-57q-9 0 -15 6t-5 16q0 52 48 93t118 41q72 0 116 -37t44 -97q0 -33 -16.5 -63t-77.5 -86l-67 -61h141
q8 0 14 -6t6 -13v-52q0 -7 -6 -13t-14 -6z" />
    <glyph glyph-name="threeinferior" unicode="&#x2083;" horiz-adv-x="400" 
d="M373 -44q0 -68 -50.5 -109.5t-126.5 -41.5q-70 0 -117 35.5t-50 90.5q-1 8 4.5 14t13.5 6h64q8 0 12.5 -3.5t8.5 -11.5q7 -21 24.5 -32t42.5 -11q31 0 50.5 17t19.5 46q0 27 -19.5 42.5t-51.5 15.5h-36q-8 0 -13.5 4.5t-5.5 11.5v34q0 8 3 14t10 12l59 58h-153
q-8 0 -14 5.5t-6 12.5v53q0 8 6 14t14 6h270q8 0 14 -6t6 -14v-44q0 -5 -1.5 -9t-5.5 -7l-77 -77q53 -15 79 -46.5t26 -79.5z" />
    <glyph glyph-name="fourinferior" unicode="&#x2084;" horiz-adv-x="400" 
d="M301 -189h-59q-7 0 -13 6t-6 13v69h-182q-8 0 -14 5.5t-6 13.5v45q0 8 2 14.5t6 13.5l173 235q5 7 10.5 10t12.5 3h76q8 0 14.5 -6t6.5 -14v-237h33q8 0 14 -5.5t6 -13.5v-45q0 -7 -6 -13t-14 -6h-33v-69q0 -7 -6.5 -13t-14.5 -6zM224 120l-102 -138h102v138z" />
    <glyph glyph-name="fiveinferior" unicode="&#x2085;" horiz-adv-x="400" 
d="M373 -42q0 -66 -49.5 -109.5t-123.5 -43.5q-69 0 -115 34.5t-53 91.5q-1 9 4 14.5t15 5.5h62q8 0 13.5 -4t8.5 -12q7 -20 24.5 -31t42.5 -11q28 0 47.5 18.5t19.5 45.5t-18.5 44.5t-47.5 17.5q-20 0 -35 -5.5t-28 -17.5q-7 -6 -12 -8t-12 -1l-52 6q-10 1 -16 8.5t-5 16.5
l27 202q1 7 7.5 13t14.5 6h237q7 0 13 -6t6 -14v-53q0 -7 -5.5 -12.5t-13.5 -5.5h-164q-5 0 -7.5 -2.5t-3.5 -8.5l-8 -51q17 9 36 13.5t38 4.5q65 0 109 -41t44 -105z" />
    <glyph glyph-name="sixinferior" unicode="&#x2086;" horiz-adv-x="400" 
d="M377 -42q0 -66 -49.5 -109.5t-125.5 -43.5q-77 0 -126.5 42t-49.5 109q0 26 9.5 52.5t25.5 46.5l143 173q4 5 10 8t11 3h80q11 0 15.5 -10.5t-2.5 -19.5l-90 -104q67 -7 108 -47.5t41 -99.5zM129 -42q0 -28 21 -46.5t52 -18.5t51.5 18.5t20.5 46.5q0 27 -21 45.5
t-51 18.5q-31 0 -52 -18.5t-21 -45.5z" />
    <glyph glyph-name="seveninferior" unicode="&#x2087;" horiz-adv-x="400" 
d="M173 -189h-73q-12 0 -16 8t1 19l159 310h-188q-9 0 -14.5 5t-5.5 13v53q0 8 6 14t14 6h279q8 0 14.5 -6t6.5 -14v-42q0 -3 -1 -7t-2 -7l-161 -339q-3 -6 -8 -9.5t-11 -3.5z" />
    <glyph glyph-name="eightinferior" unicode="&#x2088;" horiz-adv-x="400" 
d="M381 -59q0 -62 -49 -99t-131 -37q-84 0 -133 36.5t-49 99.5q0 33 18 60t50 43q-21 15 -32.5 35t-11.5 44q0 54 44 88t114 34q69 0 112.5 -34t43.5 -88q0 -22 -11.5 -42t-32.5 -37q32 -18 50 -44.5t18 -58.5zM142 118q0 -18 15.5 -29t43.5 -11q26 0 41.5 11t15.5 29
t-15 28.5t-42 10.5q-28 0 -43.5 -10t-15.5 -29zM122 -55q0 -24 22 -38.5t57 -14.5q34 0 55.5 14.5t21.5 38.5t-21.5 39t-55.5 15q-36 0 -57.5 -15t-21.5 -39z" />
    <glyph glyph-name="nineinferior" unicode="&#x2089;" horiz-adv-x="400" 
d="M177 -189h-83q-10 0 -13.5 9.5t4.5 19.5l95 109q-72 5 -114 43.5t-42 99.5q0 67 49.5 110t126.5 43q78 0 126.5 -42t48.5 -110q0 -27 -10.5 -54.5t-29.5 -49.5l-139 -168q-4 -5 -9 -7.5t-10 -2.5zM127 93q0 -26 21 -43.5t52 -17.5t51.5 17.5t20.5 43.5q0 27 -20.5 45
t-51.5 18t-52 -18t-21 -45z" />
    <glyph glyph-name="Euro" unicode="&#x20ac;" 
d="M585 152q-25 -77 -87.5 -119.5t-150.5 -42.5q-101 0 -169 58.5t-93 168.5q-2 7 -5 10t-9 3h-27q-8 0 -13.5 5.5t-5.5 12.5v49q0 8 6 13.5t13 5.5h14q7 0 10.5 3.5t3.5 9.5v30q0 6 -3.5 10.5t-9.5 4.5h-15q-8 0 -13.5 5.5t-5.5 12.5v49q0 8 6 13.5t13 5.5h25q7 0 11.5 3
t5.5 9q25 104 93.5 161t167.5 57q87 0 146 -40.5t88 -119.5q4 -10 0.5 -16.5t-13.5 -6.5h-81q-14 0 -27 4.5t-19 11.5q-18 24 -40.5 35t-53.5 11q-42 0 -74 -24t-46 -66q-3 -9 0 -14t10 -5h199q8 0 13.5 -5.5t5.5 -13.5v-49q0 -7 -5.5 -12.5t-13.5 -5.5h-212q-6 0 -9.5 -4
t-3.5 -10v-31q0 -6 4 -9.5t10 -3.5h211q8 0 13.5 -5.5t5.5 -13.5v-49q0 -7 -5.5 -12.5t-13.5 -5.5h-204q-5 0 -7 -3t-1 -10q13 -51 46 -79.5t77 -28.5q32 0 55 12t43 40q5 7 11.5 10.5t17.5 3.5h90q14 0 19.5 -5.5t1.5 -17.5z" />
    <glyph glyph-name="uni2113" unicode="&#x2113;" horiz-adv-x="454" 
d="M419 67q-31 -38 -73 -57.5t-91 -19.5q-69 0 -113 42t-52 117l-24 -16q-7 -5 -15 -3.5t-13 9.5l-16 32q-5 7 -3 15t10 14l57 39v260q0 91 46 141t124 50q69 0 107 -42.5t38 -122.5q0 -90 -43.5 -164t-139.5 -146v-11q0 -50 17 -76.5t49 -26.5q19 0 36.5 8.5t45.5 33.5
q6 6 15 4.5t14 -8.5l26 -48q4 -7 3.5 -13t-5.5 -11zM218 516v-201q43 40 64 87.5t21 102.5q0 38 -11 58t-31 20q-19 0 -31 -18t-12 -49z" />
    <glyph glyph-name="uni2117" unicode="&#x2117;" horiz-adv-x="802" 
d="M756 340q0 -145 -104 -247.5t-251 -102.5t-251 102.5t-104 247.5t104 247.5t251 102.5t251 -102.5t104 -247.5zM126 340q0 -114 80 -193.5t195 -79.5q114 0 194 79.5t80 193.5q0 113 -80 192.5t-194 79.5q-115 0 -195 -79.5t-80 -192.5zM352 145h-53q-7 0 -12.5 5.5
t-5.5 13.5v349q0 8 5.5 13.5t12.5 5.5h148q52 0 86.5 -35t34.5 -88q0 -61 -37.5 -93.5t-107.5 -32.5h-40q-6 0 -9 -3t-3 -8v-108q0 -7 -5.5 -13t-13.5 -6zM385 357h47q19 0 31 14t12 36q0 20 -12 33t-31 13h-47q-7 0 -10.5 -3.5t-3.5 -11.5v-66q0 -7 3.5 -11t10.5 -4z" />
    <glyph glyph-name="trademark" unicode="&#x2122;" horiz-adv-x="374" 
d="M171 358h-26q-4 0 -5 2t0 6l42 132q1 2 2.5 3t3.5 1h22q2 0 3.5 -1t2.5 -3l29 -77q1 -2 2.5 -2t2.5 2l30 77q1 2 2.5 3t3.5 1h22q2 0 3.5 -1t2.5 -3l41 -132q1 -4 0 -6t-5 -2h-28q-2 0 -3 1t-2 3l-24 77q-1 2 -2 2t-2 -2l-27 -76q-1 -2 -3 -3.5t-4 -1.5h-16q-3 0 -4.5 1
t-2.5 4l-28 75q-1 2 -2 2t-2 -2l-23 -76q-1 -2 -2.5 -3t-3.5 -1zM90 358h-25q-2 0 -3.5 2t-1.5 4v104q0 2 -1 3t-3 1h-36q-3 0 -4 1t-1 4v20q0 2 1.5 3.5t3.5 1.5h116q2 0 3.5 -1.5t1.5 -3.5v-20q0 -3 -1 -4t-4 -1h-37q-1 0 -2 -1t-1 -3v-104q0 -3 -1.5 -4.5t-4.5 -1.5z" />
    <glyph glyph-name="Omega" unicode="&#x2126;" horiz-adv-x="813" 
d="M317 0h-247q-8 0 -13.5 5.5t-5.5 12.5v82q0 8 6 13.5t13 5.5h73q7 0 8.5 6t-4.5 13q-50 53 -74.5 107.5t-24.5 112.5q0 144 102.5 238t255.5 94t255.5 -93.5t102.5 -238.5q0 -59 -24.5 -114t-74.5 -106q-5 -7 -3.5 -13t8.5 -6h73q8 0 13.5 -5.5t5.5 -13.5v-82
q0 -7 -5.5 -12.5t-13.5 -5.5h-248q-7 0 -12.5 5.5t-5.5 13.5v66q0 9 2 14.5t7 9.5q68 62 99.5 123.5t31.5 127.5q0 86 -60.5 143.5t-150.5 57.5q-89 0 -149.5 -57.5t-60.5 -143.5q0 -66 31.5 -127.5t98.5 -123.5q5 -4 7 -9t2 -15v-66q0 -8 -5.5 -13.5t-12.5 -5.5z" />
    <glyph glyph-name="estimated" unicode="&#x212e;" horiz-adv-x="842" 
d="M427 -8q-75 0 -144 25t-123 72q-58 50 -89.5 115.5t-31.5 137.5q0 71 31.5 136t90.5 115q54 46 123 70.5t143 24.5q77 0 146.5 -25.5t123.5 -72.5q57 -50 88 -116.5t31 -140.5h-624q-5 0 -7 -2.5t-2 -8.5v-172q0 -54 82.5 -96t161.5 -42q71 0 135.5 30t114.5 86h55
q-53 -66 -132 -101t-173 -35zM192 351h470q5 0 7.5 2t2.5 6v174q0 12 -4.5 25t-12.5 21q-40 45 -98.5 68t-129.5 23t-127.5 -23t-97.5 -68q-8 -9 -13.5 -22t-5.5 -24v-174q0 -4 2 -6t7 -2z" />
    <glyph glyph-name="onethird" unicode="&#x2153;" horiz-adv-x="944" 
d="M259 -5h-54q-11 0 -15 8t3 18l418 654q4 5 8 7.5t10 2.5h56q11 0 14.5 -8t-3.5 -18l-419 -654q-4 -5 -8 -7.5t-10 -2.5zM255 252h-63q-8 0 -14 5.5t-6 13.5v266q0 7 -3.5 10t-9.5 0q-26 -12 -47.5 -18t-38.5 -6q-8 0 -12.5 5t-4.5 13v46q0 7 4.5 13t11.5 7q35 8 64 24.5
t52 40.5q5 5 8.5 6.5t7.5 1.5h51q8 0 14 -6t6 -14v-389q0 -7 -6 -13t-14 -6zM916 145q0 -68 -50.5 -109.5t-126.5 -41.5q-70 0 -117 35.5t-50 90.5q-1 8 4.5 14t13.5 6h64q8 0 12.5 -3.5t8.5 -11.5q7 -21 24.5 -32t42.5 -11q31 0 50.5 17t19.5 46q0 27 -19.5 42.5
t-51.5 15.5h-36q-8 0 -13.5 4.5t-5.5 11.5v34q0 8 3 14t10 12l59 58h-153q-8 0 -14 5.5t-6 12.5v53q0 8 6 14t14 6h270q8 0 14 -6t6 -14v-44q0 -5 -1.5 -9t-5.5 -7l-77 -77q53 -15 79 -46.5t26 -79.5z" />
    <glyph glyph-name="twothirds" unicode="&#x2154;" horiz-adv-x="994" 
d="M342 252h-286q-7 0 -13 6t-6 13v36q0 8 2 12.5t7 8.5l131 115q48 43 63 64t15 40q0 21 -16 34.5t-42 13.5t-41.5 -11.5t-20.5 -35.5q-2 -9 -8 -13.5t-14 -4.5h-57q-9 0 -15 6t-5 16q0 52 48 93t118 41q72 0 116 -37t44 -97q0 -33 -16.5 -63t-77.5 -86l-67 -61h141
q8 0 14 -6t6 -13v-52q0 -7 -6 -13t-14 -6zM310 -5h-54q-11 0 -15 8t3 18l418 654q4 5 8 7.5t10 2.5h56q11 0 14.5 -8t-3.5 -18l-419 -654q-4 -5 -8 -7.5t-10 -2.5zM967 145q0 -68 -50.5 -109.5t-126.5 -41.5q-70 0 -117 35.5t-50 90.5q-1 8 4.5 14t13.5 6h64q8 0 12.5 -3.5
t8.5 -11.5q7 -21 24.5 -32t42.5 -11q31 0 50.5 17t19.5 46q0 27 -19.5 42.5t-51.5 15.5h-36q-8 0 -13.5 4.5t-5.5 11.5v34q0 8 3 14t10 12l59 58h-153q-8 0 -14 5.5t-6 12.5v53q0 8 6 14t14 6h270q8 0 14 -6t6 -14v-44q0 -5 -1.5 -9t-5.5 -7l-77 -77q53 -15 79 -46.5
t26 -79.5z" />
    <glyph glyph-name="oneeighth" unicode="&#x215b;" horiz-adv-x="914" 
d="M259 -5h-54q-11 0 -15 8t3 18l418 654q4 5 8 7.5t10 2.5h56q11 0 14.5 -8t-3.5 -18l-419 -654q-4 -5 -8 -7.5t-10 -2.5zM255 252h-63q-8 0 -14 5.5t-6 13.5v266q0 7 -3.5 10t-9.5 0q-26 -12 -47.5 -18t-38.5 -6q-8 0 -12.5 5t-4.5 13v46q0 7 4.5 13t11.5 7q35 8 64 24.5
t52 40.5q5 5 8.5 6.5t7.5 1.5h51q8 0 14 -6t6 -14v-389q0 -7 -6 -13t-14 -6zM895 130q0 -62 -49 -99t-131 -37q-84 0 -133 36.5t-49 99.5q0 33 18 60t50 43q-21 15 -32.5 35t-11.5 44q0 54 44 88t114 34q69 0 112.5 -34t43.5 -88q0 -22 -11.5 -42t-32.5 -37q32 -18 50 -44.5
t18 -58.5zM656 307q0 -18 15.5 -29t43.5 -11q26 0 41.5 11t15.5 29t-15 28.5t-42 10.5q-28 0 -43.5 -10t-15.5 -29zM636 134q0 -24 22 -38.5t57 -14.5q34 0 55.5 14.5t21.5 38.5t-21.5 39t-55.5 15q-36 0 -57.5 -15t-21.5 -39z" />
    <glyph glyph-name="threeeighths" unicode="&#x215c;" horiz-adv-x="964" 
d="M310 -5h-54q-11 0 -15 8t3 18l418 654q4 5 8 7.5t10 2.5h56q11 0 14.5 -8t-3.5 -18l-419 -654q-4 -5 -8 -7.5t-10 -2.5zM373 397q0 -68 -50.5 -109.5t-126.5 -41.5q-70 0 -117 35.5t-50 90.5q-1 8 4.5 14t13.5 6h64q8 0 12.5 -3.5t8.5 -11.5q7 -21 24.5 -32t42.5 -11
q31 0 50.5 17t19.5 46q0 27 -19.5 42.5t-51.5 15.5h-36q-8 0 -13.5 4.5t-5.5 11.5v34q0 8 3 14t10 12l59 58h-153q-8 0 -14 5.5t-6 12.5v53q0 8 6 14t14 6h270q8 0 14 -6t6 -14v-44q0 -5 -1.5 -9t-5.5 -7l-77 -77q53 -15 79 -46.5t26 -79.5zM946 130q0 -62 -49 -99t-131 -37
q-84 0 -133 36.5t-49 99.5q0 33 18 60t50 43q-21 15 -32.5 35t-11.5 44q0 54 44 88t114 34q69 0 112.5 -34t43.5 -88q0 -22 -11.5 -42t-32.5 -37q32 -18 50 -44.5t18 -58.5zM707 307q0 -18 15.5 -29t43.5 -11q26 0 41.5 11t15.5 29t-15 28.5t-42 10.5q-28 0 -43.5 -10
t-15.5 -29zM687 134q0 -24 22 -38.5t57 -14.5q34 0 55.5 14.5t21.5 38.5t-21.5 39t-55.5 15q-36 0 -57.5 -15t-21.5 -39z" />
    <glyph glyph-name="fiveeighths" unicode="&#x215d;" horiz-adv-x="964" 
d="M310 -5h-54q-11 0 -15 8t3 18l418 654q4 5 8 7.5t10 2.5h56q11 0 14.5 -8t-3.5 -18l-419 -654q-4 -5 -8 -7.5t-10 -2.5zM373 399q0 -66 -49.5 -109.5t-123.5 -43.5q-69 0 -115 34.5t-53 91.5q-1 9 4 14.5t15 5.5h62q8 0 13.5 -4t8.5 -12q7 -20 24.5 -31t42.5 -11
q28 0 47.5 18.5t19.5 45.5t-18.5 44.5t-47.5 17.5q-20 0 -35 -5.5t-28 -17.5q-7 -6 -12 -8t-12 -1l-52 6q-10 1 -16 8.5t-5 16.5l27 202q1 7 7.5 13t14.5 6h237q7 0 13 -6t6 -14v-53q0 -7 -5.5 -12.5t-13.5 -5.5h-164q-5 0 -7.5 -2.5t-3.5 -8.5l-8 -51q17 9 36 13.5t38 4.5
q65 0 109 -41t44 -105zM946 130q0 -62 -49 -99t-131 -37q-84 0 -133 36.5t-49 99.5q0 33 18 60t50 43q-21 15 -32.5 35t-11.5 44q0 54 44 88t114 34q69 0 112.5 -34t43.5 -88q0 -22 -11.5 -42t-32.5 -37q32 -18 50 -44.5t18 -58.5zM707 307q0 -18 15.5 -29t43.5 -11
q26 0 41.5 11t15.5 29t-15 28.5t-42 10.5q-28 0 -43.5 -10t-15.5 -29zM687 134q0 -24 22 -38.5t57 -14.5q34 0 55.5 14.5t21.5 38.5t-21.5 39t-55.5 15q-36 0 -57.5 -15t-21.5 -39z" />
    <glyph glyph-name="seveneighths" unicode="&#x215e;" horiz-adv-x="867" 
d="M212 -5h-54q-11 0 -15 8t3 18l418 654q4 5 8 7.5t10 2.5h56q11 0 14.5 -8t-3.5 -18l-419 -654q-4 -5 -8 -7.5t-10 -2.5zM173 252h-73q-12 0 -16 8t1 19l159 310h-188q-9 0 -14.5 5t-5.5 13v53q0 8 6 14t14 6h279q8 0 14.5 -6t6.5 -14v-42q0 -3 -1 -7t-2 -7l-161 -339
q-3 -6 -8 -9.5t-11 -3.5zM848 130q0 -62 -49 -99t-131 -37q-84 0 -133 36.5t-49 99.5q0 33 18 60t50 43q-21 15 -32.5 35t-11.5 44q0 54 44 88t114 34q69 0 112.5 -34t43.5 -88q0 -22 -11.5 -42t-32.5 -37q32 -18 50 -44.5t18 -58.5zM609 307q0 -18 15.5 -29t43.5 -11
q26 0 41.5 11t15.5 29t-15 28.5t-42 10.5q-28 0 -43.5 -10t-15.5 -29zM589 134q0 -24 22 -38.5t57 -14.5q34 0 55.5 14.5t21.5 38.5t-21.5 39t-55.5 15q-36 0 -57.5 -15t-21.5 -39z" />
    <glyph glyph-name="arrowleft" unicode="&#x2190;" horiz-adv-x="880" 
d="M329 -82l-309 315q-8 9 -8 18.5t8 17.5l310 316q5 5 13 5t13 -5l33 -34q5 -5 5 -12.5t-6 -13.5l-230 -232h695q7 0 12.5 -6t5.5 -13v-46q0 -7 -5.5 -12t-12.5 -5h-695l229 -232q6 -6 6 -13.5t-5 -12.5l-33 -34q-5 -6 -12.5 -6t-13.5 5z" />
    <glyph glyph-name="arrowup" unicode="&#x2191;" horiz-adv-x="880" 
d="M463 -183h-47q-7 0 -12.5 5t-5.5 13v694l-232 -229q-6 -6 -12.5 -6.5t-13.5 4.5l-34 34q-6 5 -6 12.5t5 13.5l317 310q8 8 17.5 8t17.5 -8l315 -309q5 -5 5 -13t-6 -13l-33 -33q-5 -5 -12.5 -5t-13.5 6l-232 229v-695q0 -7 -5 -12.5t-12 -5.5z" />
    <glyph glyph-name="arrowright" unicode="&#x2192;" horiz-adv-x="880" 
d="M858 233l-309 -315q-5 -5 -12.5 -5t-12.5 6l-34 34q-5 6 -4.5 13t6.5 13l228 232h-694q-8 0 -13.5 5t-5.5 12v46q0 8 6 13.5t13 5.5h694l-230 232q-6 6 -6 13.5t5 12.5l33 34q5 5 13.5 5t12.5 -5l310 -316q8 -8 8 -17.5t-8 -18.5z" />
    <glyph glyph-name="arrowdown" unicode="&#x2193;" horiz-adv-x="880" 
d="M422 -163l-317 310q-5 6 -5 13.5t6 12.5l34 33q5 5 12.5 5t13.5 -6l232 -229v694q0 8 5.5 13t12.5 5h47q7 0 12 -5.5t5 -12.5v-695l232 229q6 6 13.5 6t12.5 -5l33 -33q6 -5 6 -13t-5 -13l-315 -309q-7 -8 -17 -8t-18 8z" />
    <glyph glyph-name="arrowboth" unicode="&#x2194;" horiz-adv-x="880" 
d="M329 -82l-309 315q-8 9 -8 18t8 18l311 316q5 5 12.5 5t12.5 -5l33 -34q5 -5 5 -12.5t-6 -13.5l-230 -232h562l-230 232q-6 6 -6 13.5t5 12.5l33 34q5 5 13.5 5t12.5 -5l310 -316q8 -8 8 -17.5t-8 -18.5l-309 -315q-5 -5 -12.5 -5t-12.5 6l-34 34q-5 6 -4.5 13t6.5 13
l228 232h-561l228 -232q6 -6 6 -13.5t-5 -12.5l-33 -34q-5 -6 -12.5 -6t-13.5 5z" />
    <glyph glyph-name="arrowupdn" unicode="&#x2195;" horiz-adv-x="880" 
d="M422 -166l-316 310q-5 5 -5 13t5 13l34 33q5 5 12.5 5t13.5 -6l232 -230v562l-232 -230q-6 -6 -13.5 -6t-12.5 5l-34 33q-5 5 -5 13t5 13l316 310q8 8 17.5 8t18.5 -8l315 -309q5 -6 5 -13.5t-6 -12.5l-34 -33q-6 -5 -13 -5t-13 6l-232 228v-561l232 229q6 6 13 6t13 -5
l34 -33q6 -5 6 -13t-5 -13l-315 -309q-9 -8 -18.5 -8t-17.5 8z" />
    <glyph glyph-name="uni2196" unicode="&#x2196;" horiz-adv-x="880" 
d="M706 -74l-491 491v-326q0 -8 -5.5 -13.5t-12.5 -5.5h-46q-7 0 -12.5 5.5t-5.5 12.5v441q0 11 7 18t18 7h444q7 0 12 -5.5t5 -12.5v-46q0 -7 -5 -12t-13 -5h-327l491 -491q5 -5 5 -13t-5 -12l-34 -34q-5 -5 -12.5 -4.5t-12.5 5.5z" />
    </font>
</defs>
</svg>
